<?xml version="1.0" encoding="UTF-8" standalone="no"?>
<!-- Created with Inkscape (http://www.inkscape.org/) -->

<svg
   width="50.191288mm"
   height="26.18647mm"
   viewBox="0 0 50.191288 26.18647"
   version="1.1"
   id="svg3810"
   xmlns:inkscape="http://www.inkscape.org/namespaces/inkscape"
   xmlns:sodipodi="http://sodipodi.sourceforge.net/DTD/sodipodi-0.dtd"
   xmlns:xlink="http://www.w3.org/1999/xlink"
   xmlns="http://www.w3.org/2000/svg"
   xmlns:svg="http://www.w3.org/2000/svg">
  <sodipodi:namedview
     id="namedview3812"
     pagecolor="#ffffff"
     bordercolor="#000000"
     borderopacity="0.25"
     inkscape:showpageshadow="2"
     inkscape:pageopacity="0.0"
     inkscape:pagecheckerboard="0"
     inkscape:deskcolor="#d1d1d1"
     inkscape:document-units="mm"
     showgrid="false" />
  <defs
     id="defs3807">
    <rect
       x="71.971031"
       y="100.88118"
       width="106.82231"
       height="29.477701"
       id="rect13588" />
    <linearGradient
       inkscape:collect="always"
       id="linearGradient12066">
      <stop
         style="stop-color:#7ac7d7;stop-opacity:1;"
         offset="0"
         id="stop12062" />
      <stop
         style="stop-color:#70b6cc;stop-opacity:0;"
         offset="1"
         id="stop12064" />
    </linearGradient>
    <radialGradient
       inkscape:collect="always"
       xlink:href="#linearGradient12066"
       id="radialGradient12068"
       cx="30.497242"
       cy="2.7463315"
       fx="30.497242"
       fy="2.7463315"
       r="25.595217"
       gradientTransform="matrix(0.86360388,-0.06799427,0.03033791,0.38532574,3.5216104,37.825438)"
       gradientUnits="userSpaceOnUse" />
  </defs>
  <g
     inkscape:label="Layer 1"
     inkscape:groupmode="layer"
     id="layer1"
     transform="translate(-4.904355,-20.866898)">
    <path
       style="fill:#2aceff;fill-opacity:1;stroke:#7ac7d7;stroke-width:1;stroke-linejoin:round;stroke-opacity:1"
       d="m 4.9045167,34.482662 50.1909663,0.01625"
       id="path3985"
       inkscape:export-filename="radiometers.svg"
       inkscape:export-xdpi="96"
       inkscape:export-ydpi="96" />
    <path
       style="fill:url(#radialGradient12068);fill-opacity:1;stroke:none;stroke-width:1;stroke-linejoin:round;stroke-opacity:1"
       d="M 4.9046786,34.998912 4.9045167,47.053366 54.459963,47.040507 55.095645,35.015174"
       id="path11984" />
    <rect
       style="fill:none;fill-opacity:1;stroke:#c64141;stroke-width:1;stroke-linejoin:round;stroke-dasharray:none;stroke-opacity:1"
       id="rect13305-7"
       width="3.7130527"
       height="3.9915931"
       x="43.092686"
       y="21.366898"
       ry="0.4861246" />
    <path
       style="fill:none;fill-opacity:1;stroke:#c64141;stroke-width:1;stroke-linejoin:round;stroke-dasharray:none;stroke-opacity:1"
       d="m 44.949214,25.207625 v 8.775038"
       id="path13361-5" />
    <path
       style="fill:none;fill-opacity:1;stroke:#c64141;stroke-width:1;stroke-linejoin:round;stroke-dasharray:none;stroke-opacity:1"
       d="m 44.171203,23.362694 h 1.556019"
       id="path13396-3" />
    <rect
       style="fill:none;fill-opacity:1;stroke:#c64141;stroke-width:1;stroke-linejoin:round;stroke-dasharray:none;stroke-opacity:1"
       id="rect13305-7-5"
       width="3.7130527"
       height="3.9915931"
       x="12.457113"
       y="21.366898"
       ry="0.4861246" />
    <path
       style="fill:none;fill-opacity:1;stroke:#c64141;stroke-width:1;stroke-linejoin:round;stroke-dasharray:none;stroke-opacity:1"
       d="m 14.313641,25.207624 v 8.775038"
       id="path13361-5-6" />
    <path
       style="fill:none;fill-opacity:1;stroke:#c64141;stroke-width:1;stroke-linejoin:round;stroke-dasharray:none;stroke-opacity:1"
       d="m 13.53563,23.362693 h 1.556019"
       id="path13396-3-2" />
    <g
       aria-label="Radiometers"
       transform="matrix(0.26458333,0,0,0.26458333,-3.7227873,-0.00772993)"
       id="text13586"
       style="font-size:18.6667px;font-family:'Latin Modern Sans';-inkscape-font-specification:'Latin Modern Sans';text-align:center;text-anchor:middle;white-space:pre;shape-inside:url(#rect13588);fill:#c64141;stroke:#c64141;stroke-width:3.77953;stroke-linejoin:round">
      <path
         d="m 88.823076,118.25956 -3.696006,-6.08535 c 1.92267,-0.56 3.173339,-1.88533 3.173339,-3.39734 0,-1.848 -2.034671,-3.472 -4.704009,-3.472 h -4.498675 v 12.95469 h 1.605337 v -5.91735 H 83.6524 l 3.50934,5.91735 z m -2.03467,-9.48269 c 0,1.32534 -1.194669,2.42667 -3.397339,2.42667 h -2.688005 v -4.85334 h 2.688005 c 2.165337,0 3.397339,1.10134 3.397339,2.42667 z"
         style="stroke:none"
         id="path13813" />
      <path
         d="m 96.999089,118.25956 v -5.39468 c 0,-1.904 -1.362669,-3.21067 -3.080006,-3.21067 -1.213335,0 -2.053337,0.29867 -2.930672,0.80267 l 0.112001,1.232 c 0.970668,-0.69067 1.904003,-0.93334 2.818671,-0.93334 0.877335,0 1.624003,0.74667 1.624003,2.12801 v 0.80267 c -2.800005,0.0373 -5.170676,0.82133 -5.170676,2.464 0,0.80267 0.504001,2.31467 2.128004,2.31467 0.261334,0 2.016004,-0.0373 3.098672,-0.87733 v 0.672 z m -1.456003,-2.46401 c 0,0.35467 0,0.82134 -0.634668,1.17601 -0.541334,0.336 -1.250668,0.35466 -1.456002,0.35466 -0.896002,0 -1.736003,-0.42933 -1.736003,-1.21333 0,-1.30667 3.024005,-1.43734 3.826673,-1.47467 z"
         style="stroke:none"
         id="path13815" />
      <path
         d="m 106.44446,118.25956 v -12.95469 h -1.40001 v 5.48801 c -0.98933,-0.82134 -2.03467,-1.02667 -2.72533,-1.02667 -1.84801,0 -3.304011,1.94134 -3.304011,4.34934 0,2.44534 1.437341,4.34934 3.210671,4.34934 0.616,0 1.71734,-0.168 2.76267,-1.176 v 0.97067 z m -1.45601,-2.59467 c 0,0.26133 -0.0187,0.59733 -0.616,1.13866 -0.42933,0.37334 -0.896,0.52267 -1.38133,0.52267 -1.15734,0 -2.52001,-0.87733 -2.52001,-3.192 0,-2.46401 1.60534,-3.22934 2.70667,-3.22934 0.84001,0 1.40001,0.42933 1.81067,1.02667 z"
         style="stroke:none"
         id="path13817" />
      <path
         d="m 110.9058,118.25956 v -8.28802 h -1.4 v 8.28802 z m 0.14934,-10.56535 v -1.66134 h -1.66134 v 1.66134 z"
         style="stroke:none"
         id="path13819" />
      <path
         d="m 121.20983,114.15288 c 0,-2.50133 -1.86667,-4.49867 -4.08801,-4.49867 -2.29601,0 -4.10668,2.05334 -4.10668,4.49867 0,2.46401 1.90401,4.31201 4.08801,4.31201 2.24001,0 4.10668,-1.88534 4.10668,-4.31201 z m -1.45601,-0.18666 c 0,2.20267 -1.26933,3.304 -2.65067,3.304 -1.288,0 -2.632,-1.04533 -2.632,-3.304 0,-2.25867 1.41867,-3.17334 2.632,-3.17334 1.30667,0 2.65067,0.97067 2.65067,3.17334 z"
         style="stroke:none"
         id="path13821" />
      <path
         d="m 135.09785,118.25956 v -5.56268 c 0,-1.25067 -0.29866,-2.93067 -2.55734,-2.93067 -1.12,0 -2.09067,0.52267 -2.78133,1.53067 -0.48534,-1.41867 -1.79201,-1.53067 -2.38934,-1.53067 -1.344,0 -2.22134,0.76533 -2.72534,1.43733 v -1.344 h -1.344 v 8.40002 h 1.456 v -4.57334 c 0,-1.26934 0.504,-2.78134 1.88534,-2.78134 1.736,0 1.82933,1.21333 1.82933,1.92267 v 5.43201 h 1.45601 v -4.57334 c 0,-1.26934 0.504,-2.78134 1.88533,-2.78134 1.73601,0 1.82934,1.21333 1.82934,1.92267 v 5.43201 z"
         style="stroke:none"
         id="path13823" />
      <path
         d="m 144.33788,114.17155 c 0,-0.63467 -0.0187,-2.03467 -0.74667,-3.15467 -0.76533,-1.15734 -1.904,-1.36267 -2.576,-1.36267 -2.072,0 -3.75201,1.97867 -3.75201,4.38667 0,2.46401 1.79201,4.42401 4.03201,4.42401 1.176,0 2.24,-0.448 2.96801,-0.97067 l -0.11201,-1.21333 c -1.176,0.97067 -2.408,1.04533 -2.83733,1.04533 -1.49334,0 -2.68801,-1.32533 -2.74401,-3.15467 z m -1.064,-1.02667 h -4.61067 c 0.29866,-1.41867 1.288,-2.352 2.352,-2.352 0.97067,0 2.016,0.63467 2.25867,2.352 z"
         style="stroke:none"
         id="path13825" />
      <path
         d="m 151.09523,117.75556 -0.29867,-1.10134 c -0.48533,0.392 -1.08267,0.616 -1.68,0.616 -0.69067,0 -0.952,-0.56 -0.952,-1.54933 v -4.66668 h 2.632 v -1.08267 h -2.632 v -2.37067 h -1.288 v 2.37067 h -1.62401 v 1.08267 h 1.56801 v 4.98401 c 0,1.12 0.26133,2.42667 1.54933,2.42667 1.30667,0 2.25867,-0.46667 2.72534,-0.70933 z"
         style="stroke:none"
         id="path13827" />
      <path
         d="m 159.36458,114.17155 c 0,-0.63467 -0.0187,-2.03467 -0.74667,-3.15467 -0.76534,-1.15734 -1.904,-1.36267 -2.57601,-1.36267 -2.072,0 -3.752,1.97867 -3.752,4.38667 0,2.46401 1.792,4.42401 4.03201,4.42401 1.176,0 2.24,-0.448 2.968,-0.97067 l -0.112,-1.21333 c -1.176,0.97067 -2.408,1.04533 -2.83734,1.04533 -1.49333,0 -2.688,-1.32533 -2.744,-3.15467 z m -1.064,-1.02667 h -4.61068 c 0.29867,-1.41867 1.288,-2.352 2.352,-2.352 0.97067,0 2.01601,0.63467 2.25868,2.352 z"
         style="stroke:none"
         id="path13829" />
      <path
         d="m 166.0286,111.01688 v -1.25067 c -1.66134,0.0187 -2.68801,0.93333 -3.26667,1.792 v -1.69867 h -1.30667 v 8.40002 h 1.4 v -3.99468 c 0,-1.86667 1.344,-3.21067 3.17334,-3.248 z"
         style="stroke:none"
         id="path13831" />
      <path
         d="m 173.02863,115.87022 c 0,-1.02667 -0.69067,-1.66134 -0.72801,-1.71734 -0.728,-0.65333 -1.232,-0.76533 -2.16533,-0.93333 -1.02667,-0.20534 -1.88534,-0.392 -1.88534,-1.30667 0,-1.15734 1.344,-1.15734 1.58667,-1.15734 0.59733,0 1.58667,0.0747 2.65067,0.70934 l 0.224,-1.21334 c -0.97067,-0.448 -1.736,-0.59733 -2.688,-0.59733 -0.46667,0 -3.09868,0 -3.09868,2.44534 0,0.91466 0.54134,1.512 1.00801,1.86667 0.57866,0.41066 0.98933,0.48533 2.016,0.69066 0.672,0.13067 1.75467,0.35467 1.75467,1.34401 0,1.288 -1.47467,1.288 -1.75467,1.288 -1.512,0 -2.55734,-0.69067 -2.89334,-0.91467 l -0.224,1.26934 c 0.59734,0.29866 1.624,0.82133 3.13601,0.82133 0.336,0 1.36267,0 2.16533,-0.59733 0.57867,-0.448 0.89601,-1.19467 0.89601,-1.99734 z"
         style="stroke:none"
         id="path13833" />
    </g>
  </g>
</svg>
