<?xml version="1.0" encoding="UTF-8" standalone="no"?>
<!-- Created with Inkscape (http://www.inkscape.org/) -->

<svg
   version="1.1"
   id="svg11282"
   width="1523.467"
   height="1523.5487"
   viewBox="0 0 1523.467 1523.5487"
   sodipodi:docname="sat.png"
   xmlns:inkscape="http://www.inkscape.org/namespaces/inkscape"
   xmlns:sodipodi="http://sodipodi.sourceforge.net/DTD/sodipodi-0.dtd"
   xmlns="http://www.w3.org/2000/svg"
   xmlns:svg="http://www.w3.org/2000/svg">
  <defs
     id="defs11286" />
  <sodipodi:namedview
     id="namedview11284"
     pagecolor="#ffffff"
     bordercolor="#000000"
     borderopacity="0.25"
     inkscape:showpageshadow="2"
     inkscape:pageopacity="0.0"
     inkscape:pagecheckerboard="0"
     inkscape:deskcolor="#d1d1d1"
     showgrid="false" />
  <g
     inkscape:groupmode="layer"
     inkscape:label="Image"
     id="g11288"
     transform="translate(-553.78924,-523.86633)">
    <path
       style="fill:#185a73;fill-opacity:1;stroke-width:0.32"
       d="m 1017.7065,2046.7816 c -1.074,-0.3074 -2.658,-0.9616 -3.52,-1.4537 -1.0838,-0.6187 -34.91931,-34.2351 -109.64751,-108.9377 l -108.0801,-108.0428 -12.6524,12.6523 -12.6523,12.6523 1.5972,3.3471 c 6.639,13.9128 7.5716,30.2259 2.5832,45.1872 -3.2581,9.772 -9.2654,18.9211 -16.7956,25.5798 -14.6132,12.9221 -34.3,18.0318 -53.2426,13.819 -25.2542,-5.6165 -43.9346,-26.5377 -46.7397,-52.3463 -1.9389,-17.8402 4.4783,-36.1474 17.087,-48.7455 10.9598,-10.9507 24.9937,-17.0656 40.4953,-17.645 10.4301,-0.3898 20.4678,1.7687 29.5535,6.3552 l 1.906,0.9622 12.6697,-12.6697 12.6697,-12.6696 -108.0429,-108.0801 c -69.3867,-69.4107 -108.3385,-108.5991 -108.8691,-109.5306 -3.243,-5.6932 -2.9464,-12.2933 0.8049,-17.9109 1.9677,-2.9467 16.4791,-16.4203 26.4893,-24.5949 38.5381,-31.4712 82.0667,-53.4187 130.0989,-65.5971 42.7551,-10.8404 87.7981,-13.2047 131.36,-6.8952 63.6212,9.2149 123.1761,36.3298 171.16171,77.9284 2.5125,2.1781 4.9585,4.2791 5.4355,4.6689 l 0.8672,0.7087 20.7392,-20.741 20.7392,-20.7411 -4.1114,-5.1161 c -40.111,-49.9126 -55.8124,-114.5639 -43.1422,-177.6398 7.4787,-37.2308 24.8342,-71.9483 50.1801,-100.3794 1.4122,-1.584 23.7446,-24.0845 49.6276,-50.0011 l 47.0601,-47.121 -44.478,-44.4789 -44.478,-44.4789 11.7595,-11.7596 11.7596,-11.7595 44.4798,44.4789 44.4798,44.479 103.1202,-103.0666 c 56.716,-56.6867 103.8401,-103.6478 104.7201,-104.358 4.3154,-3.4831 10.9792,-7.0968 16.32,-8.8502 10.5437,-3.4614 21.8883,-3.4686 32.4139,-0.021 6.391,2.0935 12.3157,5.3716 17.3461,9.5972 1.32,1.1089 55.196,54.8379 119.7245,119.3978 80.4062,80.4453 117.8686,118.1368 119.0535,119.7816 6.1575,8.5471 9.4662,17.5101 10.1523,27.5006 0.8997,13.1026 -3.2098,26.36 -11.2646,36.3394 -0.7102,0.88 -47.6714,48.0041 -104.358,104.7201 l -103.0666,103.1202 44.479,44.4798 44.4789,44.4798 -11.7595,11.7596 -11.7596,11.7595 -44.4783,-44.4774 -44.4784,-44.4775 -46.4816,46.4254 c -46.302,46.246 -49.2874,49.158 -56.8816,55.4837 -49.2884,41.0555 -115.8324,57.727 -179.4674,44.9626 -33.9059,-6.8011 -65.4389,-21.5395 -92.3145,-43.1475 l -5.1141,-4.1117 -20.8081,20.8081 -20.8082,20.8082 2.548,2.8236 c 15.2827,16.9357 30.8107,38.9453 42.8551,60.7435 3.9345,7.1207 11.0727,21.8008 14.3152,29.44 24.0254,56.6027 32.2375,117.406 24.0517,178.08 -8.7782,65.0646 -36.6057,126.5135 -79.4853,175.52 -5.7718,6.5965 -15.4967,16.841 -17.2265,18.1469 -4.2713,3.2246 -9.9154,4.298 -14.9784,2.8485 z m 322.5221,-673.7494 c 1.1933,-0.4535 2.9213,-1.3274 3.84,-1.942 0.9217,-0.6165 44.0654,-43.5425 96.2564,-95.7707 102.2538,-102.3267 95.7108,-95.5615 97.1093,-100.4055 0.7747,-2.6834 0.7067,-7.3649 -0.1465,-10.0878 -1.4141,-4.5125 -0.083,-3.1005 -49.2607,-52.2623 l -46.2881,-46.2733 -2.72,-1.2591 c -6.0227,-2.7879 -12.3048,-2.454 -17.6231,0.9366 -2.7871,1.777 -189.7511,188.6731 -191.4626,191.3932 -1.8345,2.9155 -2.8154,6.2849 -2.827,9.711 -0.011,3.3822 0.5653,5.6899 2.238,8.9539 1.0477,2.0444 3.2314,4.3307 25.0113,26.1863 13.1249,13.1705 34.0874,34.0616 46.5834,46.4246 20.7375,20.5168 22.9091,22.571 24.8871,23.5411 3.1956,1.5673 5.0057,1.9339 8.8729,1.7973 2.6337,-0.093 3.829,-0.2969 5.5296,-0.9433 z m 490.9505,593.7141 -57.2793,-57.28 41.2792,-41.2801 41.2792,-41.2801 57.3604,57.3596 57.3603,57.3597 -41.1995,41.2004 c -22.6597,22.6602 -41.2718,41.2004 -41.3603,41.2004 -0.088,0 -25.9365,-25.776 -57.44,-57.2799 z m 105.9995,-106.1605 -57.1997,-57.2004 41.3604,-41.3595 41.3605,-41.3596 57.2783,57.279 57.2783,57.279 -8.4778,8.5609 c -25.4306,25.6798 -73.8029,74.001 -74.0793,74.001 -0.1766,0 -26.0608,-25.7402 -57.5207,-57.2004 z m -244.2395,-32.0795 -57.2793,-57.28 41.2792,-41.2801 41.2792,-41.2801 57.3604,57.3596 57.3603,57.3597 -41.1995,41.2004 c -22.6597,22.6602 -41.2718,41.2004 -41.3603,41.2004 -0.088,0 -25.9365,-25.776 -57.44,-57.2799 z m 105.9995,-106.1605 -57.1997,-57.2004 41.3604,-41.3595 41.3605,-41.3596 57.3596,57.3603 57.3597,57.3604 -41.2005,41.1996 c -22.6603,22.6598 -41.3445,41.1996 -41.5204,41.1996 -0.1759,0 -26.0597,-25.7402 -57.5196,-57.2004 z m -244.2395,-32.0795 -57.2793,-57.28 41.2792,-41.2801 41.2792,-41.2801 57.3604,57.3596 57.3603,57.3597 -41.1995,41.2004 c -22.6597,22.6602 -41.2718,41.2004 -41.3603,41.2004 -0.088,0 -25.9365,-25.776 -57.44,-57.2799 z m 106.1595,-106.0005 -57.3597,-57.3604 41.3604,-41.3595 41.3605,-41.3596 57.3596,57.3603 57.3597,57.3604 -41.3604,41.3595 -41.3605,41.3596 z m -749.99951,-537.8395 -57.2793,-57.28 41.2792,-41.2801 41.2792,-41.2801 57.3604,57.3596 57.36031,57.3597 -41.1995,41.2004 c -22.65971,22.6602 -41.27181,41.2004 -41.36031,41.2004 -0.088,0 -25.9364,-25.776 -57.44,-57.2799 z m 692.07791,-48.0821 -68.5614,-68.5619 32.8817,-32.8325 c 34.9745,-34.92221 34.4677,-34.45376 40.5617,-37.49028 2.8733,-1.43171 7.7069,-2.97468 11.2772,-3.5999 3.6012,-0.63062 10.3244,-0.63062 13.9256,0 6.2843,1.10048 12.7895,3.87728 18.0436,7.70208 3.444,2.50717 84.1158,83.1521 86.638,86.6091 3.804,5.2141 6.6239,11.821 7.7222,18.0926 0.6306,3.6012 0.6306,10.3244 0,13.9256 -1.0619,6.0637 -3.1107,11.0869 -6.8185,16.7172 -1.9148,2.9076 -5.0616,6.1605 -34.4381,35.6 -17.782,17.82 -32.4072,32.4 -32.5007,32.4 -0.093,0 -31.0225,-30.8529 -68.7313,-68.562 z m -585.9184,-57.9185 -57.35971,-57.36032 41.36041,-41.35952 41.3605,-41.35955 57.3596,57.36032 57.3597,57.36037 -41.3604,41.3595 -41.3605,41.3596 z m -244.39951,-32.2395 -57.2793,-57.27989 41.2792,-41.28013 41.2792,-41.28013 57.3604,57.35965 57.3603,57.35968 -41.1995,41.20042 c -22.6597,22.6602 -41.2718,41.2004 -41.3603,41.2004 -0.088,0 -25.9364,-25.776 -57.44,-57.28 z m 106.1595,-106.00047 -57.3597,-57.36035 41.3604,-41.35952 41.3605,-41.35955 57.3597,57.36032 57.35961,57.36035 -41.36041,41.35952 -41.3605,41.35955 z m -244.3995,-32.23949 -57.2793,-57.27993 41.2792,-41.28013 41.2792,-41.28013 57.3604,57.35965 57.3603,57.35968 -41.1995,41.20042 c -22.6597,22.66019 -41.2718,41.20038 -41.3603,41.20038 -0.088,0 -25.9364,-25.77597 -57.44,-57.27994 z m 106.1595,-106.00051 -57.3597,-57.36035 41.3604,-41.35952 41.3605,-41.35955 57.3597,57.36032 57.3596,57.36035 -41.3604,41.35952 -41.3605,41.35955 z"
       id="path11409"
       inkscape:export-filename="sat.svg"
       inkscape:export-xdpi="96"
       inkscape:export-ydpi="96" />
  </g>
</svg>
