<?xml version="1.0" encoding="UTF-8" standalone="no"?>
<!-- Created with Inkscape (http://www.inkscape.org/) -->

<svg
   width="71.656975mm"
   height="45.053303mm"
   viewBox="0 0 71.656975 45.053303"
   version="1.1"
   id="svg28554"
   xmlns:inkscape="http://www.inkscape.org/namespaces/inkscape"
   xmlns:sodipodi="http://sodipodi.sourceforge.net/DTD/sodipodi-0.dtd"
   xmlns:xlink="http://www.w3.org/1999/xlink"
   xmlns="http://www.w3.org/2000/svg"
   xmlns:svg="http://www.w3.org/2000/svg">
  <sodipodi:namedview
     id="namedview28556"
     pagecolor="#ffffff"
     bordercolor="#000000"
     borderopacity="0.25"
     inkscape:showpageshadow="2"
     inkscape:pageopacity="0.0"
     inkscape:pagecheckerboard="0"
     inkscape:deskcolor="#d1d1d1"
     inkscape:document-units="mm"
     showgrid="false" />
  <defs
     id="defs28551">
    <marker
       style="overflow:visible"
       id="TriangleStart"
       refX="0"
       refY="0"
       orient="auto-start-reverse"
       inkscape:stockid="TriangleStart"
       markerWidth="3"
       markerHeight="3"
       viewBox="0 0 5.3244081 6.1553851"
       inkscape:isstock="true"
       inkscape:collect="always"
       preserveAspectRatio="xMidYMid">
      <path
         transform="scale(0.5)"
         style="fill:context-stroke;fill-rule:evenodd;stroke:context-stroke;stroke-width:1pt"
         d="M 5.77,0 -2.88,5 V -5 Z"
         id="path135" />
    </marker>
    <radialGradient
       inkscape:collect="always"
       xlink:href="#linearGradient1126"
       id="radialGradient1128"
       cx="21.256737"
       cy="33.088909"
       fx="21.256737"
       fy="33.088909"
       r="18.880239"
       gradientTransform="matrix(1.1725731,-0.12051184,0.04444346,0.43243238,20.953001,24.368636)"
       gradientUnits="userSpaceOnUse" />
    <linearGradient
       inkscape:collect="always"
       id="linearGradient1126">
      <stop
         style="stop-color:#dceff9;stop-opacity:1;"
         offset="0"
         id="stop1122" />
      <stop
         style="stop-color:#dceff9;stop-opacity:0;"
         offset="1"
         id="stop1124" />
    </linearGradient>
    <marker
       style="overflow:visible"
       id="TriangleStart-0"
       refX="0"
       refY="0"
       orient="auto-start-reverse"
       inkscape:stockid="TriangleStart"
       markerWidth="3"
       markerHeight="3"
       viewBox="0 0 5.3244081 6.1553851"
       inkscape:isstock="true"
       inkscape:collect="always"
       preserveAspectRatio="xMidYMid">
      <path
         transform="scale(0.5)"
         style="fill:context-stroke;fill-rule:evenodd;stroke:context-stroke;stroke-width:1pt"
         d="M 5.77,0 -2.88,5 V -5 Z"
         id="path135-3" />
    </marker>
    <marker
       style="overflow:visible"
       id="TriangleStart-1"
       refX="0"
       refY="0"
       orient="auto-start-reverse"
       inkscape:stockid="TriangleStart"
       markerWidth="3"
       markerHeight="3"
       viewBox="0 0 5.3244081 6.1553851"
       inkscape:isstock="true"
       inkscape:collect="always"
       preserveAspectRatio="xMidYMid">
      <path
         transform="scale(0.5)"
         style="fill:context-stroke;fill-rule:evenodd;stroke:context-stroke;stroke-width:1pt"
         d="M 5.77,0 -2.88,5 V -5 Z"
         id="path135-0" />
    </marker>
  </defs>
  <g
     inkscape:label="Layer 1"
     inkscape:groupmode="layer"
     id="layer1"
     transform="translate(-8.6829415,-4.9466988)">
    <g
       id="g28717"
       transform="matrix(0.17674072,0,0,0.17674072,-6.8594888,-19.600542)">
      <path
         fill-rule="evenodd"
         clip-rule="evenodd"
         d="m 126.4169,189.04627 c 1.47633,-1.47628 3.86976,-1.47628 5.34609,0 l 3.56406,3.56411 c 1.47633,1.47628 1.47633,3.86983 0,5.34614 l -7.12812,7.12819 c -1.47633,1.47627 -3.86976,1.47627 -5.34609,0 l -0.6749,-0.67476 -2.66536,2.66556 3.91436,3.91454 c 2.46072,2.46046 2.46072,6.44968 0,8.91014 l -3.56405,3.56431 c -2.46047,2.46047 -6.44968,2.46047 -8.91015,0 l -3.91456,-3.91461 -2.62811,2.62806 0.67473,0.67465 c 1.4763,1.47633 1.4763,3.87001 0,5.34634 l -7.128192,7.12812 c -1.47628,1.47632 -3.869835,1.47632 -5.346139,0 L 89.046387,231.763 c -1.476304,-1.47633 -1.476304,-3.87001 0,-5.34609 l 7.128192,-7.12837 c 1.476278,-1.47633 3.869831,-1.47633 5.346141,0 l 1.10729,1.10738 2.62814,-2.62806 -4.99568,-4.99578 c -2.460492,-2.46047 -2.460492,-6.44971 0,-8.9102 l 3.56408,-3.56408 c 2.46049,-2.46049 6.44976,-2.46049 8.91022,0 l 4.99578,4.99565 2.66536,-2.66556 -1.10712,-1.10729 c -1.47633,-1.47628 -1.47633,-3.86984 0,-5.34614 z m -24.69404,34.0087 -1.9842,-1.9844 c -0.492091,-0.49194 -1.289934,-0.49194 -1.782052,0 l -7.128167,7.12837 c -0.492093,0.49194 -0.492093,1.28983 0,1.78203 l 3.564083,3.56406 c 0.492092,0.49194 1.289961,0.49194 1.782055,0 l 7.128161,-7.12812 c 0.49212,-0.49219 0.49212,-1.29009 0,-1.78228 l -1.55163,-1.55143 c -0.005,-0.005 -0.009,-0.009 -0.0142,-0.0141 -0.005,-0.005 -0.009,-0.01 -0.014,-0.0141 z m 28.2581,-32.22665 c -0.49219,-0.49209 -1.28983,-0.49209 -1.78203,0 l -7.12812,7.1282 c -0.49219,0.49209 -0.49219,1.28993 0,1.78205 l 3.56406,3.56408 c 0.4922,0.49209 1.28984,0.49209 1.78203,0 l 7.12812,-7.12819 c 0.49219,-0.49209 0.49219,-1.28994 0,-1.78205 z m -27.93844,20.16173 c -1.4763,-1.47633 -1.4763,-3.86983 0,-5.34611 l 3.56408,-3.56411 c 1.47631,-1.47628 3.86981,-1.47628 5.34614,0 l 10.69217,10.69225 c 1.47633,1.47633 1.47633,3.86975 0,5.34608 l -3.56405,3.56406 c -1.47633,1.47633 -3.86976,1.47633 -5.34609,0 z"
         fill="#47495f"
         id="path28422"
         style="stroke-width:2.52019" />
    </g>
    <g
       id="g28717-3"
       transform="matrix(0.17674072,0,0,0.17674072,18.315856,-28.269786)">
      <path
         fill-rule="evenodd"
         clip-rule="evenodd"
         d="m 126.4169,189.04627 c 1.47633,-1.47628 3.86976,-1.47628 5.34609,0 l 3.56406,3.56411 c 1.47633,1.47628 1.47633,3.86983 0,5.34614 l -7.12812,7.12819 c -1.47633,1.47627 -3.86976,1.47627 -5.34609,0 l -0.6749,-0.67476 -2.66536,2.66556 3.91436,3.91454 c 2.46072,2.46046 2.46072,6.44968 0,8.91014 l -3.56405,3.56431 c -2.46047,2.46047 -6.44968,2.46047 -8.91015,0 l -3.91456,-3.91461 -2.62811,2.62806 0.67473,0.67465 c 1.4763,1.47633 1.4763,3.87001 0,5.34634 l -7.128192,7.12812 c -1.47628,1.47632 -3.869835,1.47632 -5.346139,0 L 89.046387,231.763 c -1.476304,-1.47633 -1.476304,-3.87001 0,-5.34609 l 7.128192,-7.12837 c 1.476278,-1.47633 3.869831,-1.47633 5.346141,0 l 1.10729,1.10738 2.62814,-2.62806 -4.99568,-4.99578 c -2.460492,-2.46047 -2.460492,-6.44971 0,-8.9102 l 3.56408,-3.56408 c 2.46049,-2.46049 6.44976,-2.46049 8.91022,0 l 4.99578,4.99565 2.66536,-2.66556 -1.10712,-1.10729 c -1.47633,-1.47628 -1.47633,-3.86984 0,-5.34614 z m -24.69404,34.0087 -1.9842,-1.9844 c -0.492091,-0.49194 -1.289934,-0.49194 -1.782052,0 l -7.128167,7.12837 c -0.492093,0.49194 -0.492093,1.28983 0,1.78203 l 3.564083,3.56406 c 0.492092,0.49194 1.289961,0.49194 1.782055,0 l 7.128161,-7.12812 c 0.49212,-0.49219 0.49212,-1.29009 0,-1.78228 l -1.55163,-1.55143 c -0.005,-0.005 -0.009,-0.009 -0.0142,-0.0141 -0.005,-0.005 -0.009,-0.01 -0.014,-0.0141 z m 28.2581,-32.22665 c -0.49219,-0.49209 -1.28983,-0.49209 -1.78203,0 l -7.12812,7.1282 c -0.49219,0.49209 -0.49219,1.28993 0,1.78205 l 3.56406,3.56408 c 0.4922,0.49209 1.28984,0.49209 1.78203,0 l 7.12812,-7.12819 c 0.49219,-0.49209 0.49219,-1.28994 0,-1.78205 z m -27.93844,20.16173 c -1.4763,-1.47633 -1.4763,-3.86983 0,-5.34611 l 3.56408,-3.56411 c 1.47631,-1.47628 3.86981,-1.47628 5.34614,0 l 10.69217,10.69225 c 1.47633,1.47633 1.47633,3.86975 0,5.34608 l -3.56405,3.56406 c -1.47633,1.47633 -3.86976,1.47633 -5.34609,0 z"
         fill="#47495f"
         id="path28422-1"
         style="stroke-width:2.52019" />
    </g>
    <path
       style="fill:#dceff9;fill-opacity:0;stroke:#98d8f8;stroke-width:1;stroke-linejoin:round;stroke-opacity:1"
       d="M 9.6148595,38.424089 C 23.382577,27.403142 69.376406,25.899975 80.100154,31.76006"
       id="path236"
       sodipodi:nodetypes="cc"
       inkscape:export-filename="surface.svg"
       inkscape:export-xdpi="96"
       inkscape:export-ydpi="96" />
    <path
       style="fill:url(#radialGradient1128);fill-opacity:1;stroke:none;stroke-width:1;stroke-linejoin:round;stroke-opacity:1"
       d="M 65.417741,50 9.6148595,38.424089 C 43.909627,25 60.48917,26.674684 80.100154,31.76006 Z"
       id="path236-3"
       sodipodi:nodetypes="cccc" />
    <g
       id="g28717-7"
       transform="matrix(0.17674072,0,0,0.17674072,47.222188,-27.495814)">
      <path
         fill-rule="evenodd"
         clip-rule="evenodd"
         d="m 126.4169,189.04627 c 1.47633,-1.47628 3.86976,-1.47628 5.34609,0 l 3.56406,3.56411 c 1.47633,1.47628 1.47633,3.86983 0,5.34614 l -7.12812,7.12819 c -1.47633,1.47627 -3.86976,1.47627 -5.34609,0 l -0.6749,-0.67476 -2.66536,2.66556 3.91436,3.91454 c 2.46072,2.46046 2.46072,6.44968 0,8.91014 l -3.56405,3.56431 c -2.46047,2.46047 -6.44968,2.46047 -8.91015,0 l -3.91456,-3.91461 -2.62811,2.62806 0.67473,0.67465 c 1.4763,1.47633 1.4763,3.87001 0,5.34634 l -7.128192,7.12812 c -1.47628,1.47632 -3.869835,1.47632 -5.346139,0 L 89.046387,231.763 c -1.476304,-1.47633 -1.476304,-3.87001 0,-5.34609 l 7.128192,-7.12837 c 1.476278,-1.47633 3.869831,-1.47633 5.346141,0 l 1.10729,1.10738 2.62814,-2.62806 -4.99568,-4.99578 c -2.460492,-2.46047 -2.460492,-6.44971 0,-8.9102 l 3.56408,-3.56408 c 2.46049,-2.46049 6.44976,-2.46049 8.91022,0 l 4.99578,4.99565 2.66536,-2.66556 -1.10712,-1.10729 c -1.47633,-1.47628 -1.47633,-3.86984 0,-5.34614 z m -24.69404,34.0087 -1.9842,-1.9844 c -0.492091,-0.49194 -1.289934,-0.49194 -1.782052,0 l -7.128167,7.12837 c -0.492093,0.49194 -0.492093,1.28983 0,1.78203 l 3.564083,3.56406 c 0.492092,0.49194 1.289961,0.49194 1.782055,0 l 7.128161,-7.12812 c 0.49212,-0.49219 0.49212,-1.29009 0,-1.78228 l -1.55163,-1.55143 c -0.005,-0.005 -0.009,-0.009 -0.0142,-0.0141 -0.005,-0.005 -0.009,-0.01 -0.014,-0.0141 z m 28.2581,-32.22665 c -0.49219,-0.49209 -1.28983,-0.49209 -1.78203,0 l -7.12812,7.1282 c -0.49219,0.49209 -0.49219,1.28993 0,1.78205 l 3.56406,3.56408 c 0.4922,0.49209 1.28984,0.49209 1.78203,0 l 7.12812,-7.12819 c 0.49219,-0.49209 0.49219,-1.28994 0,-1.78205 z m -27.93844,20.16173 c -1.4763,-1.47633 -1.4763,-3.86983 0,-5.34611 l 3.56408,-3.56411 c 1.47631,-1.47628 3.86981,-1.47628 5.34614,0 l 10.69217,10.69225 c 1.47633,1.47633 1.47633,3.86975 0,5.34608 l -3.56405,3.56406 c -1.47633,1.47633 -3.86976,1.47633 -5.34609,0 z"
         fill="#47495f"
         id="path28422-8"
         style="stroke-width:2.52019" />
    </g>
    <path
       style="opacity:0.452185;fill:#2f6de0;stroke:#ff2525;stroke-width:0.7;stroke-linejoin:round;stroke-dasharray:none;stroke-opacity:1;marker-start:url(#TriangleStart);marker-end:url(#TriangleStart)"
       d="m 33.858286,15.558418 -5.20952,11.568906"
       id="path28919"
       sodipodi:nodetypes="cc" />
    <path
       style="opacity:0.452185;fill:#2f6de0;stroke:#ff2525;stroke-width:0.7;stroke-linejoin:round;stroke-dasharray:none;stroke-opacity:1;marker-start:url(#TriangleStart-1);marker-end:url(#TriangleStart-1)"
       d="M 61.287443,14.291754 34.402967,27.24157"
       id="path28919-63"
       sodipodi:nodetypes="cc" />
    <path
       style="opacity:0.452185;fill:#2f6de0;stroke:#ff2525;stroke-width:0.7;stroke-linejoin:round;stroke-dasharray:none;stroke-opacity:1;marker-start:url(#TriangleStart-0);marker-end:url(#TriangleStart-0)"
       d="M 16.535368,21.41714 23.0771,28.91098"
       id="path28919-6"
       sodipodi:nodetypes="cc" />
  </g>
</svg>
