<?xml version="1.0" encoding="utf-8" standalone="no"?>
<!DOCTYPE svg PUBLIC "-//W3C//DTD SVG 1.1//EN"
  "http://www.w3.org/Graphics/SVG/1.1/DTD/svg11.dtd">
<svg xmlns:xlink="http://www.w3.org/1999/xlink" width="332.728401pt" height="199.233479pt" viewBox="0 0 332.728401 199.233479" xmlns="http://www.w3.org/2000/svg" version="1.1">
 <metadata>
  <rdf:RDF xmlns:dc="http://purl.org/dc/elements/1.1/" xmlns:cc="http://creativecommons.org/ns#" xmlns:rdf="http://www.w3.org/1999/02/22-rdf-syntax-ns#">
   <cc:Work>
    <dc:type rdf:resource="http://purl.org/dc/dcmitype/StillImage"/>
    <dc:date>2026-06-17T16:08:00.178772</dc:date>
    <dc:format>image/svg+xml</dc:format>
    <dc:creator>
     <cc:Agent>
      <dc:title>Matplotlib v3.10.8, https://matplotlib.org/</dc:title>
     </cc:Agent>
    </dc:creator>
   </cc:Work>
  </rdf:RDF>
 </metadata>
 <defs>
  <style type="text/css">*{stroke-linejoin: round; stroke-linecap: butt}</style>
 </defs>
 <g id="figure_1">
  <g id="patch_1">
   <path d="M 0 199.233479 
L 332.728401 199.233479 
L 332.728401 -0 
L 0 -0 
L 0 199.233479 
z
" style="fill: none"/>
  </g>
  <g id="axes_1">
   <g id="patch_2">
    <path d="M 39.93785 163.100727 
L 325.528401 163.100727 
L 325.528401 10.313325 
L 39.93785 10.313325 
L 39.93785 163.100727 
z
" style="fill: none"/>
   </g>
   <g id="PathCollection_1">
    <defs>
     <path id="me19222bb03" d="M 0 2.236068 
C 0.593012 2.236068 1.161816 2.000462 1.581139 1.581139 
C 2.000462 1.161816 2.236068 0.593012 2.236068 0 
C 2.236068 -0.593012 2.000462 -1.161816 1.581139 -1.581139 
C 1.161816 -2.000462 0.593012 -2.236068 0 -2.236068 
C -0.593012 -2.236068 -1.161816 -2.000462 -1.581139 -1.581139 
C -2.000462 -1.161816 -2.236068 -0.593012 -2.236068 0 
C -2.236068 0.593012 -2.000462 1.161816 -1.581139 1.581139 
C -1.161816 2.000462 -0.593012 2.236068 0 2.236068 
z
" style="stroke: #9400d3"/>
    </defs>
    <g clip-path="url(#pae3bc3f210)">
     <use xlink:href="#me19222bb03" x="75.495566" y="40.576081" style="fill: #9400d3; stroke: #9400d3"/>
     <use xlink:href="#me19222bb03" x="98.071895" y="44.455457" style="fill: #9400d3; stroke: #9400d3"/>
     <use xlink:href="#me19222bb03" x="143.224551" y="52.940468" style="fill: #9400d3; stroke: #9400d3"/>
     <use xlink:href="#me19222bb03" x="171.444961" y="59.221216" style="fill: #9400d3; stroke: #9400d3"/>
     <use xlink:href="#me19222bb03" x="199.665371" y="74.631984" style="fill: #9400d3; stroke: #9400d3"/>
     <use xlink:href="#me19222bb03" x="256.106192" y="98.39564" style="fill: #9400d3; stroke: #9400d3"/>
     <use xlink:href="#me19222bb03" x="312.547012" y="146.600721" style="fill: #9400d3; stroke: #9400d3"/>
    </g>
   </g>
   <g id="PathCollection_2">
    <defs>
     <path id="md0ec240a93" d="M -0 3.162278 
L 1.897367 0 
L 0 -3.162278 
L -1.897367 -0 
z
" style="stroke: #9400d3"/>
    </defs>
    <g clip-path="url(#pae3bc3f210)">
     <use xlink:href="#md0ec240a93" x="75.495566" y="17.760235" style="fill: #9400d3; stroke: #9400d3"/>
     <use xlink:href="#md0ec240a93" x="98.071895" y="19.100975" style="fill: #9400d3; stroke: #9400d3"/>
     <use xlink:href="#md0ec240a93" x="143.224551" y="29.128986" style="fill: #9400d3; stroke: #9400d3"/>
     <use xlink:href="#md0ec240a93" x="171.444961" y="36.469663" style="fill: #9400d3; stroke: #9400d3"/>
     <use xlink:href="#md0ec240a93" x="199.665371" y="55.230492" style="fill: #9400d3; stroke: #9400d3"/>
     <use xlink:href="#md0ec240a93" x="256.106192" y="85.019414" style="fill: #9400d3; stroke: #9400d3"/>
     <use xlink:href="#md0ec240a93" x="312.547012" y="129.99588" style="fill: #9400d3; stroke: #9400d3"/>
    </g>
   </g>
   <g id="PathCollection_3">
    <defs>
     <path id="mda6e543a7c" d="M 0 2.236068 
C 0.593012 2.236068 1.161816 2.000462 1.581139 1.581139 
C 2.000462 1.161816 2.236068 0.593012 2.236068 0 
C 2.236068 -0.593012 2.000462 -1.161816 1.581139 -1.581139 
C 1.161816 -2.000462 0.593012 -2.236068 0 -2.236068 
C -0.593012 -2.236068 -1.161816 -2.000462 -1.581139 -1.581139 
C -2.000462 -1.161816 -2.236068 -0.593012 -2.236068 0 
C -2.236068 0.593012 -2.000462 1.161816 -1.581139 1.581139 
C -1.161816 2.000462 -0.593012 2.236068 0 2.236068 
z
" style="stroke: #4169e1; stroke-opacity: 0.5"/>
    </defs>
    <g clip-path="url(#pae3bc3f210)">
     <use xlink:href="#mda6e543a7c" x="75.495566" y="53.851488" style="fill: #4169e1; fill-opacity: 0.5; stroke: #4169e1; stroke-opacity: 0.5"/>
     <use xlink:href="#mda6e543a7c" x="98.071895" y="55.268824" style="fill: #4169e1; fill-opacity: 0.5; stroke: #4169e1; stroke-opacity: 0.5"/>
     <use xlink:href="#mda6e543a7c" x="143.224551" y="63.728624" style="fill: #4169e1; fill-opacity: 0.5; stroke: #4169e1; stroke-opacity: 0.5"/>
     <use xlink:href="#mda6e543a7c" x="171.444961" y="71.696644" style="fill: #4169e1; fill-opacity: 0.5; stroke: #4169e1; stroke-opacity: 0.5"/>
     <use xlink:href="#mda6e543a7c" x="199.665371" y="87.003987" style="fill: #4169e1; fill-opacity: 0.5; stroke: #4169e1; stroke-opacity: 0.5"/>
     <use xlink:href="#mda6e543a7c" x="256.106192" y="114.146292" style="fill: #4169e1; fill-opacity: 0.5; stroke: #4169e1; stroke-opacity: 0.5"/>
     <use xlink:href="#mda6e543a7c" x="312.547012" y="156.729939" style="fill: #4169e1; fill-opacity: 0.5; stroke: #4169e1; stroke-opacity: 0.5"/>
    </g>
   </g>
   <g id="matplotlib.axis_1">
    <g id="xtick_1">
     <g id="line2d_1">
      <path d="M 75.495566 163.100727 
L 75.495566 10.313325 
" clip-path="url(#pae3bc3f210)" style="fill: none; stroke: #b0b0b0; stroke-opacity: 0.3; stroke-width: 0.8; stroke-linecap: square"/>
     </g>
     <g id="line2d_2">
      <defs>
       <path id="me06fcf926c" d="M 0 0 
L 0 3.5 
" style="stroke: #000000; stroke-width: 0.8"/>
      </defs>
      <g>
       <use xlink:href="#me06fcf926c" x="75.495566" y="163.100727" style="stroke: #000000; stroke-width: 0.8"/>
      </g>
     </g>
     <g id="text_1">
      <!-- 500 -->
      <g transform="translate(68.58403 176.327377) scale(0.09 -0.09)">
       <defs>
        <path id="CMSS17-35" d="M 934 3814 
L 2502 3814 
L 2502 4224 
L 467 4224 
L 467 1830 
L 896 1830 
C 1011 2103 1248 2304 1555 2304 
C 1843 2304 2163 2044 2163 1299 
C 2163 502 1709 268 1376 268 
C 966 268 589 521 422 871 
L 218 508 
C 512 51 992 -128 1376 -128 
C 2118 -128 2701 508 2701 1286 
C 2701 2083 2182 2694 1562 2694 
C 1338 2694 1120 2617 934 2464 
L 934 3814 
z
" transform="scale(0.015625)"/>
        <path id="CMSS17-30" d="M 2758 2073 
C 2758 2439 2752 3120 2490 3647 
C 2227 4153 1805 4288 1504 4288 
C 1069 4288 698 4031 506 3621 
C 301 3191 243 2748 243 2073 
C 243 1611 262 1046 493 551 
C 755 6 1197 -128 1498 -128 
C 1894 -128 2278 83 2496 525 
C 2720 988 2758 1495 2758 2073 
z
M 1498 262 
C 1011 262 864 821 819 1007 
C 742 1328 730 1636 730 2144 
C 730 2542 730 2992 851 3345 
C 998 3756 1254 3897 1498 3897 
C 1971 3897 2125 3422 2176 3255 
C 2272 2915 2272 2516 2272 2144 
C 2272 1546 2272 262 1498 262 
z
" transform="scale(0.015625)"/>
       </defs>
       <use xlink:href="#CMSS17-35" transform="scale(0.996264)"/>
       <use xlink:href="#CMSS17-30" transform="translate(46.843624 0) scale(0.996264)"/>
       <use xlink:href="#CMSS17-30" transform="translate(93.687247 0) scale(0.996264)"/>
      </g>
     </g>
    </g>
    <g id="xtick_2">
     <g id="line2d_3">
      <path d="M 98.071895 163.100727 
L 98.071895 10.313325 
" clip-path="url(#pae3bc3f210)" style="fill: none; stroke: #b0b0b0; stroke-opacity: 0.3; stroke-width: 0.8; stroke-linecap: square"/>
     </g>
     <g id="line2d_4">
      <g>
       <use xlink:href="#me06fcf926c" x="98.071895" y="163.100727" style="stroke: #000000; stroke-width: 0.8"/>
      </g>
     </g>
     <g id="text_2">
      <!-- 600 -->
      <g transform="translate(91.160359 176.327377) scale(0.09 -0.09)">
       <defs>
        <path id="CMSS17-36" d="M 2496 4159 
C 2227 4268 2035 4288 1856 4288 
C 1024 4288 250 3408 250 2023 
C 250 268 986 -128 1510 -128 
C 1798 -128 2086 -39 2362 281 
C 2643 619 2752 900 2752 1392 
C 2752 2183 2362 2886 1779 2886 
C 1357 2886 992 2662 768 2381 
C 832 3290 1254 3897 1862 3897 
C 2029 3897 2246 3871 2496 3760 
L 2496 4159 
z
M 774 1372 
C 774 1423 774 1455 781 1551 
C 781 2049 1069 2496 1536 2496 
C 1837 2496 1990 2336 2106 2138 
C 2240 1889 2246 1653 2246 1392 
C 2246 1143 2246 894 2099 638 
C 1978 441 1818 268 1510 268 
C 902 268 800 1117 774 1372 
z
" transform="scale(0.015625)"/>
       </defs>
       <use xlink:href="#CMSS17-36" transform="scale(0.996264)"/>
       <use xlink:href="#CMSS17-30" transform="translate(46.843624 0) scale(0.996264)"/>
       <use xlink:href="#CMSS17-30" transform="translate(93.687247 0) scale(0.996264)"/>
      </g>
     </g>
    </g>
    <g id="xtick_3">
     <g id="line2d_5">
      <path d="M 143.224551 163.100727 
L 143.224551 10.313325 
" clip-path="url(#pae3bc3f210)" style="fill: none; stroke: #b0b0b0; stroke-opacity: 0.3; stroke-width: 0.8; stroke-linecap: square"/>
     </g>
     <g id="line2d_6">
      <g>
       <use xlink:href="#me06fcf926c" x="143.224551" y="163.100727" style="stroke: #000000; stroke-width: 0.8"/>
      </g>
     </g>
     <g id="text_3">
      <!-- 800 -->
      <g transform="translate(136.313015 176.327377) scale(0.09 -0.09)">
       <defs>
        <path id="CMSS17-38" d="M 1933 2246 
C 2419 2406 2669 2793 2669 3174 
C 2669 3774 2157 4288 1504 4288 
C 826 4288 333 3755 333 3174 
C 333 2799 576 2412 1069 2246 
C 442 2003 250 1516 250 1152 
C 250 448 819 -128 1498 -128 
C 2202 -128 2752 460 2752 1152 
C 2752 1574 2502 2022 1933 2246 
z
M 1504 2438 
C 1075 2438 787 2728 787 3167 
C 787 3613 1075 3897 1504 3897 
C 1901 3897 2214 3639 2214 3167 
C 2214 2703 1907 2438 1504 2438 
z
M 1504 268 
C 1139 268 749 518 749 1158 
C 749 1817 1184 2048 1498 2048 
C 1843 2048 2253 1804 2253 1158 
C 2253 492 1830 268 1504 268 
z
" transform="scale(0.015625)"/>
       </defs>
       <use xlink:href="#CMSS17-38" transform="scale(0.996264)"/>
       <use xlink:href="#CMSS17-30" transform="translate(46.843624 0) scale(0.996264)"/>
       <use xlink:href="#CMSS17-30" transform="translate(93.687247 0) scale(0.996264)"/>
      </g>
     </g>
    </g>
    <g id="xtick_4">
     <g id="line2d_7">
      <path d="M 171.444961 163.100727 
L 171.444961 10.313325 
" clip-path="url(#pae3bc3f210)" style="fill: none; stroke: #b0b0b0; stroke-opacity: 0.3; stroke-width: 0.8; stroke-linecap: square"/>
     </g>
     <g id="line2d_8">
      <g>
       <use xlink:href="#me06fcf926c" x="171.444961" y="163.100727" style="stroke: #000000; stroke-width: 0.8"/>
      </g>
     </g>
     <g id="text_4">
      <!-- 925 -->
      <g transform="translate(164.533425 176.327377) scale(0.09 -0.09)">
       <defs>
        <path id="CMSS17-39" d="M 435 172 
C 614 19 845 -128 1235 -128 
C 2010 -128 2752 738 2752 2136 
C 2752 3987 1952 4288 1523 4288 
C 1094 4288 819 4095 582 3789 
C 301 3438 250 3125 250 2761 
C 250 2327 326 2059 506 1753 
C 749 1356 973 1273 1222 1273 
C 1600 1273 1978 1459 2234 1778 
C 2189 908 1798 268 1235 268 
C 1005 268 819 340 634 516 
L 435 172 
z
M 2214 2774 
C 2221 2729 2221 2646 2221 2621 
C 2221 2085 1914 1664 1466 1664 
C 1171 1664 1018 1817 902 2015 
C 762 2263 755 2506 755 2761 
C 755 3010 755 3284 934 3559 
C 1069 3757 1235 3897 1523 3897 
C 2112 3897 2208 3036 2214 2774 
z
" transform="scale(0.015625)"/>
        <path id="CMSS17-32" d="M 1651 1353 
C 1830 1538 2099 1761 2285 1984 
C 2464 2201 2701 2507 2701 2953 
C 2701 3655 2227 4288 1421 4288 
C 787 4288 422 3891 250 3272 
L 499 2928 
C 640 3508 838 3878 1338 3878 
C 1888 3878 2195 3431 2195 2940 
C 2195 2354 1747 1901 1408 1563 
C 1030 1187 659 805 301 409 
L 301 0 
L 2701 0 
L 2701 435 
L 1613 435 
C 1536 435 1459 428 1382 428 
L 742 428 
L 742 435 
L 1651 1353 
z
" transform="scale(0.015625)"/>
       </defs>
       <use xlink:href="#CMSS17-39" transform="scale(0.996264)"/>
       <use xlink:href="#CMSS17-32" transform="translate(46.843624 0) scale(0.996264)"/>
       <use xlink:href="#CMSS17-35" transform="translate(93.687247 0) scale(0.996264)"/>
      </g>
     </g>
    </g>
    <g id="xtick_5">
     <g id="line2d_9">
      <path d="M 199.665371 163.100727 
L 199.665371 10.313325 
" clip-path="url(#pae3bc3f210)" style="fill: none; stroke: #b0b0b0; stroke-opacity: 0.3; stroke-width: 0.8; stroke-linecap: square"/>
     </g>
     <g id="line2d_10">
      <g>
       <use xlink:href="#me06fcf926c" x="199.665371" y="163.100727" style="stroke: #000000; stroke-width: 0.8"/>
      </g>
     </g>
     <g id="text_5">
      <!-- 1050 -->
      <g transform="translate(190.44999 176.327377) scale(0.09 -0.09)">
       <defs>
        <path id="CMSS17-31" d="M 1818 4288 
L 1696 4288 
C 1350 3949 947 3902 538 3891 
L 538 3520 
C 723 3526 1024 3539 1325 3673 
L 1325 371 
L 570 371 
L 570 0 
L 2573 0 
L 2573 371 
L 1818 371 
L 1818 4288 
z
" transform="scale(0.015625)"/>
       </defs>
       <use xlink:href="#CMSS17-31" transform="scale(0.996264)"/>
       <use xlink:href="#CMSS17-30" transform="translate(46.843624 0) scale(0.996264)"/>
       <use xlink:href="#CMSS17-35" transform="translate(93.687247 0) scale(0.996264)"/>
       <use xlink:href="#CMSS17-30" transform="translate(140.530871 0) scale(0.996264)"/>
      </g>
     </g>
    </g>
    <g id="xtick_6">
     <g id="line2d_11">
      <path d="M 256.106192 163.100727 
L 256.106192 10.313325 
" clip-path="url(#pae3bc3f210)" style="fill: none; stroke: #b0b0b0; stroke-opacity: 0.3; stroke-width: 0.8; stroke-linecap: square"/>
     </g>
     <g id="line2d_12">
      <g>
       <use xlink:href="#me06fcf926c" x="256.106192" y="163.100727" style="stroke: #000000; stroke-width: 0.8"/>
      </g>
     </g>
     <g id="text_6">
      <!-- 1300 -->
      <g transform="translate(246.89081 176.327377) scale(0.09 -0.09)">
       <defs>
        <path id="CMSS17-33" d="M 1005 2060 
L 1440 2060 
C 2042 2060 2214 1532 2214 1164 
C 2214 662 1933 268 1472 268 
C 1114 268 608 449 320 926 
C 275 700 275 687 250 533 
C 550 89 1037 -128 1485 -128 
C 2214 -128 2752 481 2752 1158 
C 2752 1667 2400 2092 1920 2252 
C 2304 2463 2586 2860 2586 3321 
C 2586 3859 2093 4288 1491 4288 
C 941 4288 512 3948 333 3583 
C 378 3519 493 3334 550 3238 
C 691 3615 1056 3897 1485 3897 
C 1843 3897 2080 3660 2080 3321 
C 2080 2969 1856 2585 1478 2496 
C 1453 2496 1056 2457 1005 2451 
L 1005 2060 
z
" transform="scale(0.015625)"/>
       </defs>
       <use xlink:href="#CMSS17-31" transform="scale(0.996264)"/>
       <use xlink:href="#CMSS17-33" transform="translate(46.843624 0) scale(0.996264)"/>
       <use xlink:href="#CMSS17-30" transform="translate(93.687247 0) scale(0.996264)"/>
       <use xlink:href="#CMSS17-30" transform="translate(140.530871 0) scale(0.996264)"/>
      </g>
     </g>
    </g>
    <g id="xtick_7">
     <g id="line2d_13">
      <path d="M 312.547012 163.100727 
L 312.547012 10.313325 
" clip-path="url(#pae3bc3f210)" style="fill: none; stroke: #b0b0b0; stroke-opacity: 0.3; stroke-width: 0.8; stroke-linecap: square"/>
     </g>
     <g id="line2d_14">
      <g>
       <use xlink:href="#me06fcf926c" x="312.547012" y="163.100727" style="stroke: #000000; stroke-width: 0.8"/>
      </g>
     </g>
     <g id="text_7">
      <!-- 1550 -->
      <g transform="translate(303.331631 176.327377) scale(0.09 -0.09)">
       <use xlink:href="#CMSS17-31" transform="scale(0.996264)"/>
       <use xlink:href="#CMSS17-35" transform="translate(46.843624 0) scale(0.996264)"/>
       <use xlink:href="#CMSS17-35" transform="translate(93.687247 0) scale(0.996264)"/>
       <use xlink:href="#CMSS17-30" transform="translate(140.530871 0) scale(0.996264)"/>
      </g>
     </g>
    </g>
    <g id="text_8">
     <!-- Wavelength (nm) -->
     <g transform="translate(146.355594 189.542819) scale(0.1 -0.1)">
      <defs>
       <path id="CMSS17-57" d="M 5581 4416 
L 5094 4416 
L 4557 2436 
C 4474 2118 4397 1800 4320 1482 
C 4205 1012 4122 681 4109 516 
L 4102 516 
C 4090 687 4006 1050 3904 1457 
C 3827 1794 3744 2131 3654 2462 
L 3123 4416 
L 2586 4416 
L 2080 2564 
L 1824 1552 
C 1632 751 1626 636 1613 509 
L 1606 509 
C 1606 547 1581 757 1402 1501 
C 1312 1870 1222 2246 1126 2602 
L 634 4416 
L 83 4416 
L 1299 0 
L 1830 0 
L 2336 1838 
L 2592 2850 
C 2765 3562 2803 3740 2816 3899 
L 2822 3899 
C 2822 3874 2880 3473 3130 2544 
L 3808 0 
L 4365 0 
L 5581 4416 
z
" transform="scale(0.015625)"/>
       <path id="CMSS17-61" d="M 2406 1789 
C 2406 2399 1978 2816 1402 2816 
C 1120 2816 813 2764 461 2559 
L 499 2133 
C 659 2250 934 2438 1395 2438 
C 1722 2438 1920 2185 1920 1782 
L 1920 1536 
C 896 1504 256 1209 256 711 
C 256 452 416 -64 947 -64 
C 1043 -64 1562 -52 1933 224 
L 1933 -13 
L 2406 -13 
L 2406 1789 
z
M 1920 824 
C 1920 711 1920 559 1728 446 
C 1562 339 1350 326 1261 326 
C 941 326 723 503 723 723 
C 723 1165 1722 1209 1920 1216 
L 1920 824 
z
" transform="scale(0.015625)"/>
       <path id="CMSS17-76" d="M 2675 2752 
L 2176 2752 
L 1747 1555 
C 1613 1164 1421 627 1389 352 
L 1382 352 
C 1370 467 1318 633 1286 748 
C 1248 889 1197 1056 1158 1171 
L 595 2752 
L 83 2752 
L 1094 0 
L 1664 0 
L 2675 2752 
z
" transform="scale(0.015625)"/>
       <path id="CMSS17-65" d="M 2502 1375 
C 2502 1587 2490 2001 2285 2347 
C 2061 2713 1696 2816 1421 2816 
C 755 2816 192 2184 192 1363 
C 192 579 774 -64 1510 -64 
C 1798 -64 2150 19 2470 249 
C 2470 275 2458 414 2451 421 
C 2451 433 2432 629 2432 655 
C 2125 408 1773 326 1517 326 
C 1107 326 666 667 646 1375 
L 2502 1375 
z
M 698 1728 
C 781 2086 1062 2425 1421 2425 
C 1517 2425 1965 2412 2080 1728 
L 698 1728 
z
" transform="scale(0.015625)"/>
       <path id="CMSS17-6c" d="M 947 4416 
L 474 4416 
L 474 0 
L 947 0 
L 947 4416 
z
" transform="scale(0.015625)"/>
       <path id="CMSS17-6e" d="M 2618 1878 
C 2618 2283 2522 2816 1798 2816 
C 1389 2816 1120 2604 941 2386 
L 941 2783 
L 474 2783 
L 474 0 
L 960 0 
L 960 1556 
C 960 1962 1114 2425 1549 2425 
C 2112 2425 2131 2045 2131 1826 
L 2131 0 
L 2618 0 
L 2618 1878 
z
" transform="scale(0.015625)"/>
       <path id="CMSS17-67" d="M 2848 2816 
C 2483 2809 2170 2739 1914 2617 
C 1702 2783 1485 2816 1338 2816 
C 781 2816 358 2356 358 1824 
C 358 1481 550 1222 563 1209 
C 448 1049 384 876 384 684 
C 384 460 474 300 544 211 
C 211 6 166 -308 166 -429 
C 166 -896 749 -1280 1498 -1280 
C 2253 -1280 2835 -896 2835 -423 
C 2835 460 1856 467 1587 467 
L 1069 467 
C 973 467 717 467 717 793 
C 717 921 774 1004 781 1011 
C 877 940 1075 832 1338 832 
C 1869 832 2310 1279 2310 1824 
C 2310 2128 2170 2349 2112 2425 
L 2131 2425 
C 2150 2425 2419 2444 2515 2444 
C 2720 2444 2739 2438 2918 2419 
L 2848 2816 
z
M 1338 1184 
C 1120 1184 813 1317 813 1824 
C 813 2375 1165 2463 1331 2463 
C 1549 2463 1856 2330 1856 1824 
C 1856 1272 1504 1184 1338 1184 
z
M 1581 0 
C 1734 0 2381 0 2381 -436 
C 2381 -711 1984 -928 1504 -928 
C 1018 -928 621 -717 621 -429 
C 621 -397 621 0 1062 0 
L 1581 0 
z
" transform="scale(0.015625)"/>
       <path id="CMSS17-74" d="M 1069 2380 
L 1901 2380 
L 1901 2752 
L 1069 2752 
L 1069 3520 
L 614 3520 
L 614 2752 
L 109 2752 
L 109 2380 
L 602 2380 
L 602 751 
C 602 384 685 -64 1107 -64 
C 1427 -64 1722 25 2003 172 
L 1901 551 
C 1747 416 1562 339 1363 339 
C 1082 339 1069 699 1069 860 
L 1069 2380 
z
" transform="scale(0.015625)"/>
       <path id="CMSS17-68" d="M 2618 1878 
C 2618 2283 2522 2816 1798 2816 
C 1395 2816 1133 2617 947 2399 
L 947 4416 
L 474 4416 
L 474 0 
L 960 0 
L 960 1556 
C 960 1962 1114 2425 1549 2425 
C 2112 2425 2131 2045 2131 1826 
L 2131 0 
L 2618 0 
L 2618 1878 
z
" transform="scale(0.015625)"/>
       <path id="CMSS17-28" d="M 1613 4800 
C 1267 4447 474 3627 474 1603 
C 474 -428 1267 -1242 1613 -1600 
L 2003 -1600 
C 1216 -781 960 366 960 1596 
C 960 2820 1203 3973 2003 4800 
L 1613 4800 
z
" transform="scale(0.015625)"/>
       <path id="CMSS17-6d" d="M 4288 1878 
C 4288 2309 4179 2816 3462 2816 
C 2982 2816 2694 2515 2566 2328 
C 2451 2668 2182 2816 1798 2816 
C 1363 2816 1088 2566 941 2386 
L 941 2783 
L 474 2783 
L 474 0 
L 960 0 
L 960 1556 
C 960 1936 1101 2425 1555 2425 
C 2138 2425 2138 2013 2138 1826 
L 2138 0 
L 2624 0 
L 2624 1556 
C 2624 1936 2765 2425 3219 2425 
C 3802 2425 3802 2013 3802 1826 
L 3802 0 
L 4288 0 
L 4288 1878 
z
" transform="scale(0.015625)"/>
       <path id="CMSS17-29" d="M 723 -1600 
C 1069 -1248 1862 -428 1862 1596 
C 1862 3627 1069 4440 723 4800 
L 333 4800 
C 1120 3979 1376 2833 1376 1603 
C 1376 379 1133 -774 333 -1600 
L 723 -1600 
z
" transform="scale(0.015625)"/>
      </defs>
      <use xlink:href="#CMSS17-57" transform="scale(0.996264)"/>
      <use xlink:href="#CMSS17-61" transform="translate(85.639712 0) scale(0.996264)"/>
      <use xlink:href="#CMSS17-76" transform="translate(130.561633 0) scale(0.996264)"/>
      <use xlink:href="#CMSS17-65" transform="translate(173.561775 0) scale(0.996264)"/>
      <use xlink:href="#CMSS17-6c" transform="translate(215.200597 0) scale(0.996264)"/>
      <use xlink:href="#CMSS17-65" transform="translate(237.38132 0) scale(0.996264)"/>
      <use xlink:href="#CMSS17-6e" transform="translate(279.020142 0) scale(0.996264)"/>
      <use xlink:href="#CMSS17-67" transform="translate(327.225085 0) scale(0.996264)"/>
      <use xlink:href="#CMSS17-74" transform="translate(374.068708 0) scale(0.996264)"/>
      <use xlink:href="#CMSS17-68" transform="translate(407.900275 0) scale(0.996264)"/>
      <use xlink:href="#CMSS17-28" transform="translate(487.334331 0) scale(0.996264)"/>
      <use xlink:href="#CMSS17-6e" transform="translate(523.768245 0) scale(0.996264)"/>
      <use xlink:href="#CMSS17-6d" transform="translate(571.973188 0) scale(0.996264)"/>
      <use xlink:href="#CMSS17-29" transform="translate(646.202443 0) scale(0.996264)"/>
     </g>
    </g>
   </g>
   <g id="matplotlib.axis_2">
    <g id="ytick_1">
     <g id="line2d_15">
      <path d="M 39.93785 157.832196 
L 325.528401 157.832196 
" clip-path="url(#pae3bc3f210)" style="fill: none; stroke: #b0b0b0; stroke-opacity: 0.3; stroke-width: 0.8; stroke-linecap: square"/>
     </g>
     <g id="line2d_16">
      <defs>
       <path id="m0406f6501e" d="M 0 0 
L -3.5 0 
" style="stroke: #000000; stroke-width: 0.8"/>
      </defs>
      <g>
       <use xlink:href="#m0406f6501e" x="39.93785" y="157.832196" style="stroke: #000000; stroke-width: 0.8"/>
      </g>
     </g>
     <g id="text_9">
      <!-- $\mathdefault{0.0}$ -->
      <g transform="translate(21.16264 160.945521) scale(0.09 -0.09)">
       <defs>
        <path id="ComputerModernSans-MathitalicRegular10pt-3a" d="M 621 268 
L 621 0 
L 890 0 
L 1158 0 
L 1158 268 
L 1158 537 
L 890 537 
L 621 537 
L 621 268 
z
" transform="scale(0.015625)"/>
       </defs>
       <use xlink:href="#CMSS17-30" transform="scale(0.996264)"/>
       <use xlink:href="#ComputerModernSans-MathitalicRegular10pt-3a" transform="translate(46.843624 0) scale(0.996264)"/>
       <use xlink:href="#CMSS17-30" transform="translate(74.517708 0) scale(0.996264)"/>
      </g>
     </g>
    </g>
    <g id="ytick_2">
     <g id="line2d_17">
      <path d="M 39.93785 136.758071 
L 325.528401 136.758071 
" clip-path="url(#pae3bc3f210)" style="fill: none; stroke: #b0b0b0; stroke-opacity: 0.3; stroke-width: 0.8; stroke-linecap: square"/>
     </g>
     <g id="line2d_18">
      <g>
       <use xlink:href="#m0406f6501e" x="39.93785" y="136.758071" style="stroke: #000000; stroke-width: 0.8"/>
      </g>
     </g>
     <g id="text_10">
      <!-- $\mathdefault{0.2}$ -->
      <g transform="translate(21.16264 139.871396) scale(0.09 -0.09)">
       <use xlink:href="#CMSS17-30" transform="scale(0.996264)"/>
       <use xlink:href="#ComputerModernSans-MathitalicRegular10pt-3a" transform="translate(46.843624 0) scale(0.996264)"/>
       <use xlink:href="#CMSS17-32" transform="translate(74.517708 0) scale(0.996264)"/>
      </g>
     </g>
    </g>
    <g id="ytick_3">
     <g id="line2d_19">
      <path d="M 39.93785 115.683947 
L 325.528401 115.683947 
" clip-path="url(#pae3bc3f210)" style="fill: none; stroke: #b0b0b0; stroke-opacity: 0.3; stroke-width: 0.8; stroke-linecap: square"/>
     </g>
     <g id="line2d_20">
      <g>
       <use xlink:href="#m0406f6501e" x="39.93785" y="115.683947" style="stroke: #000000; stroke-width: 0.8"/>
      </g>
     </g>
     <g id="text_11">
      <!-- $\mathdefault{0.4}$ -->
      <g transform="translate(21.16264 118.797272) scale(0.09 -0.09)">
       <defs>
        <path id="CMSS17-34" d="M 2253 1088 
L 2835 1088 
L 2835 1478 
L 2253 1478 
L 2253 4224 
L 1690 4224 
L 166 1478 
L 166 1088 
L 1747 1088 
L 1747 0 
L 2253 0 
L 2253 1088 
z
M 659 1478 
C 1030 2139 1766 3474 1766 3927 
L 1766 1478 
L 659 1478 
z
" transform="scale(0.015625)"/>
       </defs>
       <use xlink:href="#CMSS17-30" transform="scale(0.996264)"/>
       <use xlink:href="#ComputerModernSans-MathitalicRegular10pt-3a" transform="translate(46.843624 0) scale(0.996264)"/>
       <use xlink:href="#CMSS17-34" transform="translate(74.517708 0) scale(0.996264)"/>
      </g>
     </g>
    </g>
    <g id="ytick_4">
     <g id="line2d_21">
      <path d="M 39.93785 94.609822 
L 325.528401 94.609822 
" clip-path="url(#pae3bc3f210)" style="fill: none; stroke: #b0b0b0; stroke-opacity: 0.3; stroke-width: 0.8; stroke-linecap: square"/>
     </g>
     <g id="line2d_22">
      <g>
       <use xlink:href="#m0406f6501e" x="39.93785" y="94.609822" style="stroke: #000000; stroke-width: 0.8"/>
      </g>
     </g>
     <g id="text_12">
      <!-- $\mathdefault{0.6}$ -->
      <g transform="translate(21.16264 97.723147) scale(0.09 -0.09)">
       <use xlink:href="#CMSS17-30" transform="scale(0.996264)"/>
       <use xlink:href="#ComputerModernSans-MathitalicRegular10pt-3a" transform="translate(46.843624 0) scale(0.996264)"/>
       <use xlink:href="#CMSS17-36" transform="translate(74.517708 0) scale(0.996264)"/>
      </g>
     </g>
    </g>
    <g id="ytick_5">
     <g id="line2d_23">
      <path d="M 39.93785 73.535698 
L 325.528401 73.535698 
" clip-path="url(#pae3bc3f210)" style="fill: none; stroke: #b0b0b0; stroke-opacity: 0.3; stroke-width: 0.8; stroke-linecap: square"/>
     </g>
     <g id="line2d_24">
      <g>
       <use xlink:href="#m0406f6501e" x="39.93785" y="73.535698" style="stroke: #000000; stroke-width: 0.8"/>
      </g>
     </g>
     <g id="text_13">
      <!-- $\mathdefault{0.8}$ -->
      <g transform="translate(21.16264 76.649023) scale(0.09 -0.09)">
       <use xlink:href="#CMSS17-30" transform="scale(0.996264)"/>
       <use xlink:href="#ComputerModernSans-MathitalicRegular10pt-3a" transform="translate(46.843624 0) scale(0.996264)"/>
       <use xlink:href="#CMSS17-38" transform="translate(74.517708 0) scale(0.996264)"/>
      </g>
     </g>
    </g>
    <g id="ytick_6">
     <g id="line2d_25">
      <path d="M 39.93785 52.461574 
L 325.528401 52.461574 
" clip-path="url(#pae3bc3f210)" style="fill: none; stroke: #b0b0b0; stroke-opacity: 0.3; stroke-width: 0.8; stroke-linecap: square"/>
     </g>
     <g id="line2d_26">
      <g>
       <use xlink:href="#m0406f6501e" x="39.93785" y="52.461574" style="stroke: #000000; stroke-width: 0.8"/>
      </g>
     </g>
     <g id="text_14">
      <!-- $\mathdefault{1.0}$ -->
      <g transform="translate(21.16264 55.574899) scale(0.09 -0.09)">
       <use xlink:href="#CMSS17-31" transform="scale(0.996264)"/>
       <use xlink:href="#ComputerModernSans-MathitalicRegular10pt-3a" transform="translate(46.843624 0) scale(0.996264)"/>
       <use xlink:href="#CMSS17-30" transform="translate(74.517708 0) scale(0.996264)"/>
      </g>
     </g>
    </g>
    <g id="ytick_7">
     <g id="line2d_27">
      <path d="M 39.93785 31.387449 
L 325.528401 31.387449 
" clip-path="url(#pae3bc3f210)" style="fill: none; stroke: #b0b0b0; stroke-opacity: 0.3; stroke-width: 0.8; stroke-linecap: square"/>
     </g>
     <g id="line2d_28">
      <g>
       <use xlink:href="#m0406f6501e" x="39.93785" y="31.387449" style="stroke: #000000; stroke-width: 0.8"/>
      </g>
     </g>
     <g id="text_15">
      <!-- $\mathdefault{1.2}$ -->
      <g transform="translate(21.16264 34.500774) scale(0.09 -0.09)">
       <use xlink:href="#CMSS17-31" transform="scale(0.996264)"/>
       <use xlink:href="#ComputerModernSans-MathitalicRegular10pt-3a" transform="translate(46.843624 0) scale(0.996264)"/>
       <use xlink:href="#CMSS17-32" transform="translate(74.517708 0) scale(0.996264)"/>
      </g>
     </g>
    </g>
    <g id="ytick_8">
     <g id="line2d_29">
      <path d="M 39.93785 10.313325 
L 325.528401 10.313325 
" clip-path="url(#pae3bc3f210)" style="fill: none; stroke: #b0b0b0; stroke-opacity: 0.3; stroke-width: 0.8; stroke-linecap: square"/>
     </g>
     <g id="line2d_30">
      <g>
       <use xlink:href="#m0406f6501e" x="39.93785" y="10.313325" style="stroke: #000000; stroke-width: 0.8"/>
      </g>
     </g>
     <g id="text_16">
      <!-- $\mathdefault{1.4}$ -->
      <g transform="translate(21.16264 13.42665) scale(0.09 -0.09)">
       <use xlink:href="#CMSS17-31" transform="scale(0.996264)"/>
       <use xlink:href="#ComputerModernSans-MathitalicRegular10pt-3a" transform="translate(46.843624 0) scale(0.996264)"/>
       <use xlink:href="#CMSS17-34" transform="translate(74.517708 0) scale(0.996264)"/>
      </g>
     </g>
    </g>
    <g id="text_17">
     <!-- Spectral albedo (-) -->
     <g transform="translate(14.67198 126.128698) rotate(-90) scale(0.1 -0.1)">
      <defs>
       <path id="CMSS17-53" d="M 2797 4230 
C 2515 4396 2208 4544 1690 4544 
C 864 4544 333 3934 333 3309 
C 333 3064 403 2787 653 2504 
C 902 2220 1184 2143 1542 2053 
C 1690 2014 1939 1943 1984 1924 
C 2342 1782 2515 1454 2515 1144 
C 2515 738 2202 307 1645 307 
C 1453 307 890 339 358 829 
L 269 320 
C 794 -64 1363 -128 1651 -128 
C 2438 -128 3002 494 3002 1202 
C 3002 1460 2925 1789 2656 2092 
C 2394 2381 2163 2446 1638 2588 
C 1338 2665 1146 2717 986 2916 
C 877 3058 819 3193 819 3367 
C 819 3728 1126 4121 1690 4121 
C 1971 4121 2336 4063 2707 3715 
L 2797 4230 
z
" transform="scale(0.015625)"/>
       <path id="CMSS17-70" d="M 966 275 
C 1178 70 1466 -64 1773 -64 
C 2368 -64 2880 553 2880 1382 
C 2880 2147 2496 2816 1946 2816 
C 1626 2816 1242 2700 954 2470 
L 954 2764 
L 480 2764 
L 480 -1280 
L 966 -1280 
L 966 275 
z
M 966 2088 
C 1018 2166 1235 2412 1587 2412 
C 2035 2412 2394 1946 2394 1382 
C 2394 741 1958 326 1530 326 
C 1402 326 1267 358 1139 468 
C 966 624 966 721 966 812 
L 966 2088 
z
" transform="scale(0.015625)"/>
       <path id="CMSS17-63" d="M 2464 2540 
C 2464 2585 2170 2713 2093 2739 
C 1882 2816 1613 2816 1542 2816 
C 710 2816 211 2092 211 1363 
C 211 595 768 -64 1517 -64 
C 1946 -64 2253 76 2502 243 
L 2464 665 
C 2189 454 1869 339 1523 339 
C 1024 339 698 774 698 1369 
C 698 1830 909 2412 1549 2412 
C 1901 2412 2099 2342 2394 2143 
L 2464 2540 
z
" transform="scale(0.015625)"/>
       <path id="CMSS17-72" d="M 954 1369 
C 954 1974 1395 2379 1958 2392 
L 1958 2816 
C 1549 2809 1165 2604 934 2270 
L 934 2783 
L 480 2783 
L 480 0 
L 954 0 
L 954 1369 
z
" transform="scale(0.015625)"/>
       <path id="CMSS17-62" d="M 954 4416 
L 480 4416 
L 480 -13 
L 966 -13 
L 966 275 
C 1210 38 1504 -64 1766 -64 
C 2381 -64 2880 559 2880 1382 
C 2880 2133 2496 2816 1926 2816 
C 1523 2816 1165 2649 954 2476 
L 954 4416 
z
M 966 2095 
C 1107 2276 1306 2425 1587 2425 
C 1965 2425 2394 2146 2394 1382 
C 2394 566 1882 326 1530 326 
C 1402 326 1267 358 1139 468 
C 966 624 966 721 966 812 
L 966 2095 
z
" transform="scale(0.015625)"/>
       <path id="CMSS17-64" d="M 2611 4416 
L 2138 4416 
L 2138 2495 
C 1939 2662 1613 2816 1254 2816 
C 672 2816 211 2179 211 1375 
C 211 572 666 -64 1235 -64 
C 1677 -64 1971 172 2125 307 
L 2125 -13 
L 2611 -13 
L 2611 4416 
z
M 2125 851 
C 2125 760 2125 663 1926 488 
C 1798 378 1645 326 1498 326 
C 1152 326 698 585 698 1369 
C 698 2185 1210 2425 1562 2425 
C 1798 2425 1990 2308 2125 2114 
L 2125 851 
z
" transform="scale(0.015625)"/>
       <path id="CMSS17-6f" d="M 2829 1356 
C 2829 2175 2221 2816 1504 2816 
C 768 2816 173 2156 173 1356 
C 173 544 787 -64 1498 -64 
C 2227 -64 2829 563 2829 1356 
z
M 1504 339 
C 1050 339 659 710 659 1407 
C 659 2150 1114 2425 1498 2425 
C 1914 2425 2342 2124 2342 1407 
C 2342 684 1926 339 1504 339 
z
" transform="scale(0.015625)"/>
       <path id="CMSS17-2d" d="M 1664 1216 
L 1664 1587 
L 64 1587 
L 64 1216 
L 1664 1216 
z
" transform="scale(0.015625)"/>
      </defs>
      <use xlink:href="#CMSS17-53" transform="scale(0.996264)"/>
      <use xlink:href="#CMSS17-70" transform="translate(52.048516 0) scale(0.996264)"/>
      <use xlink:href="#CMSS17-65" transform="translate(102.855898 0) scale(0.996264)"/>
      <use xlink:href="#CMSS17-63" transform="translate(144.49472 0) scale(0.996264)"/>
      <use xlink:href="#CMSS17-74" transform="translate(186.133542 0) scale(0.996264)"/>
      <use xlink:href="#CMSS17-72" transform="translate(219.965109 0) scale(0.996264)"/>
      <use xlink:href="#CMSS17-61" transform="translate(251.874881 0) scale(0.996264)"/>
      <use xlink:href="#CMSS17-6c" transform="translate(296.796802 0) scale(0.996264)"/>
      <use xlink:href="#CMSS17-61" transform="translate(350.206638 0) scale(0.996264)"/>
      <use xlink:href="#CMSS17-6c" transform="translate(395.128558 0) scale(0.996264)"/>
      <use xlink:href="#CMSS17-62" transform="translate(417.309281 0) scale(0.996264)"/>
      <use xlink:href="#CMSS17-65" transform="translate(468.116663 0) scale(0.996264)"/>
      <use xlink:href="#CMSS17-64" transform="translate(509.755485 0) scale(0.996264)"/>
      <use xlink:href="#CMSS17-6f" transform="translate(557.960429 0) scale(0.996264)"/>
      <use xlink:href="#CMSS17-28" transform="translate(636.033165 0) scale(0.996264)"/>
      <use xlink:href="#CMSS17-2d" transform="translate(672.467079 0) scale(0.996264)"/>
      <use xlink:href="#CMSS17-29" transform="translate(703.696192 0) scale(0.996264)"/>
     </g>
    </g>
   </g>
   <g id="line2d_31">
    <path d="M 39.93785 54.568986 
L 325.528401 54.568986 
" clip-path="url(#pae3bc3f210)" style="fill: none; stroke-dasharray: 5.55,2.4; stroke-dashoffset: 0; stroke: #cd5c5c; stroke-width: 1.5"/>
   </g>
   <g id="line2d_32">
    <path d="M 52.919238 53.565881 
L 61.949769 53.520761 
L 74.592513 53.819759 
L 83.848808 54.25432 
L 91.976286 54.819327 
L 101.006817 55.604413 
L 111.391928 56.950122 
L 115.68143 57.403053 
L 118.39059 57.754162 
L 126.066541 59.196075 
L 128.324174 59.458814 
L 131.033334 60.058842 
L 134.419783 61.057686 
L 141.418445 63.251287 
L 143.676077 63.762232 
L 147.514053 63.94024 
L 152.255082 64.110491 
L 157.899164 66.700049 
L 159.931034 67.994516 
L 161.962903 69.313618 
L 163.994773 70.21 
L 174.605647 72.524337 
L 177.089043 73.266875 
L 187.248391 82.505643 
L 189.506024 85.037432 
L 190.860603 86.557415 
L 193.118236 87.966327 
L 195.601632 88.264543 
L 197.633502 88.036494 
L 200.342661 86.535265 
L 202.600294 85.102421 
L 204.632163 84.142712 
L 206.889796 83.593476 
L 210.276245 83.197213 
L 211.179299 83.127931 
L 215.694564 83.882511 
L 219.53254 86.115048 
L 220.20983 86.373278 
L 222.241699 86.484358 
L 226.531202 93.601398 
L 229.014598 97.374714 
L 232.175284 101.473657 
L 233.529863 103.009752 
L 236.01326 107.808642 
L 238.270892 110.615196 
L 240.754288 112.491135 
L 243.237685 113.816462 
L 245.043791 114.487604 
L 249.559056 114.984553 
L 253.171269 114.38308 
L 255.428902 114.190726 
L 257.686535 113.940596 
L 259.041114 113.852819 
L 262.2018 113.751218 
L 263.55638 113.751447 
L 265.588249 113.965375 
L 268.071646 114.495221 
L 270.103515 114.814976 
L 272.361148 115.56491 
L 274.618781 116.808738 
L 276.876414 118.664553 
L 278.68252 120.555071 
L 281.617442 133.870173 
L 283.423549 141.078011 
L 284.778128 145.696242 
L 285.681182 148.156108 
L 287.035761 150.589839 
L 287.938814 151.918949 
L 289.519157 153.616834 
L 291.0995 154.985857 
L 292.45408 155.853649 
L 294.260186 156.573807 
L 295.614766 156.912797 
L 297.420872 157.183579 
L 300.807321 157.292173 
L 308.483273 157.024298 
L 312.321249 156.748991 
L 312.321249 156.748991 
" clip-path="url(#pae3bc3f210)" style="fill: none; stroke: #4169e1; stroke-opacity: 0.5; stroke-width: 1.5; stroke-linecap: square"/>
   </g>
   <g id="patch_3">
    <path d="M 39.93785 163.100727 
L 39.93785 10.313325 
" style="fill: none; stroke: #000000; stroke-width: 0.8; stroke-linejoin: miter; stroke-linecap: square"/>
   </g>
   <g id="patch_4">
    <path d="M 325.528401 163.100727 
L 325.528401 10.313325 
" style="fill: none; stroke: #000000; stroke-width: 0.8; stroke-linejoin: miter; stroke-linecap: square"/>
   </g>
   <g id="patch_5">
    <path d="M 39.93785 163.100727 
L 325.528401 163.100727 
" style="fill: none; stroke: #000000; stroke-width: 0.8; stroke-linejoin: miter; stroke-linecap: square"/>
   </g>
   <g id="patch_6">
    <path d="M 39.93785 10.313325 
L 325.528401 10.313325 
" style="fill: none; stroke: #000000; stroke-width: 0.8; stroke-linejoin: miter; stroke-linecap: square"/>
   </g>
   <g id="legend_1">
    <g id="patch_7">
     <path d="M 46.23785 158.600727 
L 225.151513 158.600727 
Q 226.951513 158.600727 226.951513 156.800727 
L 226.951513 116.792719 
Q 226.951513 114.992719 225.151513 114.992719 
L 46.23785 114.992719 
Q 44.43785 114.992719 44.43785 116.792719 
L 44.43785 156.800727 
Q 44.43785 158.600727 46.23785 158.600727 
z
" style="fill: #ffffff; opacity: 0.8; stroke: #cccccc; stroke-linejoin: miter"/>
    </g>
    <g id="PathCollection_4">
     <g>
      <use xlink:href="#me19222bb03" x="57.03785" y="122.955001" style="fill: #9400d3; stroke: #9400d3"/>
     </g>
    </g>
    <g id="text_18">
     <!-- Measured on Jan 18, 2025 (average) -->
     <g transform="translate(73.23785 125.317501) scale(0.09 -0.09)">
      <defs>
       <path id="CMSS17-4d" d="M 3194 2373 
L 2886 1476 
C 2835 1311 2662 795 2624 592 
L 2618 592 
C 2598 719 2560 853 2458 1177 
C 2400 1368 2336 1565 2272 1743 
L 1325 4416 
L 576 4416 
L 576 0 
L 1075 0 
L 1075 3899 
L 1082 3899 
C 1082 3893 1139 3613 1530 2500 
L 2374 102 
L 2848 102 
L 3610 2233 
C 3661 2379 3821 2843 3891 3066 
C 3955 3257 4115 3728 4154 3912 
L 4160 3912 
L 4160 0 
L 4666 0 
L 4666 4416 
L 3923 4416 
L 3194 2373 
z
" transform="scale(0.015625)"/>
       <path id="CMSS17-73" d="M 2061 2623 
C 1683 2803 1389 2816 1197 2816 
C 742 2816 198 2655 198 2009 
C 198 1363 902 1222 1094 1183 
C 1389 1126 1715 1062 1715 742 
C 1715 339 1254 339 1171 339 
C 915 339 563 409 243 639 
L 166 211 
C 531 0 883 -64 1178 -64 
C 1965 -64 2163 416 2163 780 
C 2163 1094 1984 1305 1862 1401 
C 1651 1567 1574 1587 1050 1695 
C 960 1708 646 1779 646 2067 
C 646 2431 1050 2431 1139 2431 
C 1555 2431 1811 2303 1984 2207 
L 2061 2623 
z
" transform="scale(0.015625)"/>
       <path id="CMSS17-75" d="M 2618 2752 
L 2131 2752 
L 2131 976 
C 2131 500 1786 307 1421 307 
C 998 307 960 448 960 712 
L 960 2752 
L 474 2752 
L 474 680 
C 474 179 646 -64 1088 -64 
C 1306 -64 1798 -13 2144 307 
L 2144 -13 
L 2618 -13 
L 2618 2752 
z
" transform="scale(0.015625)"/>
       <path id="CMSS17-4a" d="M 2336 4416 
L 1811 4416 
L 1811 947 
C 1811 640 1683 262 1107 262 
C 781 262 506 416 333 608 
L 250 140 
C 646 -71 1011 -128 1280 -128 
C 1901 -128 2336 230 2336 928 
L 2336 4416 
z
" transform="scale(0.015625)"/>
       <path id="CMSS17-2c" d="M 1088 6 
L 1088 512 
L 576 512 
L 576 0 
L 736 0 
L 570 -775 
L 826 -775 
L 1088 6 
z
" transform="scale(0.015625)"/>
      </defs>
      <use xlink:href="#CMSS17-4d" transform="scale(0.996264)"/>
      <use xlink:href="#CMSS17-65" transform="translate(81.67603 0) scale(0.996264)"/>
      <use xlink:href="#CMSS17-61" transform="translate(123.314852 0) scale(0.996264)"/>
      <use xlink:href="#CMSS17-73" transform="translate(168.236773 0) scale(0.996264)"/>
      <use xlink:href="#CMSS17-75" transform="translate(204.150315 0) scale(0.996264)"/>
      <use xlink:href="#CMSS17-72" transform="translate(252.355258 0) scale(0.996264)"/>
      <use xlink:href="#CMSS17-65" transform="translate(284.26503 0) scale(0.996264)"/>
      <use xlink:href="#CMSS17-64" transform="translate(325.903852 0) scale(0.996264)"/>
      <use xlink:href="#CMSS17-6f" transform="translate(405.337908 0) scale(0.996264)"/>
      <use xlink:href="#CMSS17-6e" transform="translate(452.181532 0) scale(0.996264)"/>
      <use xlink:href="#CMSS17-4a" transform="translate(531.615588 0) scale(0.996264)"/>
      <use xlink:href="#CMSS17-61" transform="translate(575.736663 0) scale(0.996264)"/>
      <use xlink:href="#CMSS17-6e" transform="translate(620.658584 0) scale(0.996264)"/>
      <use xlink:href="#CMSS17-31" transform="translate(700.09264 0) scale(0.996264)"/>
      <use xlink:href="#CMSS17-38" transform="translate(746.936263 0) scale(0.996264)"/>
      <use xlink:href="#CMSS17-2c" transform="translate(793.779887 0) scale(0.996264)"/>
      <use xlink:href="#CMSS17-32" transform="translate(851.033204 0) scale(0.996264)"/>
      <use xlink:href="#CMSS17-30" transform="translate(897.876828 0) scale(0.996264)"/>
      <use xlink:href="#CMSS17-32" transform="translate(944.720451 0) scale(0.996264)"/>
      <use xlink:href="#CMSS17-35" transform="translate(991.564075 0) scale(0.996264)"/>
      <use xlink:href="#CMSS17-28" transform="translate(1069.636811 0) scale(0.996264)"/>
      <use xlink:href="#CMSS17-61" transform="translate(1106.070725 0) scale(0.996264)"/>
      <use xlink:href="#CMSS17-76" transform="translate(1150.992646 0) scale(0.996264)"/>
      <use xlink:href="#CMSS17-65" transform="translate(1193.992788 0) scale(0.996264)"/>
      <use xlink:href="#CMSS17-72" transform="translate(1235.63161 0) scale(0.996264)"/>
      <use xlink:href="#CMSS17-61" transform="translate(1267.541382 0) scale(0.996264)"/>
      <use xlink:href="#CMSS17-67" transform="translate(1312.463303 0) scale(0.996264)"/>
      <use xlink:href="#CMSS17-65" transform="translate(1359.306926 0) scale(0.996264)"/>
      <use xlink:href="#CMSS17-29" transform="translate(1400.945748 0) scale(0.996264)"/>
     </g>
    </g>
    <g id="PathCollection_5">
     <g>
      <use xlink:href="#md0ec240a93" x="57.03785" y="136.421377" style="fill: #9400d3; stroke: #9400d3"/>
     </g>
    </g>
    <g id="text_19">
     <!-- Measured on Jan 18, 2025 (maximum) -->
     <g transform="translate(73.23785 138.783877) scale(0.09 -0.09)">
      <defs>
       <path id="CMSS17-78" d="M 1587 1420 
L 2656 2752 
L 2099 2752 
L 1363 1785 
L 602 2752 
L 32 2752 
L 1139 1420 
L 0 0 
L 563 0 
L 1363 1126 
L 2195 0 
L 2758 0 
L 1587 1420 
z
" transform="scale(0.015625)"/>
       <path id="CMSS17-69" d="M 979 4224 
L 442 4224 
L 442 3686 
L 979 3686 
L 979 4224 
z
M 947 2752 
L 474 2752 
L 474 0 
L 947 0 
L 947 2752 
z
" transform="scale(0.015625)"/>
      </defs>
      <use xlink:href="#CMSS17-4d" transform="scale(0.996264)"/>
      <use xlink:href="#CMSS17-65" transform="translate(81.67603 0) scale(0.996264)"/>
      <use xlink:href="#CMSS17-61" transform="translate(123.314852 0) scale(0.996264)"/>
      <use xlink:href="#CMSS17-73" transform="translate(168.236773 0) scale(0.996264)"/>
      <use xlink:href="#CMSS17-75" transform="translate(204.150315 0) scale(0.996264)"/>
      <use xlink:href="#CMSS17-72" transform="translate(252.355258 0) scale(0.996264)"/>
      <use xlink:href="#CMSS17-65" transform="translate(284.26503 0) scale(0.996264)"/>
      <use xlink:href="#CMSS17-64" transform="translate(325.903852 0) scale(0.996264)"/>
      <use xlink:href="#CMSS17-6f" transform="translate(405.337908 0) scale(0.996264)"/>
      <use xlink:href="#CMSS17-6e" transform="translate(452.181532 0) scale(0.996264)"/>
      <use xlink:href="#CMSS17-4a" transform="translate(531.615588 0) scale(0.996264)"/>
      <use xlink:href="#CMSS17-61" transform="translate(575.736663 0) scale(0.996264)"/>
      <use xlink:href="#CMSS17-6e" transform="translate(620.658584 0) scale(0.996264)"/>
      <use xlink:href="#CMSS17-31" transform="translate(700.09264 0) scale(0.996264)"/>
      <use xlink:href="#CMSS17-38" transform="translate(746.936263 0) scale(0.996264)"/>
      <use xlink:href="#CMSS17-2c" transform="translate(793.779887 0) scale(0.996264)"/>
      <use xlink:href="#CMSS17-32" transform="translate(851.033204 0) scale(0.996264)"/>
      <use xlink:href="#CMSS17-30" transform="translate(897.876828 0) scale(0.996264)"/>
      <use xlink:href="#CMSS17-32" transform="translate(944.720451 0) scale(0.996264)"/>
      <use xlink:href="#CMSS17-35" transform="translate(991.564075 0) scale(0.996264)"/>
      <use xlink:href="#CMSS17-28" transform="translate(1069.636811 0) scale(0.996264)"/>
      <use xlink:href="#CMSS17-6d" transform="translate(1106.070725 0) scale(0.996264)"/>
      <use xlink:href="#CMSS17-61" transform="translate(1180.29998 0) scale(0.996264)"/>
      <use xlink:href="#CMSS17-78" transform="translate(1225.2219 0) scale(0.996264)"/>
      <use xlink:href="#CMSS17-69" transform="translate(1268.222042 0) scale(0.996264)"/>
      <use xlink:href="#CMSS17-6d" transform="translate(1290.402765 0) scale(0.996264)"/>
      <use xlink:href="#CMSS17-75" transform="translate(1364.63202 0) scale(0.996264)"/>
      <use xlink:href="#CMSS17-6d" transform="translate(1412.836963 0) scale(0.996264)"/>
      <use xlink:href="#CMSS17-29" transform="translate(1487.066217 0) scale(0.996264)"/>
     </g>
    </g>
    <g id="PathCollection_6">
     <g>
      <use xlink:href="#mda6e543a7c" x="57.03785" y="150.894765" style="fill: #4169e1; fill-opacity: 0.5; stroke: #4169e1; stroke-opacity: 0.5"/>
     </g>
    </g>
    <g id="text_20">
     <!-- Modeled, SSA $= 19.2$ m$^2$ kg$^{-1}$ -->
     <g transform="translate(73.23785 153.257265) scale(0.09 -0.09)">
      <defs>
       <path id="CMSS17-41" d="M 2272 4416 
L 1722 4416 
L 166 0 
L 653 0 
L 1101 1280 
L 2816 1280 
L 3270 0 
L 3827 0 
L 2272 4416 
z
M 2694 1638 
L 1222 1638 
C 1530 2530 1914 3638 1958 3924 
L 1965 3924 
C 2010 3663 2138 3281 2246 2956 
L 2694 1638 
z
" transform="scale(0.015625)"/>
       <path id="CMSS17-3d" d="M 4147 2048 
C 4243 2048 4339 2048 4339 2156 
C 4339 2272 4230 2272 4122 2272 
L 550 2272 
C 442 2272 333 2272 333 2156 
C 333 2048 429 2048 525 2048 
L 4147 2048 
z
M 4122 927 
C 4230 927 4339 927 4339 1043 
C 4339 1152 4243 1152 4147 1152 
L 525 1152 
C 429 1152 333 1152 333 1043 
C 333 927 442 927 550 927 
L 4122 927 
z
" transform="scale(0.015625)"/>
       <path id="CMSS17-6b" d="M 1696 1686 
L 2688 2735 
L 2074 2735 
L 954 1552 
L 954 4416 
L 480 4416 
L 480 0 
L 947 0 
L 947 891 
L 1376 1342 
L 2278 0 
L 2822 0 
L 1696 1686 
z
" transform="scale(0.015625)"/>
       <path id="ComputerModernSans-Regular10pt-0" d="M 602 1715 
C 582 1702 563 1683 557 1670 
C 538 1644 538 1638 538 1600 
C 538 1561 538 1555 557 1529 
C 563 1516 582 1497 602 1484 
L 627 1472 
L 2483 1472 
L 4346 1472 
L 4371 1484 
C 4390 1497 4410 1516 4422 1529 
C 4435 1555 4442 1561 4442 1600 
C 4442 1638 4435 1644 4422 1670 
C 4410 1683 4390 1702 4371 1715 
L 4346 1728 
L 2483 1728 
L 627 1728 
L 602 1715 
z
" transform="scale(0.015625)"/>
      </defs>
      <use xlink:href="#CMSS17-4d" transform="scale(0.996264)"/>
      <use xlink:href="#CMSS17-6f" transform="translate(81.67603 0) scale(0.996264)"/>
      <use xlink:href="#CMSS17-64" transform="translate(131.122092 0) scale(0.996264)"/>
      <use xlink:href="#CMSS17-65" transform="translate(179.327035 0) scale(0.996264)"/>
      <use xlink:href="#CMSS17-6c" transform="translate(220.965857 0) scale(0.996264)"/>
      <use xlink:href="#CMSS17-65" transform="translate(243.14658 0) scale(0.996264)"/>
      <use xlink:href="#CMSS17-64" transform="translate(284.785403 0) scale(0.996264)"/>
      <use xlink:href="#CMSS17-2c" transform="translate(332.990346 0) scale(0.996264)"/>
      <use xlink:href="#CMSS17-53" transform="translate(390.243663 0) scale(0.996264)"/>
      <use xlink:href="#CMSS17-53" transform="translate(442.292179 0) scale(0.996264)"/>
      <use xlink:href="#CMSS17-41" transform="translate(494.340696 0) scale(0.996264)"/>
      <use xlink:href="#CMSS17-3d" transform="translate(587.787663 0) scale(0.996264)"/>
      <use xlink:href="#CMSS17-31" transform="translate(688.329607 0) scale(0.996264)"/>
      <use xlink:href="#CMSS17-39" transform="translate(735.17323 0) scale(0.996264)"/>
      <use xlink:href="#ComputerModernSans-MathitalicRegular10pt-3a" transform="translate(782.016854 0) scale(0.996264)"/>
      <use xlink:href="#CMSS17-32" transform="translate(809.690939 0) scale(0.996264)"/>
      <use xlink:href="#CMSS17-6d" transform="translate(887.763675 0) scale(0.996264)"/>
      <use xlink:href="#CMSS17-32" transform="translate(961.992929 36.153639) scale(0.697382)"/>
      <use xlink:href="#CMSS17-6b" transform="translate(1026.510556 0) scale(0.996264)"/>
      <use xlink:href="#CMSS17-67" transform="translate(1072.113045 0) scale(0.996264)"/>
      <use xlink:href="#ComputerModernSans-Regular10pt-0" transform="translate(1118.956668 36.153639) scale(0.697382)"/>
      <use xlink:href="#CMSS17-31" transform="translate(1173.197661 36.153639) scale(0.697382)"/>
     </g>
    </g>
   </g>
  </g>
 </g>
 <defs>
  <clipPath id="pae3bc3f210">
   <rect x="39.93785" y="10.313325" width="285.590551" height="152.787402"/>
  </clipPath>
 </defs>
</svg>
