<?xml version="1.0" encoding="UTF-8" standalone="no"?>
<!-- Created with Inkscape (http://www.inkscape.org/) -->

<svg
   width="150mm"
   height="97mm"
   viewBox="0 0 150 97"
   version="1.1"
   id="svg25628"
   inkscape:version="1.2.2 (b0a8486541, 2022-12-01)"
   sodipodi:docname="dune.svg"
   inkscape:export-filename="dune.png"
   inkscape:export-xdpi="600"
   inkscape:export-ydpi="600"
   xmlns:inkscape="http://www.inkscape.org/namespaces/inkscape"
   xmlns:sodipodi="http://sodipodi.sourceforge.net/DTD/sodipodi-0.dtd"
   xmlns:xlink="http://www.w3.org/1999/xlink"
   xmlns="http://www.w3.org/2000/svg"
   xmlns:svg="http://www.w3.org/2000/svg">
  <sodipodi:namedview
     id="namedview25630"
     pagecolor="#ffffff"
     bordercolor="#000000"
     borderopacity="0.25"
     inkscape:showpageshadow="2"
     inkscape:pageopacity="0.0"
     inkscape:pagecheckerboard="0"
     inkscape:deskcolor="#d1d1d1"
     inkscape:document-units="mm"
     showgrid="false"
     inkscape:zoom="1.2475733"
     inkscape:cx="325.83256"
     inkscape:cy="203.99603"
     inkscape:window-width="1861"
     inkscape:window-height="1011"
     inkscape:window-x="59"
     inkscape:window-y="32"
     inkscape:window-maximized="1"
     inkscape:current-layer="g35036"
     showguides="true" />
  <defs
     id="defs25625">
    <linearGradient
       inkscape:collect="always"
       id="linearGradient14074">
      <stop
         style="stop-color:#a4cfd5;stop-opacity:1;"
         offset="0"
         id="stop14070" />
      <stop
         style="stop-color:#fafafa;stop-opacity:0;"
         offset="1"
         id="stop14072" />
    </linearGradient>
    <marker
       style="overflow:visible"
       id="Arrow2-3"
       refX="0"
       refY="0"
       orient="auto-start-reverse"
       inkscape:stockid="Arrow2"
       markerWidth="7.6999998"
       markerHeight="5.5999999"
       viewBox="0 0 7.7 5.6"
       inkscape:isstock="true"
       inkscape:collect="always"
       preserveAspectRatio="xMidYMid">
      <path
         transform="scale(0.7)"
         d="M -2,-4 9,0 -2,4 c 2,-2.33 2,-5.66 0,-8 z"
         style="fill:context-stroke;fill-rule:evenodd;stroke:none"
         id="arrow2L-6" />
    </marker>
    <marker
       style="overflow:visible"
       id="marker1214-7"
       refX="0"
       refY="0"
       orient="auto-start-reverse"
       inkscape:stockid="Arrow2"
       markerWidth="7.6999998"
       markerHeight="5.5999999"
       viewBox="0 0 7.7 5.6"
       inkscape:isstock="true"
       inkscape:collect="always"
       preserveAspectRatio="xMidYMid">
      <path
         transform="scale(0.7)"
         d="M -2,-4 9,0 -2,4 c 2,-2.33 2,-5.66 0,-8 z"
         style="fill:context-stroke;fill-rule:evenodd;stroke:none"
         id="path1212-5" />
    </marker>
    <marker
       style="overflow:visible"
       id="Arrow2-5"
       refX="0"
       refY="0"
       orient="auto-start-reverse"
       inkscape:stockid="Arrow2"
       markerWidth="7.6999998"
       markerHeight="5.5999999"
       viewBox="0 0 7.7 5.6"
       inkscape:isstock="true"
       inkscape:collect="always"
       preserveAspectRatio="xMidYMid">
      <path
         transform="scale(0.7)"
         d="M -2,-4 9,0 -2,4 c 2,-2.33 2,-5.66 0,-8 z"
         style="fill:context-stroke;fill-rule:evenodd;stroke:none"
         id="arrow2L-62" />
    </marker>
    <marker
       style="overflow:visible"
       id="marker1214-9"
       refX="0"
       refY="0"
       orient="auto-start-reverse"
       inkscape:stockid="Arrow2"
       markerWidth="7.6999998"
       markerHeight="5.5999999"
       viewBox="0 0 7.7 5.6"
       inkscape:isstock="true"
       inkscape:collect="always"
       preserveAspectRatio="xMidYMid">
      <path
         transform="scale(0.7)"
         d="M -2,-4 9,0 -2,4 c 2,-2.33 2,-5.66 0,-8 z"
         style="fill:context-stroke;fill-rule:evenodd;stroke:none"
         id="path1212-1" />
    </marker>
    <radialGradient
       inkscape:collect="always"
       xlink:href="#linearGradient14074"
       id="radialGradient14076"
       cx="299.33859"
       cy="164.41525"
       fx="299.33859"
       fy="164.41525"
       r="250.92319"
       gradientTransform="matrix(0.28355715,-0.00552507,-0.01230241,0.08330285,-3.4635301,24.523726)"
       gradientUnits="userSpaceOnUse" />
  </defs>
  <g
     inkscape:label="Layer 1"
     inkscape:groupmode="layer"
     id="layer1">
    <g
       id="g27211">
      <g
         id="g35036">
        <path
           style="fill:#8a8a8a;fill-opacity:0;stroke:#9400d3;stroke-width:0.805906;stroke-linejoin:round;stroke-dasharray:none;stroke-opacity:0.913725"
           d="m 56.327993,31.228301 c 7.142465,2.405736 13.595648,3.954095 23.774402,2.708604"
           id="path32349"
           inkscape:export-filename="dunenost.png"
           inkscape:export-xdpi="600"
           inkscape:export-ydpi="600" />
        <path
           style="fill:#8a8a8a;fill-opacity:0;stroke:#ff8c00;stroke-width:0.805906;stroke-linejoin:round;stroke-dasharray:none;stroke-opacity:1"
           d="m 30.650176,20.16714 c 9.958803,2.204237 16.760914,8.057756 25.677817,11.061161"
           id="path31601" />
        <path
           style="fill:#8a8a8a;fill-opacity:0;stroke:#9400d3;stroke-width:0.805906;stroke-linejoin:round;stroke-dasharray:none;stroke-opacity:0.913725"
           d="m 12.404377,19.929978 c 7.339901,-1.180849 13.195732,-0.880596 18.245799,0.237162"
           id="path25803" />
        <path
           style="fill:#ffffff;fill-opacity:0;stroke:#9400d3;stroke-width:0.805906;stroke-linejoin:round;stroke-dasharray:none;stroke-opacity:0.913725"
           d="m 127.32843,46.828741 c 5.08466,1.445297 10.99623,2.088669 18.51944,1.137802"
           id="path32357" />
        <path
           style="fill:#ffffff;fill-opacity:0;stroke:#ff8c00;stroke-width:0.805906;stroke-linejoin:round;stroke-dasharray:none;stroke-opacity:1"
           d="m 106.86648,37.345254 c 6.76924,3.135025 12.63622,7.259051 20.46195,9.483487"
           id="path32353" />
        <path
           style="fill:#ffffff;fill-opacity:0;stroke:#9400d3;stroke-width:0.805906;stroke-linejoin:round;stroke-dasharray:none;stroke-opacity:0.913725"
           d="m 80.102395,33.936905 c 11.928676,-1.982286 19.820982,0.192804 26.764085,3.408349"
           id="path25803-5" />
        <path
           id="path25803-5-1-5-3"
           style="fill:#ffffff;fill-opacity:0;stroke:#666666;stroke-width:0.402953;stroke-linejoin:round;stroke-dasharray:1.20886, 0.402953;stroke-dashoffset:0;stroke-opacity:0.913725;marker-mid:url(#Arrow2-3);marker-end:url(#marker1214-7)"
           d="m 80.23416,22.415197 c 11.92867,-1.982286 19.82097,0.192804 26.76407,3.408349 m 0,0 c 6.76924,3.135025 12.63622,7.25905 20.46195,9.483487 m 0,0 c 5.08466,1.445297 10.99623,2.08867 18.51944,1.137803 M 12.536141,8.4082691 c 7.339899,-1.180848 13.195728,-0.8805956 18.2458,0.2371633 m 0,0 C 40.74074,10.849668 47.542849,16.703188 56.45976,19.706592 m 0,0 c 7.14246,2.405738 13.595641,3.954097 23.7744,2.708605" />
        <path
           id="path25803-5-1-5-2"
           style="fill:#ffffff;fill-opacity:0;stroke:#666666;stroke-width:0.402953;stroke-linejoin:round;stroke-dasharray:1.20886, 0.402953;stroke-dashoffset:0;stroke-opacity:0.913725;marker-mid:url(#Arrow2-5);marker-end:url(#marker1214-9)"
           d="m 80.234161,19.997146 c 11.92867,-1.982286 19.820969,0.192805 26.764069,3.40835 m 0,0 c 6.76924,3.135025 12.63622,7.25905 20.46195,9.483487 m 0,0 c 5.08466,1.445297 10.99623,2.088669 18.51944,1.137802 M 12.53614,5.9902186 c 7.3399,-1.1808479 13.195729,-0.8805956 18.2458,0.2371633 m 0,0 c 9.9588,2.204236 16.760909,8.0577551 25.67782,11.0611601 m 0,0 c 7.14246,2.405737 13.595641,3.954096 23.774401,2.708604" />
        <path
           style="fill:#66a3ae;fill-opacity:0;stroke:none;stroke-width:0.722559;stroke-linejoin:round;stroke-dasharray:none;stroke-opacity:1"
           d="M 13.003269,36.785073 V 20.223076 l 2.431509,-0.290733 c 1.665718,-0.199168 3.514825,-0.2906 5.871206,-0.290309 8.072579,0.001 13.338311,1.482246 22.773164,6.406097 7.498025,3.913062 9.655826,4.861166 14.351836,6.305969 8.211691,2.526459 14.282468,2.981431 23.404243,1.754019 7.106967,-0.956303 12.937349,-0.548987 18.821003,1.314855 3.06748,0.971724 5.85275,2.189134 10.09649,4.413044 1.88379,0.987195 4.41058,2.308183 5.61508,2.935532 9.04251,4.70967 16.67899,6.481607 25.58445,5.936506 1.66189,-0.101724 3.08457,-0.14416 3.16152,-0.0943 0.077,0.04986 0.17647,1.045284 0.22115,2.212059 l 0.0813,2.121415 -31.03852,0.09976 c -17.071193,0.05486 -46.864099,0.144838 -66.206461,0.199924 l -35.16793,0.100156 z"
           id="path39777" />
        <path
           style="fill:url(#radialGradient14076);fill-opacity:1;stroke:none;stroke-width:0;stroke-linejoin:round;stroke-dasharray:none;stroke-opacity:0.913725"
           d="M 0.31552185,36.688185 2.7071915,19.689357 15.434778,19.932343 c 1.692979,0.03232 3.514825,-0.2906 5.871206,-0.290309 8.072579,0.001 13.338311,1.482246 22.773164,6.406097 7.498025,3.913062 9.655826,4.861166 14.351836,6.305969 8.211691,2.526459 14.282468,2.981431 23.404243,1.754019 7.106967,-0.956303 12.937349,-0.548987 18.821003,1.314855 3.06748,0.971724 5.85275,2.189134 10.09649,4.413044 1.88379,0.987195 4.41058,2.308183 5.61508,2.935532 9.04251,4.70967 18.9788,6.661758 27.88425,6.116658 1.6619,-0.101725 3.90639,-0.123983 5.87556,-0.09447 0.10866,0.0016 -0.14421,1.02301 -0.23994,2.18849 l -1.68139,20.468558 -32.88703,-0.141477 C 101.03491,71.247853 53.969488,60.020294 48.858277,72.136445 38.134667,97.556833 13.038463,52.889756 1.3158202,52.923141 Z"
           id="path39779"
           sodipodi:nodetypes="ccssssssssssscsscc" />
        <path
           style="fill:#e5ff19;fill-opacity:0;stroke:#da3300;stroke-width:0.805906;stroke-linejoin:round;stroke-dasharray:none;stroke-opacity:1"
           d="m 70.999157,34.042966 -0.04788,-3.34192 h 3.123799"
           id="path2412-7" />
        <rect
           style="fill:#e5ff19;fill-opacity:0;stroke:#da3300;stroke-width:0.805906;stroke-linejoin:round;stroke-dasharray:none;stroke-opacity:1"
           id="rect2513-0"
           width="2.054637"
           height="1.442457"
           x="74.075073"
           y="30.002554"
           ry="0.31059113" />
        <path
           style="fill:#e5ff19;fill-opacity:0;stroke:#da3300;stroke-width:0.805906;stroke-linejoin:round;stroke-dasharray:none;stroke-opacity:1"
           d="m 43.849316,25.167629 -0.04788,-3.34192 h 3.123799"
           id="path2412-7-3" />
        <rect
           style="fill:#e5ff19;fill-opacity:0;stroke:#da3300;stroke-width:0.805906;stroke-linejoin:round;stroke-dasharray:none;stroke-opacity:1"
           id="rect2513-0-6"
           width="2.054637"
           height="1.442457"
           x="46.925236"
           y="21.127218"
           ry="0.31059113" />
      </g>
    </g>
  </g>
</svg>
