<?xml version="1.0" encoding="utf-8" standalone="no"?>
<!DOCTYPE svg PUBLIC "-//W3C//DTD SVG 1.1//EN"
  "http://www.w3.org/Graphics/SVG/1.1/DTD/svg11.dtd">
<svg xmlns:xlink="http://www.w3.org/1999/xlink" width="217.411654pt" height="261.706471pt" viewBox="0 0 217.411654 261.706471" xmlns="http://www.w3.org/2000/svg" version="1.1">
 <metadata>
  <rdf:RDF xmlns:dc="http://purl.org/dc/elements/1.1/" xmlns:cc="http://creativecommons.org/ns#" xmlns:rdf="http://www.w3.org/1999/02/22-rdf-syntax-ns#">
   <cc:Work>
    <dc:type rdf:resource="http://purl.org/dc/dcmitype/StillImage"/>
    <dc:date>2026-06-17T10:49:04.053927</dc:date>
    <dc:format>image/svg+xml</dc:format>
    <dc:creator>
     <cc:Agent>
      <dc:title>Matplotlib v3.10.8, https://matplotlib.org/</dc:title>
     </cc:Agent>
    </dc:creator>
   </cc:Work>
  </rdf:RDF>
 </metadata>
 <defs>
  <style type="text/css">*{stroke-linejoin: round; stroke-linecap: butt}</style>
 </defs>
 <g id="figure_1">
  <g id="patch_1">
   <path d="M 0 261.706471 
L 217.411654 261.706471 
L 217.411654 0 
L 0 0 
L 0 261.706471 
z
" style="fill: none"/>
  </g>
  <g id="axes_1">
   <g id="patch_2">
    <path d="M 39.913511 163.477236 
L 210.211654 163.477236 
L 210.211654 7.2 
L 39.913511 7.2 
L 39.913511 163.477236 
z
" style="fill: none"/>
   </g>
   <g id="matplotlib.axis_1">
    <g id="xtick_1">
     <g id="line2d_1">
      <path d="M 174.194684 163.477236 
L 174.194684 7.2 
" clip-path="url(#pc97169452b)" style="fill: none; stroke: #b0b0b0; stroke-opacity: 0.3; stroke-width: 0.8; stroke-linecap: square"/>
     </g>
     <g id="line2d_2">
      <defs>
       <path id="me5926b5ec7" d="M 0 0 
L 0 3.5 
" style="stroke: #000000; stroke-width: 0.8"/>
      </defs>
      <g>
       <use xlink:href="#me5926b5ec7" x="174.194684" y="163.477236" style="stroke: #000000; stroke-width: 0.8"/>
      </g>
     </g>
     <g id="text_1">
      <!-- $\mathdefault{67.5}$ -->
      <g transform="translate(165.338977 177.395735) scale(0.1 -0.1)">
       <defs>
        <path id="CMSS17-36" d="M 2496 4159 
C 2227 4268 2035 4288 1856 4288 
C 1024 4288 250 3408 250 2023 
C 250 268 986 -128 1510 -128 
C 1798 -128 2086 -39 2362 281 
C 2643 619 2752 900 2752 1392 
C 2752 2183 2362 2886 1779 2886 
C 1357 2886 992 2662 768 2381 
C 832 3290 1254 3897 1862 3897 
C 2029 3897 2246 3871 2496 3760 
L 2496 4159 
z
M 774 1372 
C 774 1423 774 1455 781 1551 
C 781 2049 1069 2496 1536 2496 
C 1837 2496 1990 2336 2106 2138 
C 2240 1889 2246 1653 2246 1392 
C 2246 1143 2246 894 2099 638 
C 1978 441 1818 268 1510 268 
C 902 268 800 1117 774 1372 
z
" transform="scale(0.015625)"/>
        <path id="CMSS17-37" d="M 1389 3788 
C 1466 3788 1542 3795 1619 3795 
L 2355 3795 
C 1440 2715 915 1350 915 -64 
L 1427 -64 
C 1427 1305 1875 2695 2752 3807 
L 2752 4224 
L 250 4224 
L 250 3788 
L 1389 3788 
z
" transform="scale(0.015625)"/>
        <path id="ComputerModernSans-MathitalicRegular10pt-3a" d="M 621 268 
L 621 0 
L 890 0 
L 1158 0 
L 1158 268 
L 1158 537 
L 890 537 
L 621 537 
L 621 268 
z
" transform="scale(0.015625)"/>
        <path id="CMSS17-35" d="M 934 3814 
L 2502 3814 
L 2502 4224 
L 467 4224 
L 467 1830 
L 896 1830 
C 1011 2103 1248 2304 1555 2304 
C 1843 2304 2163 2044 2163 1299 
C 2163 502 1709 268 1376 268 
C 966 268 589 521 422 871 
L 218 508 
C 512 51 992 -128 1376 -128 
C 2118 -128 2701 508 2701 1286 
C 2701 2083 2182 2694 1562 2694 
C 1338 2694 1120 2617 934 2464 
L 934 3814 
z
" transform="scale(0.015625)"/>
       </defs>
       <use xlink:href="#CMSS17-36" transform="scale(0.996264)"/>
       <use xlink:href="#CMSS17-37" transform="translate(46.843624 0) scale(0.996264)"/>
       <use xlink:href="#ComputerModernSans-MathitalicRegular10pt-3a" transform="translate(93.687247 0) scale(0.996264)"/>
       <use xlink:href="#CMSS17-35" transform="translate(121.361332 0) scale(0.996264)"/>
      </g>
     </g>
    </g>
    <g id="xtick_2">
     <g id="line2d_3">
      <path d="M 131.644837 163.477236 
L 131.644837 7.2 
" clip-path="url(#pc97169452b)" style="fill: none; stroke: #b0b0b0; stroke-opacity: 0.3; stroke-width: 0.8; stroke-linecap: square"/>
     </g>
     <g id="line2d_4">
      <g>
       <use xlink:href="#me5926b5ec7" x="131.644837" y="163.477236" style="stroke: #000000; stroke-width: 0.8"/>
      </g>
     </g>
     <g id="text_2">
      <!-- $\mathdefault{70.0}$ -->
      <g transform="translate(122.78913 177.395735) scale(0.1 -0.1)">
       <defs>
        <path id="CMSS17-30" d="M 2758 2073 
C 2758 2439 2752 3120 2490 3647 
C 2227 4153 1805 4288 1504 4288 
C 1069 4288 698 4031 506 3621 
C 301 3191 243 2748 243 2073 
C 243 1611 262 1046 493 551 
C 755 6 1197 -128 1498 -128 
C 1894 -128 2278 83 2496 525 
C 2720 988 2758 1495 2758 2073 
z
M 1498 262 
C 1011 262 864 821 819 1007 
C 742 1328 730 1636 730 2144 
C 730 2542 730 2992 851 3345 
C 998 3756 1254 3897 1498 3897 
C 1971 3897 2125 3422 2176 3255 
C 2272 2915 2272 2516 2272 2144 
C 2272 1546 2272 262 1498 262 
z
" transform="scale(0.015625)"/>
       </defs>
       <use xlink:href="#CMSS17-37" transform="scale(0.996264)"/>
       <use xlink:href="#CMSS17-30" transform="translate(46.843624 0) scale(0.996264)"/>
       <use xlink:href="#ComputerModernSans-MathitalicRegular10pt-3a" transform="translate(93.687247 0) scale(0.996264)"/>
       <use xlink:href="#CMSS17-30" transform="translate(121.361332 0) scale(0.996264)"/>
      </g>
     </g>
    </g>
    <g id="xtick_3">
     <g id="line2d_5">
      <path d="M 89.094989 163.477236 
L 89.094989 7.2 
" clip-path="url(#pc97169452b)" style="fill: none; stroke: #b0b0b0; stroke-opacity: 0.3; stroke-width: 0.8; stroke-linecap: square"/>
     </g>
     <g id="line2d_6">
      <g>
       <use xlink:href="#me5926b5ec7" x="89.094989" y="163.477236" style="stroke: #000000; stroke-width: 0.8"/>
      </g>
     </g>
     <g id="text_3">
      <!-- $\mathdefault{72.5}$ -->
      <g transform="translate(80.239282 177.395735) scale(0.1 -0.1)">
       <defs>
        <path id="CMSS17-32" d="M 1651 1353 
C 1830 1538 2099 1761 2285 1984 
C 2464 2201 2701 2507 2701 2953 
C 2701 3655 2227 4288 1421 4288 
C 787 4288 422 3891 250 3272 
L 499 2928 
C 640 3508 838 3878 1338 3878 
C 1888 3878 2195 3431 2195 2940 
C 2195 2354 1747 1901 1408 1563 
C 1030 1187 659 805 301 409 
L 301 0 
L 2701 0 
L 2701 435 
L 1613 435 
C 1536 435 1459 428 1382 428 
L 742 428 
L 742 435 
L 1651 1353 
z
" transform="scale(0.015625)"/>
       </defs>
       <use xlink:href="#CMSS17-37" transform="scale(0.996264)"/>
       <use xlink:href="#CMSS17-32" transform="translate(46.843624 0) scale(0.996264)"/>
       <use xlink:href="#ComputerModernSans-MathitalicRegular10pt-3a" transform="translate(93.687247 0) scale(0.996264)"/>
       <use xlink:href="#CMSS17-35" transform="translate(121.361332 0) scale(0.996264)"/>
      </g>
     </g>
    </g>
    <g id="xtick_4">
     <g id="line2d_7">
      <path d="M 46.545142 163.477236 
L 46.545142 7.2 
" clip-path="url(#pc97169452b)" style="fill: none; stroke: #b0b0b0; stroke-opacity: 0.3; stroke-width: 0.8; stroke-linecap: square"/>
     </g>
     <g id="line2d_8">
      <g>
       <use xlink:href="#me5926b5ec7" x="46.545142" y="163.477236" style="stroke: #000000; stroke-width: 0.8"/>
      </g>
     </g>
     <g id="text_4">
      <!-- $\mathdefault{75.0}$ -->
      <g transform="translate(37.689435 177.395735) scale(0.1 -0.1)">
       <use xlink:href="#CMSS17-37" transform="scale(0.996264)"/>
       <use xlink:href="#CMSS17-35" transform="translate(46.843624 0) scale(0.996264)"/>
       <use xlink:href="#ComputerModernSans-MathitalicRegular10pt-3a" transform="translate(93.687247 0) scale(0.996264)"/>
       <use xlink:href="#CMSS17-30" transform="translate(121.361332 0) scale(0.996264)"/>
      </g>
     </g>
    </g>
    <g id="text_5">
     <!-- SZA (°) -->
     <g transform="translate(107.122047 191.552091) scale(0.11 -0.11)">
      <defs>
       <path id="CMSS17-53" d="M 2797 4230 
C 2515 4396 2208 4544 1690 4544 
C 864 4544 333 3934 333 3309 
C 333 3064 403 2787 653 2504 
C 902 2220 1184 2143 1542 2053 
C 1690 2014 1939 1943 1984 1924 
C 2342 1782 2515 1454 2515 1144 
C 2515 738 2202 307 1645 307 
C 1453 307 890 339 358 829 
L 269 320 
C 794 -64 1363 -128 1651 -128 
C 2438 -128 3002 494 3002 1202 
C 3002 1460 2925 1789 2656 2092 
C 2394 2381 2163 2446 1638 2588 
C 1338 2665 1146 2717 986 2916 
C 877 3058 819 3193 819 3367 
C 819 3728 1126 4121 1690 4121 
C 1971 4121 2336 4063 2707 3715 
L 2797 4230 
z
" transform="scale(0.015625)"/>
       <path id="CMSS17-5a" d="M 3341 4153 
L 3341 4416 
L 416 4416 
L 416 4012 
L 1613 4012 
C 1690 4012 1766 4019 1843 4019 
L 2662 4019 
L 333 275 
L 333 0 
L 3373 0 
L 3373 422 
L 2803 422 
C 2272 422 1734 409 1203 409 
L 1011 409 
L 3341 4153 
z
" transform="scale(0.015625)"/>
       <path id="CMSS17-41" d="M 2272 4416 
L 1722 4416 
L 166 0 
L 653 0 
L 1101 1280 
L 2816 1280 
L 3270 0 
L 3827 0 
L 2272 4416 
z
M 2694 1638 
L 1222 1638 
C 1530 2530 1914 3638 1958 3924 
L 1965 3924 
C 2010 3663 2138 3281 2246 2956 
L 2694 1638 
z
" transform="scale(0.015625)"/>
       <path id="CMSS17-28" d="M 1613 4800 
C 1267 4447 474 3627 474 1603 
C 474 -428 1267 -1242 1613 -1600 
L 2003 -1600 
C 1216 -781 960 366 960 1596 
C 960 2820 1203 3973 2003 4800 
L 1613 4800 
z
" transform="scale(0.015625)"/>
       <path id="SFSS3583-b0" d="M 890 4288 
C 544 4243 326 3953 326 3647 
C 326 3323 576 3008 960 3008 
L 1018 3008 
C 1357 3052 1587 3342 1587 3647 
C 1587 3979 1312 4288 947 4288 
L 890 4288 
z
M 525 3609 
L 525 3647 
C 525 3875 723 4076 947 4083 
C 1178 4083 1338 3901 1382 3686 
L 1382 3647 
C 1382 3420 1184 3219 960 3212 
C 730 3212 570 3394 525 3609 
z
" transform="scale(0.015625)"/>
       <path id="CMSS17-29" d="M 723 -1600 
C 1069 -1248 1862 -428 1862 1596 
C 1862 3627 1069 4440 723 4800 
L 333 4800 
C 1120 3979 1376 2833 1376 1603 
C 1376 379 1133 -774 333 -1600 
L 723 -1600 
z
" transform="scale(0.015625)"/>
      </defs>
      <use xlink:href="#CMSS17-53" transform="scale(0.996264)"/>
      <use xlink:href="#CMSS17-5a" transform="translate(52.048516 0) scale(0.996264)"/>
      <use xlink:href="#CMSS17-41" transform="translate(109.301849 0) scale(0.996264)"/>
      <use xlink:href="#CMSS17-28" transform="translate(202.748817 0) scale(0.996264)"/>
      <use xlink:href="#SFSS3583-b0" transform="translate(239.182731 0) scale(0.356961)"/>
      <use xlink:href="#CMSS17-29" transform="translate(249.845778 0) scale(0.996264)"/>
     </g>
    </g>
   </g>
   <g id="matplotlib.axis_2">
    <g id="ytick_1">
     <g id="line2d_9">
      <path d="M 39.913511 163.477236 
L 210.211654 163.477236 
" clip-path="url(#pc97169452b)" style="fill: none; stroke: #b0b0b0; stroke-opacity: 0.3; stroke-width: 0.8; stroke-linecap: square"/>
     </g>
     <g id="line2d_10">
      <defs>
       <path id="mbdd02b9f29" d="M 0 0 
L -3.5 0 
" style="stroke: #000000; stroke-width: 0.8"/>
      </defs>
      <g>
       <use xlink:href="#mbdd02b9f29" x="39.913511" y="163.477236" style="stroke: #000000; stroke-width: 0.8"/>
      </g>
     </g>
     <g id="text_6">
      <!-- $\mathdefault{12}$ -->
      <g transform="translate(22.950841 166.936486) scale(0.1 -0.1)">
       <defs>
        <path id="CMSS17-31" d="M 1818 4288 
L 1696 4288 
C 1350 3949 947 3902 538 3891 
L 538 3520 
C 723 3526 1024 3539 1325 3673 
L 1325 371 
L 570 371 
L 570 0 
L 2573 0 
L 2573 371 
L 1818 371 
L 1818 4288 
z
" transform="scale(0.015625)"/>
       </defs>
       <use xlink:href="#CMSS17-31" transform="scale(0.996264)"/>
       <use xlink:href="#CMSS17-32" transform="translate(46.843624 0) scale(0.996264)"/>
      </g>
     </g>
    </g>
    <g id="ytick_2">
     <g id="line2d_11">
      <path d="M 39.913511 139.434585 
L 210.211654 139.434585 
" clip-path="url(#pc97169452b)" style="fill: none; stroke: #b0b0b0; stroke-opacity: 0.3; stroke-width: 0.8; stroke-linecap: square"/>
     </g>
     <g id="line2d_12">
      <g>
       <use xlink:href="#mbdd02b9f29" x="39.913511" y="139.434585" style="stroke: #000000; stroke-width: 0.8"/>
      </g>
     </g>
     <g id="text_7">
      <!-- $\mathdefault{14}$ -->
      <g transform="translate(22.950841 142.893834) scale(0.1 -0.1)">
       <defs>
        <path id="CMSS17-34" d="M 2253 1088 
L 2835 1088 
L 2835 1478 
L 2253 1478 
L 2253 4224 
L 1690 4224 
L 166 1478 
L 166 1088 
L 1747 1088 
L 1747 0 
L 2253 0 
L 2253 1088 
z
M 659 1478 
C 1030 2139 1766 3474 1766 3927 
L 1766 1478 
L 659 1478 
z
" transform="scale(0.015625)"/>
       </defs>
       <use xlink:href="#CMSS17-31" transform="scale(0.996264)"/>
       <use xlink:href="#CMSS17-34" transform="translate(46.843624 0) scale(0.996264)"/>
      </g>
     </g>
    </g>
    <g id="ytick_3">
     <g id="line2d_13">
      <path d="M 39.913511 115.391933 
L 210.211654 115.391933 
" clip-path="url(#pc97169452b)" style="fill: none; stroke: #b0b0b0; stroke-opacity: 0.3; stroke-width: 0.8; stroke-linecap: square"/>
     </g>
     <g id="line2d_14">
      <g>
       <use xlink:href="#mbdd02b9f29" x="39.913511" y="115.391933" style="stroke: #000000; stroke-width: 0.8"/>
      </g>
     </g>
     <g id="text_8">
      <!-- $\mathdefault{16}$ -->
      <g transform="translate(22.950841 118.851182) scale(0.1 -0.1)">
       <use xlink:href="#CMSS17-31" transform="scale(0.996264)"/>
       <use xlink:href="#CMSS17-36" transform="translate(46.843624 0) scale(0.996264)"/>
      </g>
     </g>
    </g>
    <g id="ytick_4">
     <g id="line2d_15">
      <path d="M 39.913511 91.349281 
L 210.211654 91.349281 
" clip-path="url(#pc97169452b)" style="fill: none; stroke: #b0b0b0; stroke-opacity: 0.3; stroke-width: 0.8; stroke-linecap: square"/>
     </g>
     <g id="line2d_16">
      <g>
       <use xlink:href="#mbdd02b9f29" x="39.913511" y="91.349281" style="stroke: #000000; stroke-width: 0.8"/>
      </g>
     </g>
     <g id="text_9">
      <!-- $\mathdefault{18}$ -->
      <g transform="translate(22.950841 94.80853) scale(0.1 -0.1)">
       <defs>
        <path id="CMSS17-38" d="M 1933 2246 
C 2419 2406 2669 2793 2669 3174 
C 2669 3774 2157 4288 1504 4288 
C 826 4288 333 3755 333 3174 
C 333 2799 576 2412 1069 2246 
C 442 2003 250 1516 250 1152 
C 250 448 819 -128 1498 -128 
C 2202 -128 2752 460 2752 1152 
C 2752 1574 2502 2022 1933 2246 
z
M 1504 2438 
C 1075 2438 787 2728 787 3167 
C 787 3613 1075 3897 1504 3897 
C 1901 3897 2214 3639 2214 3167 
C 2214 2703 1907 2438 1504 2438 
z
M 1504 268 
C 1139 268 749 518 749 1158 
C 749 1817 1184 2048 1498 2048 
C 1843 2048 2253 1804 2253 1158 
C 2253 492 1830 268 1504 268 
z
" transform="scale(0.015625)"/>
       </defs>
       <use xlink:href="#CMSS17-31" transform="scale(0.996264)"/>
       <use xlink:href="#CMSS17-38" transform="translate(46.843624 0) scale(0.996264)"/>
      </g>
     </g>
    </g>
    <g id="ytick_5">
     <g id="line2d_17">
      <path d="M 39.913511 67.306629 
L 210.211654 67.306629 
" clip-path="url(#pc97169452b)" style="fill: none; stroke: #b0b0b0; stroke-opacity: 0.3; stroke-width: 0.8; stroke-linecap: square"/>
     </g>
     <g id="line2d_18">
      <g>
       <use xlink:href="#mbdd02b9f29" x="39.913511" y="67.306629" style="stroke: #000000; stroke-width: 0.8"/>
      </g>
     </g>
     <g id="text_10">
      <!-- $\mathdefault{20}$ -->
      <g transform="translate(22.950841 70.765879) scale(0.1 -0.1)">
       <use xlink:href="#CMSS17-32" transform="scale(0.996264)"/>
       <use xlink:href="#CMSS17-30" transform="translate(46.843624 0) scale(0.996264)"/>
      </g>
     </g>
    </g>
    <g id="ytick_6">
     <g id="line2d_19">
      <path d="M 39.913511 43.263978 
L 210.211654 43.263978 
" clip-path="url(#pc97169452b)" style="fill: none; stroke: #b0b0b0; stroke-opacity: 0.3; stroke-width: 0.8; stroke-linecap: square"/>
     </g>
     <g id="line2d_20">
      <g>
       <use xlink:href="#mbdd02b9f29" x="39.913511" y="43.263978" style="stroke: #000000; stroke-width: 0.8"/>
      </g>
     </g>
     <g id="text_11">
      <!-- $\mathdefault{22}$ -->
      <g transform="translate(22.950841 46.723227) scale(0.1 -0.1)">
       <use xlink:href="#CMSS17-32" transform="scale(0.996264)"/>
       <use xlink:href="#CMSS17-32" transform="translate(46.843624 0) scale(0.996264)"/>
      </g>
     </g>
    </g>
    <g id="ytick_7">
     <g id="line2d_21">
      <path d="M 39.913511 19.221326 
L 210.211654 19.221326 
" clip-path="url(#pc97169452b)" style="fill: none; stroke: #b0b0b0; stroke-opacity: 0.3; stroke-width: 0.8; stroke-linecap: square"/>
     </g>
     <g id="line2d_22">
      <g>
       <use xlink:href="#mbdd02b9f29" x="39.913511" y="19.221326" style="stroke: #000000; stroke-width: 0.8"/>
      </g>
     </g>
     <g id="text_12">
      <!-- $\mathdefault{24}$ -->
      <g transform="translate(22.950841 22.680575) scale(0.1 -0.1)">
       <use xlink:href="#CMSS17-32" transform="scale(0.996264)"/>
       <use xlink:href="#CMSS17-34" transform="translate(46.843624 0) scale(0.996264)"/>
      </g>
     </g>
    </g>
    <g id="text_13">
     <!-- SSA (m$^2$ kg$^{-1}$) -->
     <g transform="translate(16.211115 120.642782) rotate(-90) scale(0.11 -0.11)">
      <defs>
       <path id="CMSS17-6d" d="M 4288 1878 
C 4288 2309 4179 2816 3462 2816 
C 2982 2816 2694 2515 2566 2328 
C 2451 2668 2182 2816 1798 2816 
C 1363 2816 1088 2566 941 2386 
L 941 2783 
L 474 2783 
L 474 0 
L 960 0 
L 960 1556 
C 960 1936 1101 2425 1555 2425 
C 2138 2425 2138 2013 2138 1826 
L 2138 0 
L 2624 0 
L 2624 1556 
C 2624 1936 2765 2425 3219 2425 
C 3802 2425 3802 2013 3802 1826 
L 3802 0 
L 4288 0 
L 4288 1878 
z
" transform="scale(0.015625)"/>
       <path id="CMSS17-6b" d="M 1696 1686 
L 2688 2735 
L 2074 2735 
L 954 1552 
L 954 4416 
L 480 4416 
L 480 0 
L 947 0 
L 947 891 
L 1376 1342 
L 2278 0 
L 2822 0 
L 1696 1686 
z
" transform="scale(0.015625)"/>
       <path id="CMSS17-67" d="M 2848 2816 
C 2483 2809 2170 2739 1914 2617 
C 1702 2783 1485 2816 1338 2816 
C 781 2816 358 2356 358 1824 
C 358 1481 550 1222 563 1209 
C 448 1049 384 876 384 684 
C 384 460 474 300 544 211 
C 211 6 166 -308 166 -429 
C 166 -896 749 -1280 1498 -1280 
C 2253 -1280 2835 -896 2835 -423 
C 2835 460 1856 467 1587 467 
L 1069 467 
C 973 467 717 467 717 793 
C 717 921 774 1004 781 1011 
C 877 940 1075 832 1338 832 
C 1869 832 2310 1279 2310 1824 
C 2310 2128 2170 2349 2112 2425 
L 2131 2425 
C 2150 2425 2419 2444 2515 2444 
C 2720 2444 2739 2438 2918 2419 
L 2848 2816 
z
M 1338 1184 
C 1120 1184 813 1317 813 1824 
C 813 2375 1165 2463 1331 2463 
C 1549 2463 1856 2330 1856 1824 
C 1856 1272 1504 1184 1338 1184 
z
M 1581 0 
C 1734 0 2381 0 2381 -436 
C 2381 -711 1984 -928 1504 -928 
C 1018 -928 621 -717 621 -429 
C 621 -397 621 0 1062 0 
L 1581 0 
z
" transform="scale(0.015625)"/>
       <path id="ComputerModernSans-Regular10pt-0" d="M 602 1715 
C 582 1702 563 1683 557 1670 
C 538 1644 538 1638 538 1600 
C 538 1561 538 1555 557 1529 
C 563 1516 582 1497 602 1484 
L 627 1472 
L 2483 1472 
L 4346 1472 
L 4371 1484 
C 4390 1497 4410 1516 4422 1529 
C 4435 1555 4442 1561 4442 1600 
C 4442 1638 4435 1644 4422 1670 
C 4410 1683 4390 1702 4371 1715 
L 4346 1728 
L 2483 1728 
L 627 1728 
L 602 1715 
z
" transform="scale(0.015625)"/>
      </defs>
      <use xlink:href="#CMSS17-53" transform="scale(0.996264)"/>
      <use xlink:href="#CMSS17-53" transform="translate(52.048516 0) scale(0.996264)"/>
      <use xlink:href="#CMSS17-41" transform="translate(104.097032 0) scale(0.996264)"/>
      <use xlink:href="#CMSS17-28" transform="translate(197.544 0) scale(0.996264)"/>
      <use xlink:href="#CMSS17-6d" transform="translate(233.977914 0) scale(0.996264)"/>
      <use xlink:href="#CMSS17-32" transform="translate(308.207169 36.153639) scale(0.697382)"/>
      <use xlink:href="#CMSS17-6b" transform="translate(372.724795 0) scale(0.996264)"/>
      <use xlink:href="#CMSS17-67" transform="translate(418.327284 0) scale(0.996264)"/>
      <use xlink:href="#ComputerModernSans-Regular10pt-0" transform="translate(465.170908 36.153639) scale(0.697382)"/>
      <use xlink:href="#CMSS17-31" transform="translate(519.411901 36.153639) scale(0.697382)"/>
      <use xlink:href="#CMSS17-29" transform="translate(552.700414 0) scale(0.996264)"/>
     </g>
    </g>
   </g>
   <g id="line2d_23">
    <path d="M 65.609858 110.571553 
L 102.107571 90.833015 
L 127.637479 98.176303 
L 169.849712 75.256203 
L 196.709952 33.981114 
" clip-path="url(#pc97169452b)" style="fill: none; stroke: #35193e; stroke-width: 0.9; stroke-linecap: square"/>
    <defs>
     <path id="ma5612d0ff6" d="M 0 1.25 
C 0.331504 1.25 0.649475 1.118292 0.883883 0.883883 
C 1.118292 0.649475 1.25 0.331504 1.25 0 
C 1.25 -0.331504 1.118292 -0.649475 0.883883 -0.883883 
C 0.649475 -1.118292 0.331504 -1.25 0 -1.25 
C -0.331504 -1.25 -0.649475 -1.118292 -0.883883 -0.883883 
C -1.118292 -0.649475 -1.25 -0.331504 -1.25 0 
C -1.25 0.331504 -1.118292 0.649475 -0.883883 0.883883 
C -0.649475 1.118292 -0.331504 1.25 0 1.25 
z
" style="stroke: #35193e"/>
    </defs>
    <g clip-path="url(#pc97169452b)">
     <use xlink:href="#ma5612d0ff6" x="65.609858" y="110.571553" style="fill: #35193e; stroke: #35193e"/>
     <use xlink:href="#ma5612d0ff6" x="102.107571" y="90.833015" style="fill: #35193e; stroke: #35193e"/>
     <use xlink:href="#ma5612d0ff6" x="127.637479" y="98.176303" style="fill: #35193e; stroke: #35193e"/>
     <use xlink:href="#ma5612d0ff6" x="169.849712" y="75.256203" style="fill: #35193e; stroke: #35193e"/>
     <use xlink:href="#ma5612d0ff6" x="196.709952" y="33.981114" style="fill: #35193e; stroke: #35193e"/>
    </g>
   </g>
   <g id="line2d_24">
    <path d="M 49.117766 105.263889 
L 83.008185 105.154014 
L 107.438118 75.936181 
L 148.83631 89.615011 
L 175.808353 80.715266 
" clip-path="url(#pc97169452b)" style="fill: none; stroke: #701f57; stroke-width: 0.9; stroke-linecap: square"/>
    <defs>
     <path id="m3d78ce3d07" d="M 0 1.25 
C 0.331504 1.25 0.649475 1.118292 0.883883 0.883883 
C 1.118292 0.649475 1.25 0.331504 1.25 0 
C 1.25 -0.331504 1.118292 -0.649475 0.883883 -0.883883 
C 0.649475 -1.118292 0.331504 -1.25 0 -1.25 
C -0.331504 -1.25 -0.649475 -1.118292 -0.883883 -0.883883 
C -1.118292 -0.649475 -1.25 -0.331504 -1.25 0 
C -1.25 0.331504 -1.118292 0.649475 -0.883883 0.883883 
C -0.649475 1.118292 -0.331504 1.25 0 1.25 
z
" style="stroke: #701f57"/>
    </defs>
    <g clip-path="url(#pc97169452b)">
     <use xlink:href="#m3d78ce3d07" x="49.117766" y="105.263889" style="fill: #701f57; stroke: #701f57"/>
     <use xlink:href="#m3d78ce3d07" x="83.008185" y="105.154014" style="fill: #701f57; stroke: #701f57"/>
     <use xlink:href="#m3d78ce3d07" x="107.438118" y="75.936181" style="fill: #701f57; stroke: #701f57"/>
     <use xlink:href="#m3d78ce3d07" x="148.83631" y="89.615011" style="fill: #701f57; stroke: #701f57"/>
     <use xlink:href="#m3d78ce3d07" x="175.808353" y="80.715266" style="fill: #701f57; stroke: #701f57"/>
    </g>
   </g>
   <g id="line2d_25">
    <path d="M 64.787116 95.32769 
L 87.822441 111.509091 
L 127.90848 78.589692 
L 154.655879 86.319836 
L 196.993419 40.064966 
" clip-path="url(#pc97169452b)" style="fill: none; stroke: #ad1759; stroke-width: 0.9; stroke-linecap: square"/>
    <defs>
     <path id="m9eb9befce9" d="M 0 1.25 
C 0.331504 1.25 0.649475 1.118292 0.883883 0.883883 
C 1.118292 0.649475 1.25 0.331504 1.25 0 
C 1.25 -0.331504 1.118292 -0.649475 0.883883 -0.883883 
C 0.649475 -1.118292 0.331504 -1.25 0 -1.25 
C -0.331504 -1.25 -0.649475 -1.118292 -0.883883 -0.883883 
C -1.118292 -0.649475 -1.25 -0.331504 -1.25 0 
C -1.25 0.331504 -1.118292 0.649475 -0.883883 0.883883 
C -0.649475 1.118292 -0.331504 1.25 0 1.25 
z
" style="stroke: #ad1759"/>
    </defs>
    <g clip-path="url(#pc97169452b)">
     <use xlink:href="#m9eb9befce9" x="64.787116" y="95.32769" style="fill: #ad1759; stroke: #ad1759"/>
     <use xlink:href="#m9eb9befce9" x="87.822441" y="111.509091" style="fill: #ad1759; stroke: #ad1759"/>
     <use xlink:href="#m9eb9befce9" x="127.90848" y="78.589692" style="fill: #ad1759; stroke: #ad1759"/>
     <use xlink:href="#m9eb9befce9" x="154.655879" y="86.319836" style="fill: #ad1759; stroke: #ad1759"/>
     <use xlink:href="#m9eb9befce9" x="196.993419" y="40.064966" style="fill: #ad1759; stroke: #ad1759"/>
    </g>
   </g>
   <g id="line2d_26">
    <path d="M 47.654336 109.171012 
L 69.005093 107.101408 
L 107.292295 90.856311 
L 133.495225 91.044075 
L 175.969888 88.850035 
L 202.470829 63.639823 
" clip-path="url(#pc97169452b)" style="fill: none; stroke: #e13342; stroke-width: 0.9; stroke-linecap: square"/>
    <defs>
     <path id="mc6e0217ad2" d="M 0 1.25 
C 0.331504 1.25 0.649475 1.118292 0.883883 0.883883 
C 1.118292 0.649475 1.25 0.331504 1.25 0 
C 1.25 -0.331504 1.118292 -0.649475 0.883883 -0.883883 
C 0.649475 -1.118292 0.331504 -1.25 0 -1.25 
C -0.331504 -1.25 -0.649475 -1.118292 -0.883883 -0.883883 
C -1.118292 -0.649475 -1.25 -0.331504 -1.25 0 
C -1.25 0.331504 -1.118292 0.649475 -0.883883 0.883883 
C -0.649475 1.118292 -0.331504 1.25 0 1.25 
z
" style="stroke: #e13342"/>
    </defs>
    <g clip-path="url(#pc97169452b)">
     <use xlink:href="#mc6e0217ad2" x="47.654336" y="109.171012" style="fill: #e13342; stroke: #e13342"/>
     <use xlink:href="#mc6e0217ad2" x="69.005093" y="107.101408" style="fill: #e13342; stroke: #e13342"/>
     <use xlink:href="#mc6e0217ad2" x="107.292295" y="90.856311" style="fill: #e13342; stroke: #e13342"/>
     <use xlink:href="#mc6e0217ad2" x="133.495225" y="91.044075" style="fill: #e13342; stroke: #e13342"/>
     <use xlink:href="#mc6e0217ad2" x="175.969888" y="88.850035" style="fill: #e13342; stroke: #e13342"/>
     <use xlink:href="#mc6e0217ad2" x="202.470829" y="63.639823" style="fill: #e13342; stroke: #e13342"/>
    </g>
   </g>
   <g id="line2d_27">
    <path d="M 51.160595 106.416591 
L 87.206944 109.044789 
L 112.545321 93.402285 
L 154.641336 87.05975 
L 181.529105 70.360685 
" clip-path="url(#pc97169452b)" style="fill: none; stroke: #f37651; stroke-width: 0.9; stroke-linecap: square"/>
    <defs>
     <path id="m5ab55cf13e" d="M 0 1.25 
C 0.331504 1.25 0.649475 1.118292 0.883883 0.883883 
C 1.118292 0.649475 1.25 0.331504 1.25 0 
C 1.25 -0.331504 1.118292 -0.649475 0.883883 -0.883883 
C 0.649475 -1.118292 0.331504 -1.25 0 -1.25 
C -0.331504 -1.25 -0.649475 -1.118292 -0.883883 -0.883883 
C -1.118292 -0.649475 -1.25 -0.331504 -1.25 0 
C -1.25 0.331504 -1.118292 0.649475 -0.883883 0.883883 
C -0.649475 1.118292 -0.331504 1.25 0 1.25 
z
" style="stroke: #f37651"/>
    </defs>
    <g clip-path="url(#pc97169452b)">
     <use xlink:href="#m5ab55cf13e" x="51.160595" y="106.416591" style="fill: #f37651; stroke: #f37651"/>
     <use xlink:href="#m5ab55cf13e" x="87.206944" y="109.044789" style="fill: #f37651; stroke: #f37651"/>
     <use xlink:href="#m5ab55cf13e" x="112.545321" y="93.402285" style="fill: #f37651; stroke: #f37651"/>
     <use xlink:href="#m5ab55cf13e" x="154.641336" y="87.05975" style="fill: #f37651; stroke: #f37651"/>
     <use xlink:href="#m5ab55cf13e" x="181.529105" y="70.360685" style="fill: #f37651; stroke: #f37651"/>
    </g>
   </g>
   <g id="line2d_28">
    <path d="M 67.847205 117.907848 
L 92.023797 120.520637 
L 133.212018 84.357653 
L 160.159 80.113154 
" clip-path="url(#pc97169452b)" style="fill: none; stroke: #f6b48f; stroke-width: 0.9; stroke-linecap: square"/>
    <defs>
     <path id="m7bccd4ab47" d="M 0 1.25 
C 0.331504 1.25 0.649475 1.118292 0.883883 0.883883 
C 1.118292 0.649475 1.25 0.331504 1.25 0 
C 1.25 -0.331504 1.118292 -0.649475 0.883883 -0.883883 
C 0.649475 -1.118292 0.331504 -1.25 0 -1.25 
C -0.331504 -1.25 -0.649475 -1.118292 -0.883883 -0.883883 
C -1.118292 -0.649475 -1.25 -0.331504 -1.25 0 
C -1.25 0.331504 -1.118292 0.649475 -0.883883 0.883883 
C -0.649475 1.118292 -0.331504 1.25 0 1.25 
z
" style="stroke: #f6b48f"/>
    </defs>
    <g clip-path="url(#pc97169452b)">
     <use xlink:href="#m7bccd4ab47" x="67.847205" y="117.907848" style="fill: #f6b48f; stroke: #f6b48f"/>
     <use xlink:href="#m7bccd4ab47" x="92.023797" y="120.520637" style="fill: #f6b48f; stroke: #f6b48f"/>
     <use xlink:href="#m7bccd4ab47" x="133.212018" y="84.357653" style="fill: #f6b48f; stroke: #f6b48f"/>
     <use xlink:href="#m7bccd4ab47" x="160.159" y="80.113154" style="fill: #f6b48f; stroke: #f6b48f"/>
    </g>
   </g>
   <g id="patch_3">
    <path d="M 39.913511 163.477236 
L 39.913511 7.2 
" style="fill: none; stroke: #000000; stroke-width: 0.8; stroke-linejoin: miter; stroke-linecap: square"/>
   </g>
   <g id="patch_4">
    <path d="M 210.211654 163.477236 
L 210.211654 7.2 
" style="fill: none; stroke: #000000; stroke-width: 0.8; stroke-linejoin: miter; stroke-linecap: square"/>
   </g>
   <g id="patch_5">
    <path d="M 39.913511 163.477236 
L 210.211654 163.477236 
" style="fill: none; stroke: #000000; stroke-width: 0.8; stroke-linejoin: miter; stroke-linecap: square"/>
   </g>
   <g id="patch_6">
    <path d="M 39.913511 7.2 
L 210.211654 7.2 
" style="fill: none; stroke: #000000; stroke-width: 0.8; stroke-linejoin: miter; stroke-linecap: square"/>
   </g>
   <g id="text_14">
    <g id="patch_7">
     <path d="M 56.943326 35.868965 
L 129.089617 35.868965 
Q 132.389617 35.868965 132.389617 32.568965 
L 132.389617 22.827724 
Q 132.389617 19.527724 129.089617 19.527724 
L 56.943326 19.527724 
Q 53.643326 19.527724 53.643326 22.827724 
L 53.643326 32.568965 
Q 53.643326 35.868965 56.943326 35.868965 
z
" style="fill: #ffffff; opacity: 0.3; stroke: #000000; stroke-linejoin: miter"/>
    </g>
    <!-- Pr30 processing -->
    <g transform="translate(56.943326 30.43807) scale(0.11 -0.11)">
     <defs>
      <path id="CMSS17-50" d="M 2106 1856 
C 2874 1856 3501 2447 3501 3139 
C 3501 3818 2899 4416 2067 4416 
L 570 4416 
L 570 0 
L 1107 0 
L 1107 1856 
L 2106 1856 
z
M 1926 4057 
C 2669 4057 2995 3598 2995 3139 
C 2995 2711 2694 2227 1926 2227 
L 1094 2227 
L 1094 4057 
L 1926 4057 
z
" transform="scale(0.015625)"/>
      <path id="CMSS17-72" d="M 954 1369 
C 954 1974 1395 2379 1958 2392 
L 1958 2816 
C 1549 2809 1165 2604 934 2270 
L 934 2783 
L 480 2783 
L 480 0 
L 954 0 
L 954 1369 
z
" transform="scale(0.015625)"/>
      <path id="CMSS17-33" d="M 1005 2060 
L 1440 2060 
C 2042 2060 2214 1532 2214 1164 
C 2214 662 1933 268 1472 268 
C 1114 268 608 449 320 926 
C 275 700 275 687 250 533 
C 550 89 1037 -128 1485 -128 
C 2214 -128 2752 481 2752 1158 
C 2752 1667 2400 2092 1920 2252 
C 2304 2463 2586 2860 2586 3321 
C 2586 3859 2093 4288 1491 4288 
C 941 4288 512 3948 333 3583 
C 378 3519 493 3334 550 3238 
C 691 3615 1056 3897 1485 3897 
C 1843 3897 2080 3660 2080 3321 
C 2080 2969 1856 2585 1478 2496 
C 1453 2496 1056 2457 1005 2451 
L 1005 2060 
z
" transform="scale(0.015625)"/>
      <path id="CMSS17-70" d="M 966 275 
C 1178 70 1466 -64 1773 -64 
C 2368 -64 2880 553 2880 1382 
C 2880 2147 2496 2816 1946 2816 
C 1626 2816 1242 2700 954 2470 
L 954 2764 
L 480 2764 
L 480 -1280 
L 966 -1280 
L 966 275 
z
M 966 2088 
C 1018 2166 1235 2412 1587 2412 
C 2035 2412 2394 1946 2394 1382 
C 2394 741 1958 326 1530 326 
C 1402 326 1267 358 1139 468 
C 966 624 966 721 966 812 
L 966 2088 
z
" transform="scale(0.015625)"/>
      <path id="CMSS17-6f" d="M 2829 1356 
C 2829 2175 2221 2816 1504 2816 
C 768 2816 173 2156 173 1356 
C 173 544 787 -64 1498 -64 
C 2227 -64 2829 563 2829 1356 
z
M 1504 339 
C 1050 339 659 710 659 1407 
C 659 2150 1114 2425 1498 2425 
C 1914 2425 2342 2124 2342 1407 
C 2342 684 1926 339 1504 339 
z
" transform="scale(0.015625)"/>
      <path id="CMSS17-63" d="M 2464 2540 
C 2464 2585 2170 2713 2093 2739 
C 1882 2816 1613 2816 1542 2816 
C 710 2816 211 2092 211 1363 
C 211 595 768 -64 1517 -64 
C 1946 -64 2253 76 2502 243 
L 2464 665 
C 2189 454 1869 339 1523 339 
C 1024 339 698 774 698 1369 
C 698 1830 909 2412 1549 2412 
C 1901 2412 2099 2342 2394 2143 
L 2464 2540 
z
" transform="scale(0.015625)"/>
      <path id="CMSS17-65" d="M 2502 1375 
C 2502 1587 2490 2001 2285 2347 
C 2061 2713 1696 2816 1421 2816 
C 755 2816 192 2184 192 1363 
C 192 579 774 -64 1510 -64 
C 1798 -64 2150 19 2470 249 
C 2470 275 2458 414 2451 421 
C 2451 433 2432 629 2432 655 
C 2125 408 1773 326 1517 326 
C 1107 326 666 667 646 1375 
L 2502 1375 
z
M 698 1728 
C 781 2086 1062 2425 1421 2425 
C 1517 2425 1965 2412 2080 1728 
L 698 1728 
z
" transform="scale(0.015625)"/>
      <path id="CMSS17-73" d="M 2061 2623 
C 1683 2803 1389 2816 1197 2816 
C 742 2816 198 2655 198 2009 
C 198 1363 902 1222 1094 1183 
C 1389 1126 1715 1062 1715 742 
C 1715 339 1254 339 1171 339 
C 915 339 563 409 243 639 
L 166 211 
C 531 0 883 -64 1178 -64 
C 1965 -64 2163 416 2163 780 
C 2163 1094 1984 1305 1862 1401 
C 1651 1567 1574 1587 1050 1695 
C 960 1708 646 1779 646 2067 
C 646 2431 1050 2431 1139 2431 
C 1555 2431 1811 2303 1984 2207 
L 2061 2623 
z
" transform="scale(0.015625)"/>
      <path id="CMSS17-69" d="M 979 4224 
L 442 4224 
L 442 3686 
L 979 3686 
L 979 4224 
z
M 947 2752 
L 474 2752 
L 474 0 
L 947 0 
L 947 2752 
z
" transform="scale(0.015625)"/>
      <path id="CMSS17-6e" d="M 2618 1878 
C 2618 2283 2522 2816 1798 2816 
C 1389 2816 1120 2604 941 2386 
L 941 2783 
L 474 2783 
L 474 0 
L 960 0 
L 960 1556 
C 960 1962 1114 2425 1549 2425 
C 2112 2425 2131 2045 2131 1826 
L 2131 0 
L 2618 0 
L 2618 1878 
z
" transform="scale(0.015625)"/>
     </defs>
     <use xlink:href="#CMSS17-50" transform="scale(0.996264)"/>
     <use xlink:href="#CMSS17-72" transform="translate(59.735586 0) scale(0.996264)"/>
     <use xlink:href="#CMSS17-33" transform="translate(91.645359 0) scale(0.996264)"/>
     <use xlink:href="#CMSS17-30" transform="translate(138.488982 0) scale(0.996264)"/>
     <use xlink:href="#CMSS17-70" transform="translate(216.561719 0) scale(0.996264)"/>
     <use xlink:href="#CMSS17-72" transform="translate(262.164208 0) scale(0.996264)"/>
     <use xlink:href="#CMSS17-6f" transform="translate(294.07398 0) scale(0.996264)"/>
     <use xlink:href="#CMSS17-63" transform="translate(343.520043 0) scale(0.996264)"/>
     <use xlink:href="#CMSS17-65" transform="translate(385.158865 0) scale(0.996264)"/>
     <use xlink:href="#CMSS17-73" transform="translate(426.797687 0) scale(0.996264)"/>
     <use xlink:href="#CMSS17-73" transform="translate(462.711229 0) scale(0.996264)"/>
     <use xlink:href="#CMSS17-69" transform="translate(498.624771 0) scale(0.996264)"/>
     <use xlink:href="#CMSS17-6e" transform="translate(520.805494 0) scale(0.996264)"/>
     <use xlink:href="#CMSS17-67" transform="translate(569.010437 0) scale(0.996264)"/>
    </g>
   </g>
   <g id="legend_1">
    <g id="patch_8">
     <path d="M 44.352299 254.506471 
L 205.772866 254.506471 
Q 208.172866 254.506471 208.172866 252.106471 
L 208.172866 203.132684 
Q 208.172866 200.732684 205.772866 200.732684 
L 44.352299 200.732684 
Q 41.952299 200.732684 41.952299 203.132684 
L 41.952299 252.106471 
Q 41.952299 254.506471 44.352299 254.506471 
z
" style="fill: #ffffff; opacity: 0.8; stroke: #cccccc; stroke-linejoin: miter"/>
    </g>
    <g id="line2d_29">
     <path d="M 46.752299 209.732684 
L 58.752299 209.732684 
L 70.752299 209.732684 
" style="fill: none; stroke: #35193e; stroke-width: 0.9; stroke-linecap: square"/>
     <g>
      <use xlink:href="#ma5612d0ff6" x="58.752299" y="209.732684" style="fill: #35193e; stroke: #35193e"/>
     </g>
    </g>
    <g id="text_15">
     <!-- Jan 12 -->
     <g transform="translate(80.352299 213.932684) scale(0.12 -0.12)">
      <defs>
       <path id="CMSS17-4a" d="M 2336 4416 
L 1811 4416 
L 1811 947 
C 1811 640 1683 262 1107 262 
C 781 262 506 416 333 608 
L 250 140 
C 646 -71 1011 -128 1280 -128 
C 1901 -128 2336 230 2336 928 
L 2336 4416 
z
" transform="scale(0.015625)"/>
       <path id="CMSS17-61" d="M 2406 1789 
C 2406 2399 1978 2816 1402 2816 
C 1120 2816 813 2764 461 2559 
L 499 2133 
C 659 2250 934 2438 1395 2438 
C 1722 2438 1920 2185 1920 1782 
L 1920 1536 
C 896 1504 256 1209 256 711 
C 256 452 416 -64 947 -64 
C 1043 -64 1562 -52 1933 224 
L 1933 -13 
L 2406 -13 
L 2406 1789 
z
M 1920 824 
C 1920 711 1920 559 1728 446 
C 1562 339 1350 326 1261 326 
C 941 326 723 503 723 723 
C 723 1165 1722 1209 1920 1216 
L 1920 824 
z
" transform="scale(0.015625)"/>
      </defs>
      <use xlink:href="#CMSS17-4a" transform="scale(0.996264)"/>
      <use xlink:href="#CMSS17-61" transform="translate(44.121076 0) scale(0.996264)"/>
      <use xlink:href="#CMSS17-6e" transform="translate(89.042996 0) scale(0.996264)"/>
      <use xlink:href="#CMSS17-31" transform="translate(168.477052 0) scale(0.996264)"/>
      <use xlink:href="#CMSS17-32" transform="translate(215.320676 0) scale(0.996264)"/>
     </g>
    </g>
    <g id="line2d_30">
     <path d="M 46.752299 226.457279 
L 58.752299 226.457279 
L 70.752299 226.457279 
" style="fill: none; stroke: #701f57; stroke-width: 0.9; stroke-linecap: square"/>
     <g>
      <use xlink:href="#m3d78ce3d07" x="58.752299" y="226.457279" style="fill: #701f57; stroke: #701f57"/>
     </g>
    </g>
    <g id="text_16">
     <!-- Jan 13 -->
     <g transform="translate(80.352299 230.657279) scale(0.12 -0.12)">
      <use xlink:href="#CMSS17-4a" transform="scale(0.996264)"/>
      <use xlink:href="#CMSS17-61" transform="translate(44.121076 0) scale(0.996264)"/>
      <use xlink:href="#CMSS17-6e" transform="translate(89.042996 0) scale(0.996264)"/>
      <use xlink:href="#CMSS17-31" transform="translate(168.477052 0) scale(0.996264)"/>
      <use xlink:href="#CMSS17-33" transform="translate(215.320676 0) scale(0.996264)"/>
     </g>
    </g>
    <g id="line2d_31">
     <path d="M 46.752299 243.181875 
L 58.752299 243.181875 
L 70.752299 243.181875 
" style="fill: none; stroke: #ad1759; stroke-width: 0.9; stroke-linecap: square"/>
     <g>
      <use xlink:href="#m9eb9befce9" x="58.752299" y="243.181875" style="fill: #ad1759; stroke: #ad1759"/>
     </g>
    </g>
    <g id="text_17">
     <!-- Jan 14 -->
     <g transform="translate(80.352299 247.381875) scale(0.12 -0.12)">
      <use xlink:href="#CMSS17-4a" transform="scale(0.996264)"/>
      <use xlink:href="#CMSS17-61" transform="translate(44.121076 0) scale(0.996264)"/>
      <use xlink:href="#CMSS17-6e" transform="translate(89.042996 0) scale(0.996264)"/>
      <use xlink:href="#CMSS17-31" transform="translate(168.477052 0) scale(0.996264)"/>
      <use xlink:href="#CMSS17-34" transform="translate(215.320676 0) scale(0.996264)"/>
     </g>
    </g>
    <g id="line2d_32">
     <path d="M 137.062583 209.732684 
L 149.062583 209.732684 
L 161.062583 209.732684 
" style="fill: none; stroke: #e13342; stroke-width: 0.9; stroke-linecap: square"/>
     <g>
      <use xlink:href="#mc6e0217ad2" x="149.062583" y="209.732684" style="fill: #e13342; stroke: #e13342"/>
     </g>
    </g>
    <g id="text_18">
     <!-- Jan 15 -->
     <g transform="translate(170.662583 213.932684) scale(0.12 -0.12)">
      <use xlink:href="#CMSS17-4a" transform="scale(0.996264)"/>
      <use xlink:href="#CMSS17-61" transform="translate(44.121076 0) scale(0.996264)"/>
      <use xlink:href="#CMSS17-6e" transform="translate(89.042996 0) scale(0.996264)"/>
      <use xlink:href="#CMSS17-31" transform="translate(168.477052 0) scale(0.996264)"/>
      <use xlink:href="#CMSS17-35" transform="translate(215.320676 0) scale(0.996264)"/>
     </g>
    </g>
    <g id="line2d_33">
     <path d="M 137.062583 226.457279 
L 149.062583 226.457279 
L 161.062583 226.457279 
" style="fill: none; stroke: #f37651; stroke-width: 0.9; stroke-linecap: square"/>
     <g>
      <use xlink:href="#m5ab55cf13e" x="149.062583" y="226.457279" style="fill: #f37651; stroke: #f37651"/>
     </g>
    </g>
    <g id="text_19">
     <!-- Jan 16 -->
     <g transform="translate(170.662583 230.657279) scale(0.12 -0.12)">
      <use xlink:href="#CMSS17-4a" transform="scale(0.996264)"/>
      <use xlink:href="#CMSS17-61" transform="translate(44.121076 0) scale(0.996264)"/>
      <use xlink:href="#CMSS17-6e" transform="translate(89.042996 0) scale(0.996264)"/>
      <use xlink:href="#CMSS17-31" transform="translate(168.477052 0) scale(0.996264)"/>
      <use xlink:href="#CMSS17-36" transform="translate(215.320676 0) scale(0.996264)"/>
     </g>
    </g>
    <g id="line2d_34">
     <path d="M 137.062583 243.181875 
L 149.062583 243.181875 
L 161.062583 243.181875 
" style="fill: none; stroke: #f6b48f; stroke-width: 0.9; stroke-linecap: square"/>
     <g>
      <use xlink:href="#m7bccd4ab47" x="149.062583" y="243.181875" style="fill: #f6b48f; stroke: #f6b48f"/>
     </g>
    </g>
    <g id="text_20">
     <!-- Jan 17 -->
     <g transform="translate(170.662583 247.381875) scale(0.12 -0.12)">
      <use xlink:href="#CMSS17-4a" transform="scale(0.996264)"/>
      <use xlink:href="#CMSS17-61" transform="translate(44.121076 0) scale(0.996264)"/>
      <use xlink:href="#CMSS17-6e" transform="translate(89.042996 0) scale(0.996264)"/>
      <use xlink:href="#CMSS17-31" transform="translate(168.477052 0) scale(0.996264)"/>
      <use xlink:href="#CMSS17-37" transform="translate(215.320676 0) scale(0.996264)"/>
     </g>
    </g>
   </g>
  </g>
 </g>
 <defs>
  <clipPath id="pc97169452b">
   <rect x="39.913511" y="7.2" width="170.298142" height="156.277236"/>
  </clipPath>
 </defs>
</svg>
