<?xml version="1.0" encoding="utf-8" standalone="no"?>
<!DOCTYPE svg PUBLIC "-//W3C//DTD SVG 1.1//EN"
  "http://www.w3.org/Graphics/SVG/1.1/DTD/svg11.dtd">
<svg xmlns:xlink="http://www.w3.org/1999/xlink" width="396.500609pt" height="174.826653pt" viewBox="0 0 396.500609 174.826653" xmlns="http://www.w3.org/2000/svg" version="1.1">
 <metadata>
  <rdf:RDF xmlns:dc="http://purl.org/dc/elements/1.1/" xmlns:cc="http://creativecommons.org/ns#" xmlns:rdf="http://www.w3.org/1999/02/22-rdf-syntax-ns#">
   <cc:Work>
    <dc:type rdf:resource="http://purl.org/dc/dcmitype/StillImage"/>
    <dc:date>2026-06-19T09:54:20.566287</dc:date>
    <dc:format>image/svg+xml</dc:format>
    <dc:creator>
     <cc:Agent>
      <dc:title>Matplotlib v3.10.8, https://matplotlib.org/</dc:title>
     </cc:Agent>
    </dc:creator>
   </cc:Work>
  </rdf:RDF>
 </metadata>
 <defs>
  <style type="text/css">*{stroke-linejoin: round; stroke-linecap: butt}</style>
 </defs>
 <g id="figure_1">
  <g id="patch_1">
   <path d="M 0 174.826653 
L 396.500609 174.826653 
L 396.500609 -0 
L 0 -0 
L 0 174.826653 
z
" style="fill: none"/>
  </g>
  <g id="axes_1">
   <g id="patch_2">
    <path d="M 51.456976 151.770977 
L 380.984535 151.770977 
L 380.984535 20.810347 
L 51.456976 20.810347 
L 51.456976 151.770977 
z
" style="fill: none"/>
   </g>
   <g id="matplotlib.axis_1">
    <g id="xtick_1">
     <g id="line2d_1">
      <path d="M 102.510541 151.770977 
L 102.510541 20.810347 
" clip-path="url(#p5a264831ad)" style="fill: none; stroke: #b0b0b0; stroke-opacity: 0.3; stroke-width: 0.8; stroke-linecap: square"/>
     </g>
     <g id="line2d_2">
      <defs>
       <path id="m0aada90f31" d="M 0 0 
L 0 3.5 
" style="stroke: #000000; stroke-width: 0.8"/>
      </defs>
      <g>
       <use xlink:href="#m0aada90f31" x="102.510541" y="151.770977" style="stroke: #000000; stroke-width: 0.8"/>
      </g>
     </g>
     <g id="text_1">
      <!-- Nov -->
      <g transform="translate(94.194467 165.689475) scale(0.1 -0.1)">
       <defs>
        <path id="CMSS17-4e" d="M 1466 4179 
L 1350 4416 
L 563 4416 
L 563 0 
L 1062 0 
L 1062 3925 
L 1069 3931 
C 1114 3817 1139 3759 1402 3193 
L 2771 236 
L 2886 0 
L 3674 0 
L 3674 4416 
L 3174 4416 
L 3174 490 
L 3168 484 
C 3123 598 3098 655 2835 1222 
L 1466 4179 
z
" transform="scale(0.015625)"/>
        <path id="CMSS17-6f" d="M 2829 1356 
C 2829 2175 2221 2816 1504 2816 
C 768 2816 173 2156 173 1356 
C 173 544 787 -64 1498 -64 
C 2227 -64 2829 563 2829 1356 
z
M 1504 339 
C 1050 339 659 710 659 1407 
C 659 2150 1114 2425 1498 2425 
C 1914 2425 2342 2124 2342 1407 
C 2342 684 1926 339 1504 339 
z
" transform="scale(0.015625)"/>
        <path id="CMSS17-76" d="M 2675 2752 
L 2176 2752 
L 1747 1555 
C 1613 1164 1421 627 1389 352 
L 1382 352 
C 1370 467 1318 633 1286 748 
C 1248 889 1197 1056 1158 1171 
L 595 2752 
L 83 2752 
L 1094 0 
L 1664 0 
L 2675 2752 
z
" transform="scale(0.015625)"/>
       </defs>
       <use xlink:href="#CMSS17-4e" transform="scale(0.996264)"/>
       <use xlink:href="#CMSS17-6f" transform="translate(66.061519 0) scale(0.996264)"/>
       <use xlink:href="#CMSS17-76" transform="translate(112.905143 0) scale(0.996264)"/>
      </g>
     </g>
    </g>
    <g id="xtick_2">
     <g id="line2d_3">
      <path d="M 172.12904 151.770977 
L 172.12904 20.810347 
" clip-path="url(#p5a264831ad)" style="fill: none; stroke: #b0b0b0; stroke-opacity: 0.3; stroke-width: 0.8; stroke-linecap: square"/>
     </g>
     <g id="line2d_4">
      <g>
       <use xlink:href="#m0aada90f31" x="172.12904" y="151.770977" style="stroke: #000000; stroke-width: 0.8"/>
      </g>
     </g>
     <g id="text_2">
      <!-- Dec -->
      <g transform="translate(164.103563 165.689475) scale(0.1 -0.1)">
       <defs>
        <path id="CMSS17-44" d="M 570 4416 
L 570 0 
L 2144 0 
C 3194 0 4000 981 4000 2169 
C 4000 3396 3194 4416 2144 4416 
L 570 4416 
z
M 1094 358 
L 1094 4057 
L 2003 4057 
C 2861 4057 3475 3275 3475 2169 
C 3475 1108 2867 358 2003 358 
L 1094 358 
z
" transform="scale(0.015625)"/>
        <path id="CMSS17-65" d="M 2502 1375 
C 2502 1587 2490 2001 2285 2347 
C 2061 2713 1696 2816 1421 2816 
C 755 2816 192 2184 192 1363 
C 192 579 774 -64 1510 -64 
C 1798 -64 2150 19 2470 249 
C 2470 275 2458 414 2451 421 
C 2451 433 2432 629 2432 655 
C 2125 408 1773 326 1517 326 
C 1107 326 666 667 646 1375 
L 2502 1375 
z
M 698 1728 
C 781 2086 1062 2425 1421 2425 
C 1517 2425 1965 2412 2080 1728 
L 698 1728 
z
" transform="scale(0.015625)"/>
        <path id="CMSS17-63" d="M 2464 2540 
C 2464 2585 2170 2713 2093 2739 
C 1882 2816 1613 2816 1542 2816 
C 710 2816 211 2092 211 1363 
C 211 595 768 -64 1517 -64 
C 1946 -64 2253 76 2502 243 
L 2464 665 
C 2189 454 1869 339 1523 339 
C 1024 339 698 774 698 1369 
C 698 1830 909 2412 1549 2412 
C 1901 2412 2099 2342 2394 2143 
L 2464 2540 
z
" transform="scale(0.015625)"/>
       </defs>
       <use xlink:href="#CMSS17-44" transform="scale(0.996264)"/>
       <use xlink:href="#CMSS17-65" transform="translate(67.542842 0) scale(0.996264)"/>
       <use xlink:href="#CMSS17-63" transform="translate(109.181664 0) scale(0.996264)"/>
      </g>
     </g>
    </g>
    <g id="xtick_3">
     <g id="line2d_5">
      <path d="M 244.068155 151.770977 
L 244.068155 20.810347 
" clip-path="url(#p5a264831ad)" style="fill: none; stroke: #b0b0b0; stroke-opacity: 0.3; stroke-width: 0.8; stroke-linecap: square"/>
     </g>
     <g id="line2d_6">
      <g>
       <use xlink:href="#m0aada90f31" x="244.068155" y="151.770977" style="stroke: #000000; stroke-width: 0.8"/>
      </g>
     </g>
     <g id="text_3">
      <!-- Jan -->
      <g transform="translate(236.748367 165.689475) scale(0.1 -0.1)">
       <defs>
        <path id="CMSS17-4a" d="M 2336 4416 
L 1811 4416 
L 1811 947 
C 1811 640 1683 262 1107 262 
C 781 262 506 416 333 608 
L 250 140 
C 646 -71 1011 -128 1280 -128 
C 1901 -128 2336 230 2336 928 
L 2336 4416 
z
" transform="scale(0.015625)"/>
        <path id="CMSS17-61" d="M 2406 1789 
C 2406 2399 1978 2816 1402 2816 
C 1120 2816 813 2764 461 2559 
L 499 2133 
C 659 2250 934 2438 1395 2438 
C 1722 2438 1920 2185 1920 1782 
L 1920 1536 
C 896 1504 256 1209 256 711 
C 256 452 416 -64 947 -64 
C 1043 -64 1562 -52 1933 224 
L 1933 -13 
L 2406 -13 
L 2406 1789 
z
M 1920 824 
C 1920 711 1920 559 1728 446 
C 1562 339 1350 326 1261 326 
C 941 326 723 503 723 723 
C 723 1165 1722 1209 1920 1216 
L 1920 824 
z
" transform="scale(0.015625)"/>
        <path id="CMSS17-6e" d="M 2618 1878 
C 2618 2283 2522 2816 1798 2816 
C 1389 2816 1120 2604 941 2386 
L 941 2783 
L 474 2783 
L 474 0 
L 960 0 
L 960 1556 
C 960 1962 1114 2425 1549 2425 
C 2112 2425 2131 2045 2131 1826 
L 2131 0 
L 2618 0 
L 2618 1878 
z
" transform="scale(0.015625)"/>
       </defs>
       <use xlink:href="#CMSS17-4a" transform="scale(0.996264)"/>
       <use xlink:href="#CMSS17-61" transform="translate(44.121076 0) scale(0.996264)"/>
       <use xlink:href="#CMSS17-6e" transform="translate(89.042996 0) scale(0.996264)"/>
      </g>
     </g>
    </g>
    <g id="xtick_4">
     <g id="line2d_7">
      <path d="M 316.00727 151.770977 
L 316.00727 20.810347 
" clip-path="url(#p5a264831ad)" style="fill: none; stroke: #b0b0b0; stroke-opacity: 0.3; stroke-width: 0.8; stroke-linecap: square"/>
     </g>
     <g id="line2d_8">
      <g>
       <use xlink:href="#m0aada90f31" x="316.00727" y="151.770977" style="stroke: #000000; stroke-width: 0.8"/>
      </g>
     </g>
     <g id="text_4">
      <!-- Feb -->
      <g transform="translate(308.521441 165.689475) scale(0.1 -0.1)">
       <defs>
        <path id="CMSS17-46" d="M 2918 1984 
L 2918 2374 
L 1101 2374 
L 1101 3993 
L 1882 3993 
C 1958 3993 2035 3987 2112 3987 
L 3168 3987 
L 3168 4403 
L 563 4403 
L 563 0 
L 1101 0 
L 1101 1984 
L 2918 1984 
z
" transform="scale(0.015625)"/>
        <path id="CMSS17-62" d="M 954 4416 
L 480 4416 
L 480 -13 
L 966 -13 
L 966 275 
C 1210 38 1504 -64 1766 -64 
C 2381 -64 2880 559 2880 1382 
C 2880 2133 2496 2816 1926 2816 
C 1523 2816 1165 2649 954 2476 
L 954 4416 
z
M 966 2095 
C 1107 2276 1306 2425 1587 2425 
C 1965 2425 2394 2146 2394 1382 
C 2394 566 1882 326 1530 326 
C 1402 326 1267 358 1139 468 
C 966 624 966 721 966 812 
L 966 2095 
z
" transform="scale(0.015625)"/>
       </defs>
       <use xlink:href="#CMSS17-46" transform="scale(0.996264)"/>
       <use xlink:href="#CMSS17-65" transform="translate(50.687105 0) scale(0.996264)"/>
       <use xlink:href="#CMSS17-62" transform="translate(92.325927 0) scale(0.996264)"/>
      </g>
     </g>
    </g>
    <g id="xtick_5">
     <g id="line2d_9">
      <path d="M 380.984535 151.770977 
L 380.984535 20.810347 
" clip-path="url(#p5a264831ad)" style="fill: none; stroke: #b0b0b0; stroke-opacity: 0.3; stroke-width: 0.8; stroke-linecap: square"/>
     </g>
     <g id="line2d_10">
      <g>
       <use xlink:href="#m0aada90f31" x="380.984535" y="151.770977" style="stroke: #000000; stroke-width: 0.8"/>
      </g>
     </g>
     <g id="text_5">
      <!-- Mar -->
      <g transform="translate(372.668461 165.689475) scale(0.1 -0.1)">
       <defs>
        <path id="CMSS17-4d" d="M 3194 2373 
L 2886 1476 
C 2835 1311 2662 795 2624 592 
L 2618 592 
C 2598 719 2560 853 2458 1177 
C 2400 1368 2336 1565 2272 1743 
L 1325 4416 
L 576 4416 
L 576 0 
L 1075 0 
L 1075 3899 
L 1082 3899 
C 1082 3893 1139 3613 1530 2500 
L 2374 102 
L 2848 102 
L 3610 2233 
C 3661 2379 3821 2843 3891 3066 
C 3955 3257 4115 3728 4154 3912 
L 4160 3912 
L 4160 0 
L 4666 0 
L 4666 4416 
L 3923 4416 
L 3194 2373 
z
" transform="scale(0.015625)"/>
        <path id="CMSS17-72" d="M 954 1369 
C 954 1974 1395 2379 1958 2392 
L 1958 2816 
C 1549 2809 1165 2604 934 2270 
L 934 2783 
L 480 2783 
L 480 0 
L 954 0 
L 954 1369 
z
" transform="scale(0.015625)"/>
       </defs>
       <use xlink:href="#CMSS17-4d" transform="scale(0.996264)"/>
       <use xlink:href="#CMSS17-61" transform="translate(81.67603 0) scale(0.996264)"/>
       <use xlink:href="#CMSS17-72" transform="translate(123.995497 0) scale(0.996264)"/>
      </g>
     </g>
    </g>
   </g>
   <g id="matplotlib.axis_2">
    <g id="ytick_1">
     <g id="line2d_11">
      <path d="M 51.456976 135.400898 
L 380.984535 135.400898 
" clip-path="url(#p5a264831ad)" style="fill: none; stroke: #b0b0b0; stroke-opacity: 0.3; stroke-width: 0.8; stroke-linecap: square"/>
     </g>
     <g id="line2d_12">
      <defs>
       <path id="mbabdb3e321" d="M 0 0 
L -3.5 0 
" style="stroke: #000000; stroke-width: 0.8"/>
      </defs>
      <g>
       <use xlink:href="#mbabdb3e321" x="51.456976" y="135.400898" style="stroke: #000000; stroke-width: 0.8"/>
      </g>
     </g>
     <g id="text_6">
      <!-- $\mathdefault{20}$ -->
      <g transform="translate(34.494305 138.860147) scale(0.1 -0.1)">
       <defs>
        <path id="CMSS17-32" d="M 1651 1353 
C 1830 1538 2099 1761 2285 1984 
C 2464 2201 2701 2507 2701 2953 
C 2701 3655 2227 4288 1421 4288 
C 787 4288 422 3891 250 3272 
L 499 2928 
C 640 3508 838 3878 1338 3878 
C 1888 3878 2195 3431 2195 2940 
C 2195 2354 1747 1901 1408 1563 
C 1030 1187 659 805 301 409 
L 301 0 
L 2701 0 
L 2701 435 
L 1613 435 
C 1536 435 1459 428 1382 428 
L 742 428 
L 742 435 
L 1651 1353 
z
" transform="scale(0.015625)"/>
        <path id="CMSS17-30" d="M 2758 2073 
C 2758 2439 2752 3120 2490 3647 
C 2227 4153 1805 4288 1504 4288 
C 1069 4288 698 4031 506 3621 
C 301 3191 243 2748 243 2073 
C 243 1611 262 1046 493 551 
C 755 6 1197 -128 1498 -128 
C 1894 -128 2278 83 2496 525 
C 2720 988 2758 1495 2758 2073 
z
M 1498 262 
C 1011 262 864 821 819 1007 
C 742 1328 730 1636 730 2144 
C 730 2542 730 2992 851 3345 
C 998 3756 1254 3897 1498 3897 
C 1971 3897 2125 3422 2176 3255 
C 2272 2915 2272 2516 2272 2144 
C 2272 1546 2272 262 1498 262 
z
" transform="scale(0.015625)"/>
       </defs>
       <use xlink:href="#CMSS17-32" transform="scale(0.996264)"/>
       <use xlink:href="#CMSS17-30" transform="translate(46.843624 0) scale(0.996264)"/>
      </g>
     </g>
    </g>
    <g id="ytick_2">
     <g id="line2d_13">
      <path d="M 51.456976 102.66074 
L 380.984535 102.66074 
" clip-path="url(#p5a264831ad)" style="fill: none; stroke: #b0b0b0; stroke-opacity: 0.3; stroke-width: 0.8; stroke-linecap: square"/>
     </g>
     <g id="line2d_14">
      <g>
       <use xlink:href="#mbabdb3e321" x="51.456976" y="102.66074" style="stroke: #000000; stroke-width: 0.8"/>
      </g>
     </g>
     <g id="text_7">
      <!-- $\mathdefault{40}$ -->
      <g transform="translate(34.494305 106.11999) scale(0.1 -0.1)">
       <defs>
        <path id="CMSS17-34" d="M 2253 1088 
L 2835 1088 
L 2835 1478 
L 2253 1478 
L 2253 4224 
L 1690 4224 
L 166 1478 
L 166 1088 
L 1747 1088 
L 1747 0 
L 2253 0 
L 2253 1088 
z
M 659 1478 
C 1030 2139 1766 3474 1766 3927 
L 1766 1478 
L 659 1478 
z
" transform="scale(0.015625)"/>
       </defs>
       <use xlink:href="#CMSS17-34" transform="scale(0.996264)"/>
       <use xlink:href="#CMSS17-30" transform="translate(46.843624 0) scale(0.996264)"/>
      </g>
     </g>
    </g>
    <g id="ytick_3">
     <g id="line2d_15">
      <path d="M 51.456976 69.920583 
L 380.984535 69.920583 
" clip-path="url(#p5a264831ad)" style="fill: none; stroke: #b0b0b0; stroke-opacity: 0.3; stroke-width: 0.8; stroke-linecap: square"/>
     </g>
     <g id="line2d_16">
      <g>
       <use xlink:href="#mbabdb3e321" x="51.456976" y="69.920583" style="stroke: #000000; stroke-width: 0.8"/>
      </g>
     </g>
     <g id="text_8">
      <!-- $\mathdefault{60}$ -->
      <g transform="translate(34.494305 73.379832) scale(0.1 -0.1)">
       <defs>
        <path id="CMSS17-36" d="M 2496 4159 
C 2227 4268 2035 4288 1856 4288 
C 1024 4288 250 3408 250 2023 
C 250 268 986 -128 1510 -128 
C 1798 -128 2086 -39 2362 281 
C 2643 619 2752 900 2752 1392 
C 2752 2183 2362 2886 1779 2886 
C 1357 2886 992 2662 768 2381 
C 832 3290 1254 3897 1862 3897 
C 2029 3897 2246 3871 2496 3760 
L 2496 4159 
z
M 774 1372 
C 774 1423 774 1455 781 1551 
C 781 2049 1069 2496 1536 2496 
C 1837 2496 1990 2336 2106 2138 
C 2240 1889 2246 1653 2246 1392 
C 2246 1143 2246 894 2099 638 
C 1978 441 1818 268 1510 268 
C 902 268 800 1117 774 1372 
z
" transform="scale(0.015625)"/>
       </defs>
       <use xlink:href="#CMSS17-36" transform="scale(0.996264)"/>
       <use xlink:href="#CMSS17-30" transform="translate(46.843624 0) scale(0.996264)"/>
      </g>
     </g>
    </g>
    <g id="ytick_4">
     <g id="line2d_17">
      <path d="M 51.456976 37.180425 
L 380.984535 37.180425 
" clip-path="url(#p5a264831ad)" style="fill: none; stroke: #b0b0b0; stroke-opacity: 0.3; stroke-width: 0.8; stroke-linecap: square"/>
     </g>
     <g id="line2d_18">
      <g>
       <use xlink:href="#mbabdb3e321" x="51.456976" y="37.180425" style="stroke: #000000; stroke-width: 0.8"/>
      </g>
     </g>
     <g id="text_9">
      <!-- $\mathdefault{80}$ -->
      <g transform="translate(34.494305 40.639675) scale(0.1 -0.1)">
       <defs>
        <path id="CMSS17-38" d="M 1933 2246 
C 2419 2406 2669 2793 2669 3174 
C 2669 3774 2157 4288 1504 4288 
C 826 4288 333 3755 333 3174 
C 333 2799 576 2412 1069 2246 
C 442 2003 250 1516 250 1152 
C 250 448 819 -128 1498 -128 
C 2202 -128 2752 460 2752 1152 
C 2752 1574 2502 2022 1933 2246 
z
M 1504 2438 
C 1075 2438 787 2728 787 3167 
C 787 3613 1075 3897 1504 3897 
C 1901 3897 2214 3639 2214 3167 
C 2214 2703 1907 2438 1504 2438 
z
M 1504 268 
C 1139 268 749 518 749 1158 
C 749 1817 1184 2048 1498 2048 
C 1843 2048 2253 1804 2253 1158 
C 2253 492 1830 268 1504 268 
z
" transform="scale(0.015625)"/>
       </defs>
       <use xlink:href="#CMSS17-38" transform="scale(0.996264)"/>
       <use xlink:href="#CMSS17-30" transform="translate(46.843624 0) scale(0.996264)"/>
      </g>
     </g>
    </g>
    <g id="text_10">
     <!-- SSA -->
     <g transform="translate(14.810347 96.031941) rotate(-90) scale(0.11 -0.11)">
      <defs>
       <path id="CMSS17-53" d="M 2797 4230 
C 2515 4396 2208 4544 1690 4544 
C 864 4544 333 3934 333 3309 
C 333 3064 403 2787 653 2504 
C 902 2220 1184 2143 1542 2053 
C 1690 2014 1939 1943 1984 1924 
C 2342 1782 2515 1454 2515 1144 
C 2515 738 2202 307 1645 307 
C 1453 307 890 339 358 829 
L 269 320 
C 794 -64 1363 -128 1651 -128 
C 2438 -128 3002 494 3002 1202 
C 3002 1460 2925 1789 2656 2092 
C 2394 2381 2163 2446 1638 2588 
C 1338 2665 1146 2717 986 2916 
C 877 3058 819 3193 819 3367 
C 819 3728 1126 4121 1690 4121 
C 1971 4121 2336 4063 2707 3715 
L 2797 4230 
z
" transform="scale(0.015625)"/>
       <path id="CMSS17-41" d="M 2272 4416 
L 1722 4416 
L 166 0 
L 653 0 
L 1101 1280 
L 2816 1280 
L 3270 0 
L 3827 0 
L 2272 4416 
z
M 2694 1638 
L 1222 1638 
C 1530 2530 1914 3638 1958 3924 
L 1965 3924 
C 2010 3663 2138 3281 2246 2956 
L 2694 1638 
z
" transform="scale(0.015625)"/>
      </defs>
      <use xlink:href="#CMSS17-53" transform="scale(0.996264)"/>
      <use xlink:href="#CMSS17-53" transform="translate(52.048516 0) scale(0.996264)"/>
      <use xlink:href="#CMSS17-41" transform="translate(104.097032 0) scale(0.996264)"/>
     </g>
     <!-- (m$^2$ kg$^{-1}$) -->
     <g transform="translate(27.754579 110.027059) rotate(-90) scale(0.11 -0.11)">
      <defs>
       <path id="CMSS17-28" d="M 1613 4800 
C 1267 4447 474 3627 474 1603 
C 474 -428 1267 -1242 1613 -1600 
L 2003 -1600 
C 1216 -781 960 366 960 1596 
C 960 2820 1203 3973 2003 4800 
L 1613 4800 
z
" transform="scale(0.015625)"/>
       <path id="CMSS17-6d" d="M 4288 1878 
C 4288 2309 4179 2816 3462 2816 
C 2982 2816 2694 2515 2566 2328 
C 2451 2668 2182 2816 1798 2816 
C 1363 2816 1088 2566 941 2386 
L 941 2783 
L 474 2783 
L 474 0 
L 960 0 
L 960 1556 
C 960 1936 1101 2425 1555 2425 
C 2138 2425 2138 2013 2138 1826 
L 2138 0 
L 2624 0 
L 2624 1556 
C 2624 1936 2765 2425 3219 2425 
C 3802 2425 3802 2013 3802 1826 
L 3802 0 
L 4288 0 
L 4288 1878 
z
" transform="scale(0.015625)"/>
       <path id="CMSS17-6b" d="M 1696 1686 
L 2688 2735 
L 2074 2735 
L 954 1552 
L 954 4416 
L 480 4416 
L 480 0 
L 947 0 
L 947 891 
L 1376 1342 
L 2278 0 
L 2822 0 
L 1696 1686 
z
" transform="scale(0.015625)"/>
       <path id="CMSS17-67" d="M 2848 2816 
C 2483 2809 2170 2739 1914 2617 
C 1702 2783 1485 2816 1338 2816 
C 781 2816 358 2356 358 1824 
C 358 1481 550 1222 563 1209 
C 448 1049 384 876 384 684 
C 384 460 474 300 544 211 
C 211 6 166 -308 166 -429 
C 166 -896 749 -1280 1498 -1280 
C 2253 -1280 2835 -896 2835 -423 
C 2835 460 1856 467 1587 467 
L 1069 467 
C 973 467 717 467 717 793 
C 717 921 774 1004 781 1011 
C 877 940 1075 832 1338 832 
C 1869 832 2310 1279 2310 1824 
C 2310 2128 2170 2349 2112 2425 
L 2131 2425 
C 2150 2425 2419 2444 2515 2444 
C 2720 2444 2739 2438 2918 2419 
L 2848 2816 
z
M 1338 1184 
C 1120 1184 813 1317 813 1824 
C 813 2375 1165 2463 1331 2463 
C 1549 2463 1856 2330 1856 1824 
C 1856 1272 1504 1184 1338 1184 
z
M 1581 0 
C 1734 0 2381 0 2381 -436 
C 2381 -711 1984 -928 1504 -928 
C 1018 -928 621 -717 621 -429 
C 621 -397 621 0 1062 0 
L 1581 0 
z
" transform="scale(0.015625)"/>
       <path id="ComputerModernSans-Regular10pt-0" d="M 602 1715 
C 582 1702 563 1683 557 1670 
C 538 1644 538 1638 538 1600 
C 538 1561 538 1555 557 1529 
C 563 1516 582 1497 602 1484 
L 627 1472 
L 2483 1472 
L 4346 1472 
L 4371 1484 
C 4390 1497 4410 1516 4422 1529 
C 4435 1555 4442 1561 4442 1600 
C 4442 1638 4435 1644 4422 1670 
C 4410 1683 4390 1702 4371 1715 
L 4346 1728 
L 2483 1728 
L 627 1728 
L 602 1715 
z
" transform="scale(0.015625)"/>
       <path id="CMSS17-31" d="M 1818 4288 
L 1696 4288 
C 1350 3949 947 3902 538 3891 
L 538 3520 
C 723 3526 1024 3539 1325 3673 
L 1325 371 
L 570 371 
L 570 0 
L 2573 0 
L 2573 371 
L 1818 371 
L 1818 4288 
z
" transform="scale(0.015625)"/>
       <path id="CMSS17-29" d="M 723 -1600 
C 1069 -1248 1862 -428 1862 1596 
C 1862 3627 1069 4440 723 4800 
L 333 4800 
C 1120 3979 1376 2833 1376 1603 
C 1376 379 1133 -774 333 -1600 
L 723 -1600 
z
" transform="scale(0.015625)"/>
      </defs>
      <use xlink:href="#CMSS17-28" transform="scale(0.996264)"/>
      <use xlink:href="#CMSS17-6d" transform="translate(36.433914 0) scale(0.996264)"/>
      <use xlink:href="#CMSS17-32" transform="translate(110.663169 36.153639) scale(0.697382)"/>
      <use xlink:href="#CMSS17-6b" transform="translate(175.180795 0) scale(0.996264)"/>
      <use xlink:href="#CMSS17-67" transform="translate(220.783284 0) scale(0.996264)"/>
      <use xlink:href="#ComputerModernSans-Regular10pt-0" transform="translate(267.626908 36.153639) scale(0.697382)"/>
      <use xlink:href="#CMSS17-31" transform="translate(321.867901 36.153639) scale(0.697382)"/>
      <use xlink:href="#CMSS17-29" transform="translate(355.156414 0) scale(0.996264)"/>
     </g>
    </g>
   </g>
   <g id="line2d_19">
    <path d="M 76.983759 49.102265 
L 79.304375 47.486373 
L 83.945608 81.230832 
L 86.266225 70.394407 
L 88.586842 91.602751 
L 90.907458 50.233949 
L 93.228075 62.155289 
L 95.548691 58.644224 
L 97.869308 91.01308 
L 100.189925 98.281525 
L 102.510541 120.14023 
L 104.831158 125.613025 
L 107.151775 127.9664 
L 109.472391 130.696637 
L 111.793008 131.265397 
L 114.113624 130.316609 
L 116.434241 129.926908 
L 118.754858 130.340725 
L 121.075474 132.394052 
L 123.396091 132.371457 
L 125.716707 117.396653 
L 128.037324 132.550704 
L 130.357941 132.120431 
L 132.678557 132.489631 
L 134.999174 131.897031 
L 137.31979 130.149543 
L 139.640407 131.771292 
L 141.961024 130.923267 
L 144.28164 131.166915 
L 146.602257 131.117224 
L 148.922874 131.178583 
L 151.24349 131.339181 
L 153.564107 131.831664 
L 155.884723 131.462968 
L 158.20534 132.230316 
L 160.525957 132.923377 
L 162.846573 132.947979 
L 165.16719 132.932795 
L 167.487806 133.045121 
L 169.808423 133.084677 
L 172.12904 133.140963 
L 174.449656 133.662921 
L 176.770273 134.109307 
L 179.09089 134.40651 
L 181.411506 134.763474 
L 183.732123 134.724175 
L 186.052739 134.889976 
L 188.373356 135.85876 
L 190.693973 135.976118 
L 193.014589 133.601443 
L 195.335206 127.41283 
L 197.655822 131.858677 
L 199.976439 134.604988 
L 202.297056 134.521169 
L 204.617672 104.274844 
L 206.938289 102.889198 
L 209.258905 135.326659 
L 211.579522 127.98019 
L 213.900139 73.680824 
L 216.220755 112.402939 
L 218.541372 136.932442 
L 220.861989 137.467879 
L 223.182605 137.929455 
L 225.503222 138.313221 
L 227.823838 137.725849 
L 230.144455 136.696035 
L 232.465072 136.749389 
L 234.785688 137.384078 
L 237.106305 137.151895 
L 239.426921 134.674595 
L 241.747538 136.188033 
L 244.068155 136.817808 
L 246.388771 137.64474 
L 248.709388 137.387662 
L 251.030005 137.425595 
L 253.350621 137.32546 
L 255.671238 136.259745 
L 257.991854 131.526799 
L 260.312471 126.121464 
L 262.633088 119.642503 
L 264.953704 127.90291 
L 267.274321 131.741349 
L 269.594937 115.866834 
L 271.915554 130.284948 
L 274.236171 132.994204 
L 276.556787 134.618173 
L 278.877404 135.516684 
L 281.19802 137.079363 
L 283.518637 138.726641 
L 285.839254 121.508131 
L 288.15987 129.244404 
L 290.480487 136.607654 
L 292.801104 138.366544 
L 295.12172 136.873177 
L 297.442337 137.424608 
L 299.762953 137.090321 
L 302.08357 135.966096 
L 304.404187 138.592787 
L 306.724803 126.467075 
L 309.04542 123.84573 
L 311.366036 134.70235 
L 313.686653 133.857923 
L 316.00727 134.739912 
L 318.327886 135.910043 
L 320.648503 137.25867 
L 322.96912 136.608611 
L 325.289736 137.963532 
L 327.610353 110.994022 
L 329.930969 111.036893 
L 332.251586 133.755597 
L 334.572203 136.184053 
L 336.892819 134.92974 
L 339.213436 140.029463 
L 341.534052 137.392698 
L 343.854669 137.474917 
L 346.175286 139.062671 
L 348.495902 136.208645 
L 350.816519 136.745202 
L 353.137135 135.423956 
L 355.457752 137.858993 
L 357.778369 139.592003 
L 360.098985 141.584509 
" clip-path="url(#p5a264831ad)" style="fill: none; stroke: #ff8c00; stroke-linecap: square"/>
    <defs>
     <path id="ma30bee058f" d="M 0 1 
C 0.265203 1 0.51958 0.894634 0.707107 0.707107 
C 0.894634 0.51958 1 0.265203 1 0 
C 1 -0.265203 0.894634 -0.51958 0.707107 -0.707107 
C 0.51958 -0.894634 0.265203 -1 0 -1 
C -0.265203 -1 -0.51958 -0.894634 -0.707107 -0.707107 
C -0.894634 -0.51958 -1 -0.265203 -1 0 
C -1 0.265203 -0.894634 0.51958 -0.707107 0.707107 
C -0.51958 0.894634 -0.265203 1 0 1 
z
" style="stroke: #ff8c00"/>
    </defs>
    <g clip-path="url(#p5a264831ad)">
     <use xlink:href="#ma30bee058f" x="76.983759" y="49.102265" style="fill: #ff8c00; stroke: #ff8c00"/>
     <use xlink:href="#ma30bee058f" x="79.304375" y="47.486373" style="fill: #ff8c00; stroke: #ff8c00"/>
     <use xlink:href="#ma30bee058f" x="83.945608" y="81.230832" style="fill: #ff8c00; stroke: #ff8c00"/>
     <use xlink:href="#ma30bee058f" x="86.266225" y="70.394407" style="fill: #ff8c00; stroke: #ff8c00"/>
     <use xlink:href="#ma30bee058f" x="88.586842" y="91.602751" style="fill: #ff8c00; stroke: #ff8c00"/>
     <use xlink:href="#ma30bee058f" x="90.907458" y="50.233949" style="fill: #ff8c00; stroke: #ff8c00"/>
     <use xlink:href="#ma30bee058f" x="93.228075" y="62.155289" style="fill: #ff8c00; stroke: #ff8c00"/>
     <use xlink:href="#ma30bee058f" x="95.548691" y="58.644224" style="fill: #ff8c00; stroke: #ff8c00"/>
     <use xlink:href="#ma30bee058f" x="97.869308" y="91.01308" style="fill: #ff8c00; stroke: #ff8c00"/>
     <use xlink:href="#ma30bee058f" x="100.189925" y="98.281525" style="fill: #ff8c00; stroke: #ff8c00"/>
     <use xlink:href="#ma30bee058f" x="102.510541" y="120.14023" style="fill: #ff8c00; stroke: #ff8c00"/>
     <use xlink:href="#ma30bee058f" x="104.831158" y="125.613025" style="fill: #ff8c00; stroke: #ff8c00"/>
     <use xlink:href="#ma30bee058f" x="107.151775" y="127.9664" style="fill: #ff8c00; stroke: #ff8c00"/>
     <use xlink:href="#ma30bee058f" x="109.472391" y="130.696637" style="fill: #ff8c00; stroke: #ff8c00"/>
     <use xlink:href="#ma30bee058f" x="111.793008" y="131.265397" style="fill: #ff8c00; stroke: #ff8c00"/>
     <use xlink:href="#ma30bee058f" x="114.113624" y="130.316609" style="fill: #ff8c00; stroke: #ff8c00"/>
     <use xlink:href="#ma30bee058f" x="116.434241" y="129.926908" style="fill: #ff8c00; stroke: #ff8c00"/>
     <use xlink:href="#ma30bee058f" x="118.754858" y="130.340725" style="fill: #ff8c00; stroke: #ff8c00"/>
     <use xlink:href="#ma30bee058f" x="121.075474" y="132.394052" style="fill: #ff8c00; stroke: #ff8c00"/>
     <use xlink:href="#ma30bee058f" x="123.396091" y="132.371457" style="fill: #ff8c00; stroke: #ff8c00"/>
     <use xlink:href="#ma30bee058f" x="125.716707" y="117.396653" style="fill: #ff8c00; stroke: #ff8c00"/>
     <use xlink:href="#ma30bee058f" x="128.037324" y="132.550704" style="fill: #ff8c00; stroke: #ff8c00"/>
     <use xlink:href="#ma30bee058f" x="130.357941" y="132.120431" style="fill: #ff8c00; stroke: #ff8c00"/>
     <use xlink:href="#ma30bee058f" x="132.678557" y="132.489631" style="fill: #ff8c00; stroke: #ff8c00"/>
     <use xlink:href="#ma30bee058f" x="134.999174" y="131.897031" style="fill: #ff8c00; stroke: #ff8c00"/>
     <use xlink:href="#ma30bee058f" x="137.31979" y="130.149543" style="fill: #ff8c00; stroke: #ff8c00"/>
     <use xlink:href="#ma30bee058f" x="139.640407" y="131.771292" style="fill: #ff8c00; stroke: #ff8c00"/>
     <use xlink:href="#ma30bee058f" x="141.961024" y="130.923267" style="fill: #ff8c00; stroke: #ff8c00"/>
     <use xlink:href="#ma30bee058f" x="144.28164" y="131.166915" style="fill: #ff8c00; stroke: #ff8c00"/>
     <use xlink:href="#ma30bee058f" x="146.602257" y="131.117224" style="fill: #ff8c00; stroke: #ff8c00"/>
     <use xlink:href="#ma30bee058f" x="148.922874" y="131.178583" style="fill: #ff8c00; stroke: #ff8c00"/>
     <use xlink:href="#ma30bee058f" x="151.24349" y="131.339181" style="fill: #ff8c00; stroke: #ff8c00"/>
     <use xlink:href="#ma30bee058f" x="153.564107" y="131.831664" style="fill: #ff8c00; stroke: #ff8c00"/>
     <use xlink:href="#ma30bee058f" x="155.884723" y="131.462968" style="fill: #ff8c00; stroke: #ff8c00"/>
     <use xlink:href="#ma30bee058f" x="158.20534" y="132.230316" style="fill: #ff8c00; stroke: #ff8c00"/>
     <use xlink:href="#ma30bee058f" x="160.525957" y="132.923377" style="fill: #ff8c00; stroke: #ff8c00"/>
     <use xlink:href="#ma30bee058f" x="162.846573" y="132.947979" style="fill: #ff8c00; stroke: #ff8c00"/>
     <use xlink:href="#ma30bee058f" x="165.16719" y="132.932795" style="fill: #ff8c00; stroke: #ff8c00"/>
     <use xlink:href="#ma30bee058f" x="167.487806" y="133.045121" style="fill: #ff8c00; stroke: #ff8c00"/>
     <use xlink:href="#ma30bee058f" x="169.808423" y="133.084677" style="fill: #ff8c00; stroke: #ff8c00"/>
     <use xlink:href="#ma30bee058f" x="172.12904" y="133.140963" style="fill: #ff8c00; stroke: #ff8c00"/>
     <use xlink:href="#ma30bee058f" x="174.449656" y="133.662921" style="fill: #ff8c00; stroke: #ff8c00"/>
     <use xlink:href="#ma30bee058f" x="176.770273" y="134.109307" style="fill: #ff8c00; stroke: #ff8c00"/>
     <use xlink:href="#ma30bee058f" x="179.09089" y="134.40651" style="fill: #ff8c00; stroke: #ff8c00"/>
     <use xlink:href="#ma30bee058f" x="181.411506" y="134.763474" style="fill: #ff8c00; stroke: #ff8c00"/>
     <use xlink:href="#ma30bee058f" x="183.732123" y="134.724175" style="fill: #ff8c00; stroke: #ff8c00"/>
     <use xlink:href="#ma30bee058f" x="186.052739" y="134.889976" style="fill: #ff8c00; stroke: #ff8c00"/>
     <use xlink:href="#ma30bee058f" x="188.373356" y="135.85876" style="fill: #ff8c00; stroke: #ff8c00"/>
     <use xlink:href="#ma30bee058f" x="190.693973" y="135.976118" style="fill: #ff8c00; stroke: #ff8c00"/>
     <use xlink:href="#ma30bee058f" x="193.014589" y="133.601443" style="fill: #ff8c00; stroke: #ff8c00"/>
     <use xlink:href="#ma30bee058f" x="195.335206" y="127.41283" style="fill: #ff8c00; stroke: #ff8c00"/>
     <use xlink:href="#ma30bee058f" x="197.655822" y="131.858677" style="fill: #ff8c00; stroke: #ff8c00"/>
     <use xlink:href="#ma30bee058f" x="199.976439" y="134.604988" style="fill: #ff8c00; stroke: #ff8c00"/>
     <use xlink:href="#ma30bee058f" x="202.297056" y="134.521169" style="fill: #ff8c00; stroke: #ff8c00"/>
     <use xlink:href="#ma30bee058f" x="204.617672" y="104.274844" style="fill: #ff8c00; stroke: #ff8c00"/>
     <use xlink:href="#ma30bee058f" x="206.938289" y="102.889198" style="fill: #ff8c00; stroke: #ff8c00"/>
     <use xlink:href="#ma30bee058f" x="209.258905" y="135.326659" style="fill: #ff8c00; stroke: #ff8c00"/>
     <use xlink:href="#ma30bee058f" x="211.579522" y="127.98019" style="fill: #ff8c00; stroke: #ff8c00"/>
     <use xlink:href="#ma30bee058f" x="213.900139" y="73.680824" style="fill: #ff8c00; stroke: #ff8c00"/>
     <use xlink:href="#ma30bee058f" x="216.220755" y="112.402939" style="fill: #ff8c00; stroke: #ff8c00"/>
     <use xlink:href="#ma30bee058f" x="218.541372" y="136.932442" style="fill: #ff8c00; stroke: #ff8c00"/>
     <use xlink:href="#ma30bee058f" x="220.861989" y="137.467879" style="fill: #ff8c00; stroke: #ff8c00"/>
     <use xlink:href="#ma30bee058f" x="223.182605" y="137.929455" style="fill: #ff8c00; stroke: #ff8c00"/>
     <use xlink:href="#ma30bee058f" x="225.503222" y="138.313221" style="fill: #ff8c00; stroke: #ff8c00"/>
     <use xlink:href="#ma30bee058f" x="227.823838" y="137.725849" style="fill: #ff8c00; stroke: #ff8c00"/>
     <use xlink:href="#ma30bee058f" x="230.144455" y="136.696035" style="fill: #ff8c00; stroke: #ff8c00"/>
     <use xlink:href="#ma30bee058f" x="232.465072" y="136.749389" style="fill: #ff8c00; stroke: #ff8c00"/>
     <use xlink:href="#ma30bee058f" x="234.785688" y="137.384078" style="fill: #ff8c00; stroke: #ff8c00"/>
     <use xlink:href="#ma30bee058f" x="237.106305" y="137.151895" style="fill: #ff8c00; stroke: #ff8c00"/>
     <use xlink:href="#ma30bee058f" x="239.426921" y="134.674595" style="fill: #ff8c00; stroke: #ff8c00"/>
     <use xlink:href="#ma30bee058f" x="241.747538" y="136.188033" style="fill: #ff8c00; stroke: #ff8c00"/>
     <use xlink:href="#ma30bee058f" x="244.068155" y="136.817808" style="fill: #ff8c00; stroke: #ff8c00"/>
     <use xlink:href="#ma30bee058f" x="246.388771" y="137.64474" style="fill: #ff8c00; stroke: #ff8c00"/>
     <use xlink:href="#ma30bee058f" x="248.709388" y="137.387662" style="fill: #ff8c00; stroke: #ff8c00"/>
     <use xlink:href="#ma30bee058f" x="251.030005" y="137.425595" style="fill: #ff8c00; stroke: #ff8c00"/>
     <use xlink:href="#ma30bee058f" x="253.350621" y="137.32546" style="fill: #ff8c00; stroke: #ff8c00"/>
     <use xlink:href="#ma30bee058f" x="255.671238" y="136.259745" style="fill: #ff8c00; stroke: #ff8c00"/>
     <use xlink:href="#ma30bee058f" x="257.991854" y="131.526799" style="fill: #ff8c00; stroke: #ff8c00"/>
     <use xlink:href="#ma30bee058f" x="260.312471" y="126.121464" style="fill: #ff8c00; stroke: #ff8c00"/>
     <use xlink:href="#ma30bee058f" x="262.633088" y="119.642503" style="fill: #ff8c00; stroke: #ff8c00"/>
     <use xlink:href="#ma30bee058f" x="264.953704" y="127.90291" style="fill: #ff8c00; stroke: #ff8c00"/>
     <use xlink:href="#ma30bee058f" x="267.274321" y="131.741349" style="fill: #ff8c00; stroke: #ff8c00"/>
     <use xlink:href="#ma30bee058f" x="269.594937" y="115.866834" style="fill: #ff8c00; stroke: #ff8c00"/>
     <use xlink:href="#ma30bee058f" x="271.915554" y="130.284948" style="fill: #ff8c00; stroke: #ff8c00"/>
     <use xlink:href="#ma30bee058f" x="274.236171" y="132.994204" style="fill: #ff8c00; stroke: #ff8c00"/>
     <use xlink:href="#ma30bee058f" x="276.556787" y="134.618173" style="fill: #ff8c00; stroke: #ff8c00"/>
     <use xlink:href="#ma30bee058f" x="278.877404" y="135.516684" style="fill: #ff8c00; stroke: #ff8c00"/>
     <use xlink:href="#ma30bee058f" x="281.19802" y="137.079363" style="fill: #ff8c00; stroke: #ff8c00"/>
     <use xlink:href="#ma30bee058f" x="283.518637" y="138.726641" style="fill: #ff8c00; stroke: #ff8c00"/>
     <use xlink:href="#ma30bee058f" x="285.839254" y="121.508131" style="fill: #ff8c00; stroke: #ff8c00"/>
     <use xlink:href="#ma30bee058f" x="288.15987" y="129.244404" style="fill: #ff8c00; stroke: #ff8c00"/>
     <use xlink:href="#ma30bee058f" x="290.480487" y="136.607654" style="fill: #ff8c00; stroke: #ff8c00"/>
     <use xlink:href="#ma30bee058f" x="292.801104" y="138.366544" style="fill: #ff8c00; stroke: #ff8c00"/>
     <use xlink:href="#ma30bee058f" x="295.12172" y="136.873177" style="fill: #ff8c00; stroke: #ff8c00"/>
     <use xlink:href="#ma30bee058f" x="297.442337" y="137.424608" style="fill: #ff8c00; stroke: #ff8c00"/>
     <use xlink:href="#ma30bee058f" x="299.762953" y="137.090321" style="fill: #ff8c00; stroke: #ff8c00"/>
     <use xlink:href="#ma30bee058f" x="302.08357" y="135.966096" style="fill: #ff8c00; stroke: #ff8c00"/>
     <use xlink:href="#ma30bee058f" x="304.404187" y="138.592787" style="fill: #ff8c00; stroke: #ff8c00"/>
     <use xlink:href="#ma30bee058f" x="306.724803" y="126.467075" style="fill: #ff8c00; stroke: #ff8c00"/>
     <use xlink:href="#ma30bee058f" x="309.04542" y="123.84573" style="fill: #ff8c00; stroke: #ff8c00"/>
     <use xlink:href="#ma30bee058f" x="311.366036" y="134.70235" style="fill: #ff8c00; stroke: #ff8c00"/>
     <use xlink:href="#ma30bee058f" x="313.686653" y="133.857923" style="fill: #ff8c00; stroke: #ff8c00"/>
     <use xlink:href="#ma30bee058f" x="316.00727" y="134.739912" style="fill: #ff8c00; stroke: #ff8c00"/>
     <use xlink:href="#ma30bee058f" x="318.327886" y="135.910043" style="fill: #ff8c00; stroke: #ff8c00"/>
     <use xlink:href="#ma30bee058f" x="320.648503" y="137.25867" style="fill: #ff8c00; stroke: #ff8c00"/>
     <use xlink:href="#ma30bee058f" x="322.96912" y="136.608611" style="fill: #ff8c00; stroke: #ff8c00"/>
     <use xlink:href="#ma30bee058f" x="325.289736" y="137.963532" style="fill: #ff8c00; stroke: #ff8c00"/>
     <use xlink:href="#ma30bee058f" x="327.610353" y="110.994022" style="fill: #ff8c00; stroke: #ff8c00"/>
     <use xlink:href="#ma30bee058f" x="329.930969" y="111.036893" style="fill: #ff8c00; stroke: #ff8c00"/>
     <use xlink:href="#ma30bee058f" x="332.251586" y="133.755597" style="fill: #ff8c00; stroke: #ff8c00"/>
     <use xlink:href="#ma30bee058f" x="334.572203" y="136.184053" style="fill: #ff8c00; stroke: #ff8c00"/>
     <use xlink:href="#ma30bee058f" x="336.892819" y="134.92974" style="fill: #ff8c00; stroke: #ff8c00"/>
     <use xlink:href="#ma30bee058f" x="339.213436" y="140.029463" style="fill: #ff8c00; stroke: #ff8c00"/>
     <use xlink:href="#ma30bee058f" x="341.534052" y="137.392698" style="fill: #ff8c00; stroke: #ff8c00"/>
     <use xlink:href="#ma30bee058f" x="343.854669" y="137.474917" style="fill: #ff8c00; stroke: #ff8c00"/>
     <use xlink:href="#ma30bee058f" x="346.175286" y="139.062671" style="fill: #ff8c00; stroke: #ff8c00"/>
     <use xlink:href="#ma30bee058f" x="348.495902" y="136.208645" style="fill: #ff8c00; stroke: #ff8c00"/>
     <use xlink:href="#ma30bee058f" x="350.816519" y="136.745202" style="fill: #ff8c00; stroke: #ff8c00"/>
     <use xlink:href="#ma30bee058f" x="353.137135" y="135.423956" style="fill: #ff8c00; stroke: #ff8c00"/>
     <use xlink:href="#ma30bee058f" x="355.457752" y="137.858993" style="fill: #ff8c00; stroke: #ff8c00"/>
     <use xlink:href="#ma30bee058f" x="357.778369" y="139.592003" style="fill: #ff8c00; stroke: #ff8c00"/>
     <use xlink:href="#ma30bee058f" x="360.098985" y="141.584509" style="fill: #ff8c00; stroke: #ff8c00"/>
    </g>
   </g>
   <g id="line2d_20">
    <path d="M 76.983759 54.225123 
L 79.304375 54.399526 
L 83.945608 75.651732 
L 86.266225 42.432689 
L 88.586842 79.282736 
L 90.907458 66.217307 
L 93.228075 57.548448 
L 95.548691 49.999595 
L 97.869308 58.822471 
L 100.189925 45.675179 
L 102.510541 85.892274 
L 104.831158 95.668881 
L 107.151775 103.249747 
L 109.472391 105.717632 
L 111.793008 105.818318 
L 114.113624 109.738159 
L 116.434241 109.241066 
L 118.754858 113.723324 
L 121.075474 113.41548 
L 123.396091 113.928577 
L 125.716707 64.207371 
L 128.037324 104.916204 
L 130.357941 111.029281 
L 132.678557 114.157832 
L 134.999174 114.550054 
L 137.31979 115.22373 
L 139.640407 120.227158 
L 141.961024 117.478582 
L 144.28164 117.931906 
L 146.602257 116.801972 
L 148.922874 116.642408 
L 151.24349 118.290001 
L 153.564107 119.121063 
L 155.884723 118.279832 
L 158.20534 118.814576 
L 160.525957 118.401722 
L 162.846573 119.541518 
L 165.16719 119.06047 
L 167.487806 119.866526 
L 169.808423 120.402404 
L 172.12904 118.984226 
L 174.449656 119.936561 
L 176.770273 120.653145 
L 179.09089 122.119902 
L 181.411506 123.474402 
L 183.732123 123.888355 
L 186.052739 123.976088 
L 188.373356 125.379051 
L 190.693973 126.287596 
L 193.014589 127.332073 
L 195.335206 103.775843 
L 197.655822 119.691996 
L 199.976439 123.317271 
L 202.297056 122.372825 
L 204.617672 99.438431 
L 206.938289 106.880821 
L 209.258905 108.556093 
L 211.579522 61.525124 
L 213.900139 62.130834 
L 216.220755 77.851368 
L 218.541372 120.27179 
L 220.861989 127.878374 
L 223.182605 128.090253 
L 225.503222 129.379581 
L 227.823838 129.770252 
L 230.144455 129.165192 
L 232.465072 129.520018 
L 234.785688 130.717345 
L 237.106305 130.156775 
L 239.426921 126.389003 
L 241.747538 128.115148 
L 244.068155 130.288462 
L 246.388771 132.778465 
L 248.709388 133.780945 
L 251.030005 134.54728 
L 253.350621 133.049066 
L 255.671238 133.122116 
L 257.991854 127.897855 
L 260.312471 117.698028 
L 262.633088 86.417212 
L 264.953704 100.711449 
L 267.274321 127.938479 
L 269.594937 93.916381 
L 271.915554 130.167173 
L 274.236171 133.816126 
L 276.556787 136.599418 
L 278.877404 137.740852 
L 281.19802 138.005579 
L 283.518637 136.654088 
L 285.839254 116.809254 
L 288.15987 122.402908 
L 290.480487 133.376806 
L 292.801104 135.623771 
L 295.12172 137.697879 
L 297.442337 137.462264 
L 299.762953 138.6939 
L 302.08357 138.905816 
L 304.404187 139.833081 
L 306.724803 128.125774 
L 309.04542 123.861006 
L 311.366036 133.281898 
L 313.686653 134.507972 
L 316.00727 138.232254 
L 318.327886 137.240144 
L 320.648503 136.924712 
L 322.96912 139.606382 
L 325.289736 141.780013 
L 327.610353 123.957649 
L 329.930969 122.872722 
L 332.251586 138.941213 
L 334.572203 138.129985 
L 336.892819 138.703703 
L 339.213436 140.112067 
L 341.534052 140.836273 
L 343.854669 140.739417 
L 346.175286 140.235781 
L 348.495902 131.084593 
L 350.816519 133.798576 
L 353.137135 134.773637 
L 355.457752 139.467077 
L 357.778369 142.384956 
L 360.098985 141.788882 
" clip-path="url(#p5a264831ad)" style="fill: none; stroke: #9400d3; stroke-linecap: square"/>
    <defs>
     <path id="mc34187f96a" d="M 0 1 
C 0.265203 1 0.51958 0.894634 0.707107 0.707107 
C 0.894634 0.51958 1 0.265203 1 0 
C 1 -0.265203 0.894634 -0.51958 0.707107 -0.707107 
C 0.51958 -0.894634 0.265203 -1 0 -1 
C -0.265203 -1 -0.51958 -0.894634 -0.707107 -0.707107 
C -0.894634 -0.51958 -1 -0.265203 -1 0 
C -1 0.265203 -0.894634 0.51958 -0.707107 0.707107 
C -0.51958 0.894634 -0.265203 1 0 1 
z
" style="stroke: #9400d3"/>
    </defs>
    <g clip-path="url(#p5a264831ad)">
     <use xlink:href="#mc34187f96a" x="76.983759" y="54.225123" style="fill: #9400d3; stroke: #9400d3"/>
     <use xlink:href="#mc34187f96a" x="79.304375" y="54.399526" style="fill: #9400d3; stroke: #9400d3"/>
     <use xlink:href="#mc34187f96a" x="83.945608" y="75.651732" style="fill: #9400d3; stroke: #9400d3"/>
     <use xlink:href="#mc34187f96a" x="86.266225" y="42.432689" style="fill: #9400d3; stroke: #9400d3"/>
     <use xlink:href="#mc34187f96a" x="88.586842" y="79.282736" style="fill: #9400d3; stroke: #9400d3"/>
     <use xlink:href="#mc34187f96a" x="90.907458" y="66.217307" style="fill: #9400d3; stroke: #9400d3"/>
     <use xlink:href="#mc34187f96a" x="93.228075" y="57.548448" style="fill: #9400d3; stroke: #9400d3"/>
     <use xlink:href="#mc34187f96a" x="95.548691" y="49.999595" style="fill: #9400d3; stroke: #9400d3"/>
     <use xlink:href="#mc34187f96a" x="97.869308" y="58.822471" style="fill: #9400d3; stroke: #9400d3"/>
     <use xlink:href="#mc34187f96a" x="100.189925" y="45.675179" style="fill: #9400d3; stroke: #9400d3"/>
     <use xlink:href="#mc34187f96a" x="102.510541" y="85.892274" style="fill: #9400d3; stroke: #9400d3"/>
     <use xlink:href="#mc34187f96a" x="104.831158" y="95.668881" style="fill: #9400d3; stroke: #9400d3"/>
     <use xlink:href="#mc34187f96a" x="107.151775" y="103.249747" style="fill: #9400d3; stroke: #9400d3"/>
     <use xlink:href="#mc34187f96a" x="109.472391" y="105.717632" style="fill: #9400d3; stroke: #9400d3"/>
     <use xlink:href="#mc34187f96a" x="111.793008" y="105.818318" style="fill: #9400d3; stroke: #9400d3"/>
     <use xlink:href="#mc34187f96a" x="114.113624" y="109.738159" style="fill: #9400d3; stroke: #9400d3"/>
     <use xlink:href="#mc34187f96a" x="116.434241" y="109.241066" style="fill: #9400d3; stroke: #9400d3"/>
     <use xlink:href="#mc34187f96a" x="118.754858" y="113.723324" style="fill: #9400d3; stroke: #9400d3"/>
     <use xlink:href="#mc34187f96a" x="121.075474" y="113.41548" style="fill: #9400d3; stroke: #9400d3"/>
     <use xlink:href="#mc34187f96a" x="123.396091" y="113.928577" style="fill: #9400d3; stroke: #9400d3"/>
     <use xlink:href="#mc34187f96a" x="125.716707" y="64.207371" style="fill: #9400d3; stroke: #9400d3"/>
     <use xlink:href="#mc34187f96a" x="128.037324" y="104.916204" style="fill: #9400d3; stroke: #9400d3"/>
     <use xlink:href="#mc34187f96a" x="130.357941" y="111.029281" style="fill: #9400d3; stroke: #9400d3"/>
     <use xlink:href="#mc34187f96a" x="132.678557" y="114.157832" style="fill: #9400d3; stroke: #9400d3"/>
     <use xlink:href="#mc34187f96a" x="134.999174" y="114.550054" style="fill: #9400d3; stroke: #9400d3"/>
     <use xlink:href="#mc34187f96a" x="137.31979" y="115.22373" style="fill: #9400d3; stroke: #9400d3"/>
     <use xlink:href="#mc34187f96a" x="139.640407" y="120.227158" style="fill: #9400d3; stroke: #9400d3"/>
     <use xlink:href="#mc34187f96a" x="141.961024" y="117.478582" style="fill: #9400d3; stroke: #9400d3"/>
     <use xlink:href="#mc34187f96a" x="144.28164" y="117.931906" style="fill: #9400d3; stroke: #9400d3"/>
     <use xlink:href="#mc34187f96a" x="146.602257" y="116.801972" style="fill: #9400d3; stroke: #9400d3"/>
     <use xlink:href="#mc34187f96a" x="148.922874" y="116.642408" style="fill: #9400d3; stroke: #9400d3"/>
     <use xlink:href="#mc34187f96a" x="151.24349" y="118.290001" style="fill: #9400d3; stroke: #9400d3"/>
     <use xlink:href="#mc34187f96a" x="153.564107" y="119.121063" style="fill: #9400d3; stroke: #9400d3"/>
     <use xlink:href="#mc34187f96a" x="155.884723" y="118.279832" style="fill: #9400d3; stroke: #9400d3"/>
     <use xlink:href="#mc34187f96a" x="158.20534" y="118.814576" style="fill: #9400d3; stroke: #9400d3"/>
     <use xlink:href="#mc34187f96a" x="160.525957" y="118.401722" style="fill: #9400d3; stroke: #9400d3"/>
     <use xlink:href="#mc34187f96a" x="162.846573" y="119.541518" style="fill: #9400d3; stroke: #9400d3"/>
     <use xlink:href="#mc34187f96a" x="165.16719" y="119.06047" style="fill: #9400d3; stroke: #9400d3"/>
     <use xlink:href="#mc34187f96a" x="167.487806" y="119.866526" style="fill: #9400d3; stroke: #9400d3"/>
     <use xlink:href="#mc34187f96a" x="169.808423" y="120.402404" style="fill: #9400d3; stroke: #9400d3"/>
     <use xlink:href="#mc34187f96a" x="172.12904" y="118.984226" style="fill: #9400d3; stroke: #9400d3"/>
     <use xlink:href="#mc34187f96a" x="174.449656" y="119.936561" style="fill: #9400d3; stroke: #9400d3"/>
     <use xlink:href="#mc34187f96a" x="176.770273" y="120.653145" style="fill: #9400d3; stroke: #9400d3"/>
     <use xlink:href="#mc34187f96a" x="179.09089" y="122.119902" style="fill: #9400d3; stroke: #9400d3"/>
     <use xlink:href="#mc34187f96a" x="181.411506" y="123.474402" style="fill: #9400d3; stroke: #9400d3"/>
     <use xlink:href="#mc34187f96a" x="183.732123" y="123.888355" style="fill: #9400d3; stroke: #9400d3"/>
     <use xlink:href="#mc34187f96a" x="186.052739" y="123.976088" style="fill: #9400d3; stroke: #9400d3"/>
     <use xlink:href="#mc34187f96a" x="188.373356" y="125.379051" style="fill: #9400d3; stroke: #9400d3"/>
     <use xlink:href="#mc34187f96a" x="190.693973" y="126.287596" style="fill: #9400d3; stroke: #9400d3"/>
     <use xlink:href="#mc34187f96a" x="193.014589" y="127.332073" style="fill: #9400d3; stroke: #9400d3"/>
     <use xlink:href="#mc34187f96a" x="195.335206" y="103.775843" style="fill: #9400d3; stroke: #9400d3"/>
     <use xlink:href="#mc34187f96a" x="197.655822" y="119.691996" style="fill: #9400d3; stroke: #9400d3"/>
     <use xlink:href="#mc34187f96a" x="199.976439" y="123.317271" style="fill: #9400d3; stroke: #9400d3"/>
     <use xlink:href="#mc34187f96a" x="202.297056" y="122.372825" style="fill: #9400d3; stroke: #9400d3"/>
     <use xlink:href="#mc34187f96a" x="204.617672" y="99.438431" style="fill: #9400d3; stroke: #9400d3"/>
     <use xlink:href="#mc34187f96a" x="206.938289" y="106.880821" style="fill: #9400d3; stroke: #9400d3"/>
     <use xlink:href="#mc34187f96a" x="209.258905" y="108.556093" style="fill: #9400d3; stroke: #9400d3"/>
     <use xlink:href="#mc34187f96a" x="211.579522" y="61.525124" style="fill: #9400d3; stroke: #9400d3"/>
     <use xlink:href="#mc34187f96a" x="213.900139" y="62.130834" style="fill: #9400d3; stroke: #9400d3"/>
     <use xlink:href="#mc34187f96a" x="216.220755" y="77.851368" style="fill: #9400d3; stroke: #9400d3"/>
     <use xlink:href="#mc34187f96a" x="218.541372" y="120.27179" style="fill: #9400d3; stroke: #9400d3"/>
     <use xlink:href="#mc34187f96a" x="220.861989" y="127.878374" style="fill: #9400d3; stroke: #9400d3"/>
     <use xlink:href="#mc34187f96a" x="223.182605" y="128.090253" style="fill: #9400d3; stroke: #9400d3"/>
     <use xlink:href="#mc34187f96a" x="225.503222" y="129.379581" style="fill: #9400d3; stroke: #9400d3"/>
     <use xlink:href="#mc34187f96a" x="227.823838" y="129.770252" style="fill: #9400d3; stroke: #9400d3"/>
     <use xlink:href="#mc34187f96a" x="230.144455" y="129.165192" style="fill: #9400d3; stroke: #9400d3"/>
     <use xlink:href="#mc34187f96a" x="232.465072" y="129.520018" style="fill: #9400d3; stroke: #9400d3"/>
     <use xlink:href="#mc34187f96a" x="234.785688" y="130.717345" style="fill: #9400d3; stroke: #9400d3"/>
     <use xlink:href="#mc34187f96a" x="237.106305" y="130.156775" style="fill: #9400d3; stroke: #9400d3"/>
     <use xlink:href="#mc34187f96a" x="239.426921" y="126.389003" style="fill: #9400d3; stroke: #9400d3"/>
     <use xlink:href="#mc34187f96a" x="241.747538" y="128.115148" style="fill: #9400d3; stroke: #9400d3"/>
     <use xlink:href="#mc34187f96a" x="244.068155" y="130.288462" style="fill: #9400d3; stroke: #9400d3"/>
     <use xlink:href="#mc34187f96a" x="246.388771" y="132.778465" style="fill: #9400d3; stroke: #9400d3"/>
     <use xlink:href="#mc34187f96a" x="248.709388" y="133.780945" style="fill: #9400d3; stroke: #9400d3"/>
     <use xlink:href="#mc34187f96a" x="251.030005" y="134.54728" style="fill: #9400d3; stroke: #9400d3"/>
     <use xlink:href="#mc34187f96a" x="253.350621" y="133.049066" style="fill: #9400d3; stroke: #9400d3"/>
     <use xlink:href="#mc34187f96a" x="255.671238" y="133.122116" style="fill: #9400d3; stroke: #9400d3"/>
     <use xlink:href="#mc34187f96a" x="257.991854" y="127.897855" style="fill: #9400d3; stroke: #9400d3"/>
     <use xlink:href="#mc34187f96a" x="260.312471" y="117.698028" style="fill: #9400d3; stroke: #9400d3"/>
     <use xlink:href="#mc34187f96a" x="262.633088" y="86.417212" style="fill: #9400d3; stroke: #9400d3"/>
     <use xlink:href="#mc34187f96a" x="264.953704" y="100.711449" style="fill: #9400d3; stroke: #9400d3"/>
     <use xlink:href="#mc34187f96a" x="267.274321" y="127.938479" style="fill: #9400d3; stroke: #9400d3"/>
     <use xlink:href="#mc34187f96a" x="269.594937" y="93.916381" style="fill: #9400d3; stroke: #9400d3"/>
     <use xlink:href="#mc34187f96a" x="271.915554" y="130.167173" style="fill: #9400d3; stroke: #9400d3"/>
     <use xlink:href="#mc34187f96a" x="274.236171" y="133.816126" style="fill: #9400d3; stroke: #9400d3"/>
     <use xlink:href="#mc34187f96a" x="276.556787" y="136.599418" style="fill: #9400d3; stroke: #9400d3"/>
     <use xlink:href="#mc34187f96a" x="278.877404" y="137.740852" style="fill: #9400d3; stroke: #9400d3"/>
     <use xlink:href="#mc34187f96a" x="281.19802" y="138.005579" style="fill: #9400d3; stroke: #9400d3"/>
     <use xlink:href="#mc34187f96a" x="283.518637" y="136.654088" style="fill: #9400d3; stroke: #9400d3"/>
     <use xlink:href="#mc34187f96a" x="285.839254" y="116.809254" style="fill: #9400d3; stroke: #9400d3"/>
     <use xlink:href="#mc34187f96a" x="288.15987" y="122.402908" style="fill: #9400d3; stroke: #9400d3"/>
     <use xlink:href="#mc34187f96a" x="290.480487" y="133.376806" style="fill: #9400d3; stroke: #9400d3"/>
     <use xlink:href="#mc34187f96a" x="292.801104" y="135.623771" style="fill: #9400d3; stroke: #9400d3"/>
     <use xlink:href="#mc34187f96a" x="295.12172" y="137.697879" style="fill: #9400d3; stroke: #9400d3"/>
     <use xlink:href="#mc34187f96a" x="297.442337" y="137.462264" style="fill: #9400d3; stroke: #9400d3"/>
     <use xlink:href="#mc34187f96a" x="299.762953" y="138.6939" style="fill: #9400d3; stroke: #9400d3"/>
     <use xlink:href="#mc34187f96a" x="302.08357" y="138.905816" style="fill: #9400d3; stroke: #9400d3"/>
     <use xlink:href="#mc34187f96a" x="304.404187" y="139.833081" style="fill: #9400d3; stroke: #9400d3"/>
     <use xlink:href="#mc34187f96a" x="306.724803" y="128.125774" style="fill: #9400d3; stroke: #9400d3"/>
     <use xlink:href="#mc34187f96a" x="309.04542" y="123.861006" style="fill: #9400d3; stroke: #9400d3"/>
     <use xlink:href="#mc34187f96a" x="311.366036" y="133.281898" style="fill: #9400d3; stroke: #9400d3"/>
     <use xlink:href="#mc34187f96a" x="313.686653" y="134.507972" style="fill: #9400d3; stroke: #9400d3"/>
     <use xlink:href="#mc34187f96a" x="316.00727" y="138.232254" style="fill: #9400d3; stroke: #9400d3"/>
     <use xlink:href="#mc34187f96a" x="318.327886" y="137.240144" style="fill: #9400d3; stroke: #9400d3"/>
     <use xlink:href="#mc34187f96a" x="320.648503" y="136.924712" style="fill: #9400d3; stroke: #9400d3"/>
     <use xlink:href="#mc34187f96a" x="322.96912" y="139.606382" style="fill: #9400d3; stroke: #9400d3"/>
     <use xlink:href="#mc34187f96a" x="325.289736" y="141.780013" style="fill: #9400d3; stroke: #9400d3"/>
     <use xlink:href="#mc34187f96a" x="327.610353" y="123.957649" style="fill: #9400d3; stroke: #9400d3"/>
     <use xlink:href="#mc34187f96a" x="329.930969" y="122.872722" style="fill: #9400d3; stroke: #9400d3"/>
     <use xlink:href="#mc34187f96a" x="332.251586" y="138.941213" style="fill: #9400d3; stroke: #9400d3"/>
     <use xlink:href="#mc34187f96a" x="334.572203" y="138.129985" style="fill: #9400d3; stroke: #9400d3"/>
     <use xlink:href="#mc34187f96a" x="336.892819" y="138.703703" style="fill: #9400d3; stroke: #9400d3"/>
     <use xlink:href="#mc34187f96a" x="339.213436" y="140.112067" style="fill: #9400d3; stroke: #9400d3"/>
     <use xlink:href="#mc34187f96a" x="341.534052" y="140.836273" style="fill: #9400d3; stroke: #9400d3"/>
     <use xlink:href="#mc34187f96a" x="343.854669" y="140.739417" style="fill: #9400d3; stroke: #9400d3"/>
     <use xlink:href="#mc34187f96a" x="346.175286" y="140.235781" style="fill: #9400d3; stroke: #9400d3"/>
     <use xlink:href="#mc34187f96a" x="348.495902" y="131.084593" style="fill: #9400d3; stroke: #9400d3"/>
     <use xlink:href="#mc34187f96a" x="350.816519" y="133.798576" style="fill: #9400d3; stroke: #9400d3"/>
     <use xlink:href="#mc34187f96a" x="353.137135" y="134.773637" style="fill: #9400d3; stroke: #9400d3"/>
     <use xlink:href="#mc34187f96a" x="355.457752" y="139.467077" style="fill: #9400d3; stroke: #9400d3"/>
     <use xlink:href="#mc34187f96a" x="357.778369" y="142.384956" style="fill: #9400d3; stroke: #9400d3"/>
     <use xlink:href="#mc34187f96a" x="360.098985" y="141.788882" style="fill: #9400d3; stroke: #9400d3"/>
    </g>
   </g>
   <g id="patch_3">
    <path d="M 51.456976 151.770977 
L 51.456976 20.810347 
" style="fill: none; stroke: #000000; stroke-width: 0.8; stroke-linejoin: miter; stroke-linecap: square"/>
   </g>
   <g id="patch_4">
    <path d="M 380.984535 151.770977 
L 380.984535 20.810347 
" style="fill: none; stroke: #000000; stroke-width: 0.8; stroke-linejoin: miter; stroke-linecap: square"/>
   </g>
   <g id="patch_5">
    <path d="M 51.456976 151.770977 
L 380.984535 151.770977 
" style="fill: none; stroke: #000000; stroke-width: 0.8; stroke-linejoin: miter; stroke-linecap: square"/>
   </g>
   <g id="patch_6">
    <path d="M 51.456976 20.810347 
L 380.984535 20.810347 
" style="fill: none; stroke: #000000; stroke-width: 0.8; stroke-linejoin: miter; stroke-linecap: square"/>
   </g>
   <g id="text_11">
    <!-- 2024-2025 -->
    <g transform="translate(192.4764 14.810347) scale(0.11 -0.11)">
     <defs>
      <path id="CMSS17-2d" d="M 1664 1216 
L 1664 1587 
L 64 1587 
L 64 1216 
L 1664 1216 
z
" transform="scale(0.015625)"/>
      <path id="CMSS17-35" d="M 934 3814 
L 2502 3814 
L 2502 4224 
L 467 4224 
L 467 1830 
L 896 1830 
C 1011 2103 1248 2304 1555 2304 
C 1843 2304 2163 2044 2163 1299 
C 2163 502 1709 268 1376 268 
C 966 268 589 521 422 871 
L 218 508 
C 512 51 992 -128 1376 -128 
C 2118 -128 2701 508 2701 1286 
C 2701 2083 2182 2694 1562 2694 
C 1338 2694 1120 2617 934 2464 
L 934 3814 
z
" transform="scale(0.015625)"/>
     </defs>
     <use xlink:href="#CMSS17-32" transform="scale(0.996264)"/>
     <use xlink:href="#CMSS17-30" transform="translate(46.843624 0) scale(0.996264)"/>
     <use xlink:href="#CMSS17-32" transform="translate(93.687247 0) scale(0.996264)"/>
     <use xlink:href="#CMSS17-34" transform="translate(140.530871 0) scale(0.996264)"/>
     <use xlink:href="#CMSS17-2d" transform="translate(187.374494 0) scale(0.996264)"/>
     <use xlink:href="#CMSS17-32" transform="translate(218.603607 0) scale(0.996264)"/>
     <use xlink:href="#CMSS17-30" transform="translate(265.44723 0) scale(0.996264)"/>
     <use xlink:href="#CMSS17-32" transform="translate(312.290854 0) scale(0.996264)"/>
     <use xlink:href="#CMSS17-35" transform="translate(359.134477 0) scale(0.996264)"/>
    </g>
   </g>
   <g id="legend_1">
    <g id="patch_7">
     <path d="M 245.230332 63.859538 
L 372.584535 63.859538 
Q 374.984535 63.859538 374.984535 61.459538 
L 374.984535 29.210347 
Q 374.984535 26.810347 372.584535 26.810347 
L 245.230332 26.810347 
Q 242.830332 26.810347 242.830332 29.210347 
L 242.830332 61.459538 
Q 242.830332 63.859538 245.230332 63.859538 
z
" style="fill: #ffffff; opacity: 0.8; stroke: #cccccc; stroke-linejoin: miter"/>
    </g>
    <g id="line2d_21">
     <path d="M 247.630332 35.810347 
L 259.630332 35.810347 
L 271.630332 35.810347 
" style="fill: none; stroke: #ff8c00; stroke-linecap: square"/>
     <g>
      <use xlink:href="#ma30bee058f" x="259.630332" y="35.810347" style="fill: #ff8c00; stroke: #ff8c00"/>
     </g>
    </g>
    <g id="text_12">
     <!-- Erosion side -->
     <g transform="translate(281.230332 40.010347) scale(0.12 -0.12)">
      <defs>
       <path id="CMSS17-45" d="M 1958 435 
C 1446 435 1216 435 1101 428 
L 1101 2105 
L 3085 2105 
L 3085 2496 
L 1101 2496 
L 1101 3993 
L 1926 3993 
C 2003 3993 2080 3987 2157 3987 
L 3251 3987 
L 3251 4403 
L 563 4403 
L 563 0 
L 3334 0 
L 3334 441 
L 1958 435 
z
" transform="scale(0.015625)"/>
       <path id="CMSS17-73" d="M 2061 2623 
C 1683 2803 1389 2816 1197 2816 
C 742 2816 198 2655 198 2009 
C 198 1363 902 1222 1094 1183 
C 1389 1126 1715 1062 1715 742 
C 1715 339 1254 339 1171 339 
C 915 339 563 409 243 639 
L 166 211 
C 531 0 883 -64 1178 -64 
C 1965 -64 2163 416 2163 780 
C 2163 1094 1984 1305 1862 1401 
C 1651 1567 1574 1587 1050 1695 
C 960 1708 646 1779 646 2067 
C 646 2431 1050 2431 1139 2431 
C 1555 2431 1811 2303 1984 2207 
L 2061 2623 
z
" transform="scale(0.015625)"/>
       <path id="CMSS17-69" d="M 979 4224 
L 442 4224 
L 442 3686 
L 979 3686 
L 979 4224 
z
M 947 2752 
L 474 2752 
L 474 0 
L 947 0 
L 947 2752 
z
" transform="scale(0.015625)"/>
       <path id="CMSS17-64" d="M 2611 4416 
L 2138 4416 
L 2138 2495 
C 1939 2662 1613 2816 1254 2816 
C 672 2816 211 2179 211 1375 
C 211 572 666 -64 1235 -64 
C 1677 -64 1971 172 2125 307 
L 2125 -13 
L 2611 -13 
L 2611 4416 
z
M 2125 851 
C 2125 760 2125 663 1926 488 
C 1798 378 1645 326 1498 326 
C 1152 326 698 585 698 1369 
C 698 2185 1210 2425 1562 2425 
C 1798 2425 1990 2308 2125 2114 
L 2125 851 
z
" transform="scale(0.015625)"/>
      </defs>
      <use xlink:href="#CMSS17-45" transform="scale(0.996264)"/>
      <use xlink:href="#CMSS17-72" transform="translate(55.892013 0) scale(0.996264)"/>
      <use xlink:href="#CMSS17-6f" transform="translate(87.801786 0) scale(0.996264)"/>
      <use xlink:href="#CMSS17-73" transform="translate(134.645409 0) scale(0.996264)"/>
      <use xlink:href="#CMSS17-69" transform="translate(170.558951 0) scale(0.996264)"/>
      <use xlink:href="#CMSS17-6f" transform="translate(192.739674 0) scale(0.996264)"/>
      <use xlink:href="#CMSS17-6e" transform="translate(239.583298 0) scale(0.996264)"/>
      <use xlink:href="#CMSS17-73" transform="translate(319.017354 0) scale(0.996264)"/>
      <use xlink:href="#CMSS17-69" transform="translate(354.930896 0) scale(0.996264)"/>
      <use xlink:href="#CMSS17-64" transform="translate(377.111619 0) scale(0.996264)"/>
      <use xlink:href="#CMSS17-65" transform="translate(425.316562 0) scale(0.996264)"/>
     </g>
    </g>
    <g id="line2d_22">
     <path d="M 247.630332 52.534942 
L 259.630332 52.534942 
L 271.630332 52.534942 
" style="fill: none; stroke: #9400d3; stroke-linecap: square"/>
     <g>
      <use xlink:href="#mc34187f96a" x="259.630332" y="52.534942" style="fill: #9400d3; stroke: #9400d3"/>
     </g>
    </g>
    <g id="text_13">
     <!-- Accumulation side -->
     <g transform="translate(281.230332 56.734942) scale(0.12 -0.12)">
      <defs>
       <path id="CMSS17-75" d="M 2618 2752 
L 2131 2752 
L 2131 976 
C 2131 500 1786 307 1421 307 
C 998 307 960 448 960 712 
L 960 2752 
L 474 2752 
L 474 680 
C 474 179 646 -64 1088 -64 
C 1306 -64 1798 -13 2144 307 
L 2144 -13 
L 2618 -13 
L 2618 2752 
z
" transform="scale(0.015625)"/>
       <path id="CMSS17-6c" d="M 947 4416 
L 474 4416 
L 474 0 
L 947 0 
L 947 4416 
z
" transform="scale(0.015625)"/>
       <path id="CMSS17-74" d="M 1069 2380 
L 1901 2380 
L 1901 2752 
L 1069 2752 
L 1069 3520 
L 614 3520 
L 614 2752 
L 109 2752 
L 109 2380 
L 602 2380 
L 602 751 
C 602 384 685 -64 1107 -64 
C 1427 -64 1722 25 2003 172 
L 1901 551 
C 1747 416 1562 339 1363 339 
C 1082 339 1069 699 1069 860 
L 1069 2380 
z
" transform="scale(0.015625)"/>
      </defs>
      <use xlink:href="#CMSS17-41" transform="scale(0.996264)"/>
      <use xlink:href="#CMSS17-63" transform="translate(62.217855 0) scale(0.996264)"/>
      <use xlink:href="#CMSS17-63" transform="translate(103.856677 0) scale(0.996264)"/>
      <use xlink:href="#CMSS17-75" transform="translate(145.495499 0) scale(0.996264)"/>
      <use xlink:href="#CMSS17-6d" transform="translate(193.700442 0) scale(0.996264)"/>
      <use xlink:href="#CMSS17-75" transform="translate(267.929697 0) scale(0.996264)"/>
      <use xlink:href="#CMSS17-6c" transform="translate(316.13464 0) scale(0.996264)"/>
      <use xlink:href="#CMSS17-61" transform="translate(338.315363 0) scale(0.996264)"/>
      <use xlink:href="#CMSS17-74" transform="translate(383.237283 0) scale(0.996264)"/>
      <use xlink:href="#CMSS17-69" transform="translate(417.06885 0) scale(0.996264)"/>
      <use xlink:href="#CMSS17-6f" transform="translate(439.249573 0) scale(0.996264)"/>
      <use xlink:href="#CMSS17-6e" transform="translate(486.093197 0) scale(0.996264)"/>
      <use xlink:href="#CMSS17-73" transform="translate(565.527253 0) scale(0.996264)"/>
      <use xlink:href="#CMSS17-69" transform="translate(601.440795 0) scale(0.996264)"/>
      <use xlink:href="#CMSS17-64" transform="translate(623.621518 0) scale(0.996264)"/>
      <use xlink:href="#CMSS17-65" transform="translate(671.826461 0) scale(0.996264)"/>
     </g>
    </g>
   </g>
  </g>
 </g>
 <defs>
  <clipPath id="p5a264831ad">
   <rect x="51.456976" y="20.810347" width="329.527559" height="130.96063"/>
  </clipPath>
 </defs>
</svg>
