<?xml version="1.0" encoding="utf-8" standalone="no"?>
<!DOCTYPE svg PUBLIC "-//W3C//DTD SVG 1.1//EN"
  "http://www.w3.org/Graphics/SVG/1.1/DTD/svg11.dtd">
<svg xmlns:xlink="http://www.w3.org/1999/xlink" width="444.183307pt" height="127.795233pt" viewBox="0 0 444.183307 127.795233" xmlns="http://www.w3.org/2000/svg" version="1.1">
 <metadata>
  <rdf:RDF xmlns:dc="http://purl.org/dc/elements/1.1/" xmlns:cc="http://creativecommons.org/ns#" xmlns:rdf="http://www.w3.org/1999/02/22-rdf-syntax-ns#">
   <cc:Work>
    <dc:type rdf:resource="http://purl.org/dc/dcmitype/StillImage"/>
    <dc:date>2026-06-19T10:07:13.499569</dc:date>
    <dc:format>image/svg+xml</dc:format>
    <dc:creator>
     <cc:Agent>
      <dc:title>Matplotlib v3.10.8, https://matplotlib.org/</dc:title>
     </cc:Agent>
    </dc:creator>
   </cc:Work>
  </rdf:RDF>
 </metadata>
 <defs>
  <style type="text/css">*{stroke-linejoin: round; stroke-linecap: butt}</style>
 </defs>
 <g id="figure_1">
  <g id="patch_1">
   <path d="M 0 127.795233 
L 444.183307 127.795233 
L 444.183307 0 
L 0 0 
L 0 127.795233 
z
" style="fill: none"/>
  </g>
  <g id="axes_1">
   <g id="patch_2">
    <path d="M 86.763228 104.739556 
L 91.468527 104.739556 
L 91.468527 104.261142 
L 86.763228 104.261142 
z
" clip-path="url(#pd010c4d9f5)" style="fill: #b0c4de"/>
   </g>
   <g id="patch_3">
    <path d="M 89.115877 104.739556 
L 93.821177 104.739556 
L 93.821177 93.576306 
L 89.115877 93.576306 
z
" clip-path="url(#pd010c4d9f5)" style="fill: #b0c4de"/>
   </g>
   <g id="patch_4">
    <path d="M 93.821177 104.739556 
L 98.526476 104.739556 
L 98.526476 100.223034 
L 93.821177 100.223034 
z
" clip-path="url(#pd010c4d9f5)" style="fill: #b0c4de"/>
   </g>
   <g id="patch_5">
    <path d="M 96.173826 104.739556 
L 100.879126 104.739556 
L 100.879126 98.386285 
L 96.173826 98.386285 
z
" clip-path="url(#pd010c4d9f5)" style="fill: #b0c4de"/>
   </g>
   <g id="patch_6">
    <path d="M 98.526476 104.739556 
L 103.231776 104.739556 
L 103.231776 99.035816 
L 98.526476 99.035816 
z
" clip-path="url(#pd010c4d9f5)" style="fill: #b0c4de"/>
   </g>
   <g id="patch_7">
    <path d="M 100.879126 104.739556 
L 105.584425 104.739556 
L 105.584425 104.721037 
L 100.879126 104.721037 
z
" clip-path="url(#pd010c4d9f5)" style="fill: #b0c4de"/>
   </g>
   <g id="patch_8">
    <path d="M 103.231776 104.739556 
L 107.937075 104.739556 
L 107.937075 102.871437 
L 103.231776 102.871437 
z
" clip-path="url(#pd010c4d9f5)" style="fill: #b0c4de"/>
   </g>
   <g id="patch_9">
    <path d="M 105.584425 104.739556 
L 110.289725 104.739556 
L 110.289725 90.505079 
L 105.584425 90.505079 
z
" clip-path="url(#pd010c4d9f5)" style="fill: #b0c4de"/>
   </g>
   <g id="patch_10">
    <path d="M 107.937075 104.739556 
L 112.642374 104.739556 
L 112.642374 91.579727 
L 107.937075 91.579727 
z
" clip-path="url(#pd010c4d9f5)" style="fill: #b0c4de"/>
   </g>
   <g id="patch_11">
    <path d="M 110.289725 104.739556 
L 114.995024 104.739556 
L 114.995024 66.850514 
L 110.289725 66.850514 
z
" clip-path="url(#pd010c4d9f5)" style="fill: #b0c4de"/>
   </g>
   <g id="patch_12">
    <path d="M 112.642374 104.739556 
L 117.347674 104.739556 
L 117.347674 101.483927 
L 112.642374 101.483927 
z
" clip-path="url(#pd010c4d9f5)" style="fill: #b0c4de"/>
   </g>
   <g id="patch_13">
    <path d="M 114.995024 104.739556 
L 119.700323 104.739556 
L 119.700323 104.739556 
L 114.995024 104.739556 
z
" clip-path="url(#pd010c4d9f5)" style="fill: #b0c4de"/>
   </g>
   <g id="patch_14">
    <path d="M 117.347674 104.739556 
L 122.052973 104.739556 
L 122.052973 104.739556 
L 117.347674 104.739556 
z
" clip-path="url(#pd010c4d9f5)" style="fill: #b0c4de"/>
   </g>
   <g id="patch_15">
    <path d="M 119.700323 104.739556 
L 124.405623 104.739556 
L 124.405623 104.739556 
L 119.700323 104.739556 
z
" clip-path="url(#pd010c4d9f5)" style="fill: #b0c4de"/>
   </g>
   <g id="patch_16">
    <path d="M 122.052973 104.739556 
L 126.758273 104.739556 
L 126.758273 104.739556 
L 122.052973 104.739556 
z
" clip-path="url(#pd010c4d9f5)" style="fill: #b0c4de"/>
   </g>
   <g id="patch_17">
    <path d="M 124.405623 104.739556 
L 129.110922 104.739556 
L 129.110922 92.15359 
L 124.405623 92.15359 
z
" clip-path="url(#pd010c4d9f5)" style="fill: #b0c4de"/>
   </g>
   <g id="patch_18">
    <path d="M 126.758273 104.739556 
L 131.463572 104.739556 
L 131.463572 100.300816 
L 126.758273 100.300816 
z
" clip-path="url(#pd010c4d9f5)" style="fill: #b0c4de"/>
   </g>
   <g id="patch_19">
    <path d="M 129.110922 104.739556 
L 133.816222 104.739556 
L 133.816222 104.621637 
L 129.110922 104.621637 
z
" clip-path="url(#pd010c4d9f5)" style="fill: #b0c4de"/>
   </g>
   <g id="patch_20">
    <path d="M 131.463572 104.739556 
L 136.168871 104.739556 
L 136.168871 103.932356 
L 131.463572 103.932356 
z
" clip-path="url(#pd010c4d9f5)" style="fill: #b0c4de"/>
   </g>
   <g id="patch_21">
    <path d="M 133.816222 104.739556 
L 138.521521 104.739556 
L 138.521521 81.534565 
L 133.816222 81.534565 
z
" clip-path="url(#pd010c4d9f5)" style="fill: #b0c4de"/>
   </g>
   <g id="patch_22">
    <path d="M 136.168871 104.739556 
L 140.874171 104.739556 
L 140.874171 94.010254 
L 136.168871 94.010254 
z
" clip-path="url(#pd010c4d9f5)" style="fill: #b0c4de"/>
   </g>
   <g id="patch_23">
    <path d="M 138.521521 104.739556 
L 143.226821 104.739556 
L 143.226821 100.229064 
L 138.521521 100.229064 
z
" clip-path="url(#pd010c4d9f5)" style="fill: #b0c4de"/>
   </g>
   <g id="patch_24">
    <path d="M 140.874171 104.739556 
L 145.57947 104.739556 
L 145.57947 104.334053 
L 140.874171 104.334053 
z
" clip-path="url(#pd010c4d9f5)" style="fill: #b0c4de"/>
   </g>
   <g id="patch_25">
    <path d="M 143.226821 104.739556 
L 147.93212 104.739556 
L 147.93212 104.739556 
L 143.226821 104.739556 
z
" clip-path="url(#pd010c4d9f5)" style="fill: #b0c4de"/>
   </g>
   <g id="patch_26">
    <path d="M 145.57947 104.739556 
L 150.28477 104.739556 
L 150.28477 104.739556 
L 145.57947 104.739556 
z
" clip-path="url(#pd010c4d9f5)" style="fill: #b0c4de"/>
   </g>
   <g id="patch_27">
    <path d="M 147.93212 104.739556 
L 152.637419 104.739556 
L 152.637419 104.12928 
L 147.93212 104.12928 
z
" clip-path="url(#pd010c4d9f5)" style="fill: #b0c4de"/>
   </g>
   <g id="patch_28">
    <path d="M 150.28477 104.739556 
L 154.990069 104.739556 
L 154.990069 104.469313 
L 150.28477 104.469313 
z
" clip-path="url(#pd010c4d9f5)" style="fill: #b0c4de"/>
   </g>
   <g id="patch_29">
    <path d="M 152.637419 104.739556 
L 157.342719 104.739556 
L 157.342719 104.28508 
L 152.637419 104.28508 
z
" clip-path="url(#pd010c4d9f5)" style="fill: #b0c4de"/>
   </g>
   <g id="patch_30">
    <path d="M 154.990069 104.739556 
L 159.695368 104.739556 
L 159.695368 104.268292 
L 154.990069 104.268292 
z
" clip-path="url(#pd010c4d9f5)" style="fill: #b0c4de"/>
   </g>
   <g id="patch_31">
    <path d="M 157.342719 104.739556 
L 162.048018 104.739556 
L 162.048018 102.990152 
L 157.342719 102.990152 
z
" clip-path="url(#pd010c4d9f5)" style="fill: #b0c4de"/>
   </g>
   <g id="patch_32">
    <path d="M 159.695368 104.739556 
L 164.400668 104.739556 
L 164.400668 104.739556 
L 159.695368 104.739556 
z
" clip-path="url(#pd010c4d9f5)" style="fill: #b0c4de"/>
   </g>
   <g id="patch_33">
    <path d="M 162.048018 104.739556 
L 166.753318 104.739556 
L 166.753318 104.739556 
L 162.048018 104.739556 
z
" clip-path="url(#pd010c4d9f5)" style="fill: #b0c4de"/>
   </g>
   <g id="patch_34">
    <path d="M 164.400668 104.739556 
L 169.105967 104.739556 
L 169.105967 104.739556 
L 164.400668 104.739556 
z
" clip-path="url(#pd010c4d9f5)" style="fill: #b0c4de"/>
   </g>
   <g id="patch_35">
    <path d="M 166.753318 104.739556 
L 171.458617 104.739556 
L 171.458617 104.739556 
L 166.753318 104.739556 
z
" clip-path="url(#pd010c4d9f5)" style="fill: #b0c4de"/>
   </g>
   <g id="patch_36">
    <path d="M 169.105967 104.739556 
L 173.811267 104.739556 
L 173.811267 104.503607 
L 169.105967 104.503607 
z
" clip-path="url(#pd010c4d9f5)" style="fill: #b0c4de"/>
   </g>
   <g id="patch_37">
    <path d="M 171.458617 104.739556 
L 176.163916 104.739556 
L 176.163916 104.7211 
L 171.458617 104.7211 
z
" clip-path="url(#pd010c4d9f5)" style="fill: #b0c4de"/>
   </g>
   <g id="patch_38">
    <path d="M 173.811267 104.739556 
L 178.516566 104.739556 
L 178.516566 104.739556 
L 173.811267 104.739556 
z
" clip-path="url(#pd010c4d9f5)" style="fill: #b0c4de"/>
   </g>
   <g id="patch_39">
    <path d="M 176.163916 104.739556 
L 180.869216 104.739556 
L 180.869216 104.739556 
L 176.163916 104.739556 
z
" clip-path="url(#pd010c4d9f5)" style="fill: #b0c4de"/>
   </g>
   <g id="patch_40">
    <path d="M 178.516566 104.739556 
L 183.221866 104.739556 
L 183.221866 104.739556 
L 178.516566 104.739556 
z
" clip-path="url(#pd010c4d9f5)" style="fill: #b0c4de"/>
   </g>
   <g id="patch_41">
    <path d="M 180.869216 104.739556 
L 185.574515 104.739556 
L 185.574515 104.717128 
L 180.869216 104.717128 
z
" clip-path="url(#pd010c4d9f5)" style="fill: #b0c4de"/>
   </g>
   <g id="patch_42">
    <path d="M 183.221866 104.739556 
L 187.927165 104.739556 
L 187.927165 104.541001 
L 183.221866 104.541001 
z
" clip-path="url(#pd010c4d9f5)" style="fill: #b0c4de"/>
   </g>
   <g id="patch_43">
    <path d="M 185.574515 104.739556 
L 190.279815 104.739556 
L 190.279815 104.739556 
L 185.574515 104.739556 
z
" clip-path="url(#pd010c4d9f5)" style="fill: #b0c4de"/>
   </g>
   <g id="patch_44">
    <path d="M 187.927165 104.739556 
L 192.632464 104.739556 
L 192.632464 104.739556 
L 187.927165 104.739556 
z
" clip-path="url(#pd010c4d9f5)" style="fill: #b0c4de"/>
   </g>
   <g id="patch_45">
    <path d="M 190.279815 104.739556 
L 194.985114 104.739556 
L 194.985114 104.739556 
L 190.279815 104.739556 
z
" clip-path="url(#pd010c4d9f5)" style="fill: #b0c4de"/>
   </g>
   <g id="patch_46">
    <path d="M 192.632464 104.739556 
L 197.337764 104.739556 
L 197.337764 104.739556 
L 192.632464 104.739556 
z
" clip-path="url(#pd010c4d9f5)" style="fill: #b0c4de"/>
   </g>
   <g id="patch_47">
    <path d="M 194.985114 104.739556 
L 199.690413 104.739556 
L 199.690413 104.739556 
L 194.985114 104.739556 
z
" clip-path="url(#pd010c4d9f5)" style="fill: #b0c4de"/>
   </g>
   <g id="patch_48">
    <path d="M 197.337764 104.739556 
L 202.043063 104.739556 
L 202.043063 104.739556 
L 197.337764 104.739556 
z
" clip-path="url(#pd010c4d9f5)" style="fill: #b0c4de"/>
   </g>
   <g id="patch_49">
    <path d="M 199.690413 104.739556 
L 204.395713 104.739556 
L 204.395713 104.739556 
L 199.690413 104.739556 
z
" clip-path="url(#pd010c4d9f5)" style="fill: #b0c4de"/>
   </g>
   <g id="patch_50">
    <path d="M 202.043063 104.739556 
L 206.748363 104.739556 
L 206.748363 104.726212 
L 202.043063 104.726212 
z
" clip-path="url(#pd010c4d9f5)" style="fill: #b0c4de"/>
   </g>
   <g id="patch_51">
    <path d="M 204.395713 104.739556 
L 209.101012 104.739556 
L 209.101012 104.190953 
L 204.395713 104.190953 
z
" clip-path="url(#pd010c4d9f5)" style="fill: #b0c4de"/>
   </g>
   <g id="patch_52">
    <path d="M 206.748363 104.739556 
L 211.453662 104.739556 
L 211.453662 104.086887 
L 206.748363 104.086887 
z
" clip-path="url(#pd010c4d9f5)" style="fill: #b0c4de"/>
   </g>
   <g id="patch_53">
    <path d="M 209.101012 104.739556 
L 213.806312 104.739556 
L 213.806312 103.523422 
L 209.101012 103.523422 
z
" clip-path="url(#pd010c4d9f5)" style="fill: #b0c4de"/>
   </g>
   <g id="patch_54">
    <path d="M 211.453662 104.739556 
L 216.158961 104.739556 
L 216.158961 99.402099 
L 211.453662 99.402099 
z
" clip-path="url(#pd010c4d9f5)" style="fill: #b0c4de"/>
   </g>
   <g id="patch_55">
    <path d="M 213.806312 104.739556 
L 218.511611 104.739556 
L 218.511611 90.193154 
L 213.806312 90.193154 
z
" clip-path="url(#pd010c4d9f5)" style="fill: #b0c4de"/>
   </g>
   <g id="patch_56">
    <path d="M 216.158961 104.739556 
L 220.864261 104.739556 
L 220.864261 103.500773 
L 216.158961 103.500773 
z
" clip-path="url(#pd010c4d9f5)" style="fill: #b0c4de"/>
   </g>
   <g id="patch_57">
    <path d="M 218.511611 104.739556 
L 223.216911 104.739556 
L 223.216911 102.534964 
L 218.511611 102.534964 
z
" clip-path="url(#pd010c4d9f5)" style="fill: #b0c4de"/>
   </g>
   <g id="patch_58">
    <path d="M 220.864261 104.739556 
L 225.56956 104.739556 
L 225.56956 95.794228 
L 220.864261 95.794228 
z
" clip-path="url(#pd010c4d9f5)" style="fill: #b0c4de"/>
   </g>
   <g id="patch_59">
    <path d="M 223.216911 104.739556 
L 227.92221 104.739556 
L 227.92221 92.602609 
L 223.216911 92.602609 
z
" clip-path="url(#pd010c4d9f5)" style="fill: #b0c4de"/>
   </g>
   <g id="patch_60">
    <path d="M 225.56956 104.739556 
L 230.27486 104.739556 
L 230.27486 99.663973 
L 225.56956 99.663973 
z
" clip-path="url(#pd010c4d9f5)" style="fill: #b0c4de"/>
   </g>
   <g id="patch_61">
    <path d="M 227.92221 104.739556 
L 232.627509 104.739556 
L 232.627509 79.127411 
L 227.92221 79.127411 
z
" clip-path="url(#pd010c4d9f5)" style="fill: #b0c4de"/>
   </g>
   <g id="patch_62">
    <path d="M 230.27486 104.739556 
L 234.980159 104.739556 
L 234.980159 104.156003 
L 230.27486 104.156003 
z
" clip-path="url(#pd010c4d9f5)" style="fill: #b0c4de"/>
   </g>
   <g id="patch_63">
    <path d="M 232.627509 104.739556 
L 237.332809 104.739556 
L 237.332809 104.739556 
L 232.627509 104.739556 
z
" clip-path="url(#pd010c4d9f5)" style="fill: #b0c4de"/>
   </g>
   <g id="patch_64">
    <path d="M 234.980159 104.739556 
L 239.685458 104.739556 
L 239.685458 104.739556 
L 234.980159 104.739556 
z
" clip-path="url(#pd010c4d9f5)" style="fill: #b0c4de"/>
   </g>
   <g id="patch_65">
    <path d="M 237.332809 104.739556 
L 242.038108 104.739556 
L 242.038108 104.739556 
L 237.332809 104.739556 
z
" clip-path="url(#pd010c4d9f5)" style="fill: #b0c4de"/>
   </g>
   <g id="patch_66">
    <path d="M 239.685458 104.739556 
L 244.390758 104.739556 
L 244.390758 104.739556 
L 239.685458 104.739556 
z
" clip-path="url(#pd010c4d9f5)" style="fill: #b0c4de"/>
   </g>
   <g id="patch_67">
    <path d="M 242.038108 104.739556 
L 246.743408 104.739556 
L 246.743408 104.739556 
L 242.038108 104.739556 
z
" clip-path="url(#pd010c4d9f5)" style="fill: #b0c4de"/>
   </g>
   <g id="patch_68">
    <path d="M 244.390758 104.739556 
L 249.096057 104.739556 
L 249.096057 104.739556 
L 244.390758 104.739556 
z
" clip-path="url(#pd010c4d9f5)" style="fill: #b0c4de"/>
   </g>
   <g id="patch_69">
    <path d="M 246.743408 104.739556 
L 251.448707 104.739556 
L 251.448707 100.258396 
L 246.743408 100.258396 
z
" clip-path="url(#pd010c4d9f5)" style="fill: #b0c4de"/>
   </g>
   <g id="patch_70">
    <path d="M 249.096057 104.739556 
L 253.801357 104.739556 
L 253.801357 97.231245 
L 249.096057 97.231245 
z
" clip-path="url(#pd010c4d9f5)" style="fill: #b0c4de"/>
   </g>
   <g id="patch_71">
    <path d="M 251.448707 104.739556 
L 256.154006 104.739556 
L 256.154006 104.199508 
L 251.448707 104.199508 
z
" clip-path="url(#pd010c4d9f5)" style="fill: #b0c4de"/>
   </g>
   <g id="patch_72">
    <path d="M 253.801357 104.739556 
L 258.506656 104.739556 
L 258.506656 104.739556 
L 253.801357 104.739556 
z
" clip-path="url(#pd010c4d9f5)" style="fill: #b0c4de"/>
   </g>
   <g id="patch_73">
    <path d="M 256.154006 104.739556 
L 260.859306 104.739556 
L 260.859306 104.739556 
L 256.154006 104.739556 
z
" clip-path="url(#pd010c4d9f5)" style="fill: #b0c4de"/>
   </g>
   <g id="patch_74">
    <path d="M 258.506656 104.739556 
L 263.211956 104.739556 
L 263.211956 104.739556 
L 258.506656 104.739556 
z
" clip-path="url(#pd010c4d9f5)" style="fill: #b0c4de"/>
   </g>
   <g id="patch_75">
    <path d="M 260.859306 104.739556 
L 265.564605 104.739556 
L 265.564605 104.739556 
L 260.859306 104.739556 
z
" clip-path="url(#pd010c4d9f5)" style="fill: #b0c4de"/>
   </g>
   <g id="patch_76">
    <path d="M 263.211956 104.739556 
L 267.917255 104.739556 
L 267.917255 104.739556 
L 263.211956 104.739556 
z
" clip-path="url(#pd010c4d9f5)" style="fill: #b0c4de"/>
   </g>
   <g id="patch_77">
    <path d="M 265.564605 104.739556 
L 270.269905 104.739556 
L 270.269905 104.263185 
L 265.564605 104.263185 
z
" clip-path="url(#pd010c4d9f5)" style="fill: #b0c4de"/>
   </g>
   <g id="patch_78">
    <path d="M 267.917255 104.739556 
L 272.622554 104.739556 
L 272.622554 91.599659 
L 267.917255 91.599659 
z
" clip-path="url(#pd010c4d9f5)" style="fill: #b0c4de"/>
   </g>
   <g id="patch_79">
    <path d="M 270.269905 104.739556 
L 274.975204 104.739556 
L 274.975204 95.826369 
L 270.269905 95.826369 
z
" clip-path="url(#pd010c4d9f5)" style="fill: #b0c4de"/>
   </g>
   <g id="patch_80">
    <path d="M 272.622554 104.739556 
L 277.327854 104.739556 
L 277.327854 61.793092 
L 272.622554 61.793092 
z
" clip-path="url(#pd010c4d9f5)" style="fill: #b0c4de"/>
   </g>
   <g id="patch_81">
    <path d="M 274.975204 104.739556 
L 279.680503 104.739556 
L 279.680503 83.942737 
L 274.975204 83.942737 
z
" clip-path="url(#pd010c4d9f5)" style="fill: #b0c4de"/>
   </g>
   <g id="patch_82">
    <path d="M 277.327854 104.739556 
L 282.033153 104.739556 
L 282.033153 104.649331 
L 277.327854 104.649331 
z
" clip-path="url(#pd010c4d9f5)" style="fill: #b0c4de"/>
   </g>
   <g id="patch_83">
    <path d="M 279.680503 104.739556 
L 284.385803 104.739556 
L 284.385803 89.69724 
L 279.680503 89.69724 
z
" clip-path="url(#pd010c4d9f5)" style="fill: #b0c4de"/>
   </g>
   <g id="patch_84">
    <path d="M 282.033153 104.739556 
L 286.738453 104.739556 
L 286.738453 90.381323 
L 282.033153 90.381323 
z
" clip-path="url(#pd010c4d9f5)" style="fill: #b0c4de"/>
   </g>
   <g id="patch_85">
    <path d="M 284.385803 104.739556 
L 289.091102 104.739556 
L 289.091102 88.754333 
L 284.385803 88.754333 
z
" clip-path="url(#pd010c4d9f5)" style="fill: #b0c4de"/>
   </g>
   <g id="patch_86">
    <path d="M 286.738453 104.739556 
L 291.443752 104.739556 
L 291.443752 103.962843 
L 286.738453 103.962843 
z
" clip-path="url(#pd010c4d9f5)" style="fill: #b0c4de"/>
   </g>
   <g id="patch_87">
    <path d="M 289.091102 104.739556 
L 293.796402 104.739556 
L 293.796402 104.739556 
L 289.091102 104.739556 
z
" clip-path="url(#pd010c4d9f5)" style="fill: #b0c4de"/>
   </g>
   <g id="patch_88">
    <path d="M 291.443752 104.739556 
L 296.149051 104.739556 
L 296.149051 104.739556 
L 291.443752 104.739556 
z
" clip-path="url(#pd010c4d9f5)" style="fill: #b0c4de"/>
   </g>
   <g id="patch_89">
    <path d="M 293.796402 104.739556 
L 298.501701 104.739556 
L 298.501701 104.739556 
L 293.796402 104.739556 
z
" clip-path="url(#pd010c4d9f5)" style="fill: #b0c4de"/>
   </g>
   <g id="patch_90">
    <path d="M 296.149051 104.739556 
L 300.854351 104.739556 
L 300.854351 94.351775 
L 296.149051 94.351775 
z
" clip-path="url(#pd010c4d9f5)" style="fill: #b0c4de"/>
   </g>
   <g id="patch_91">
    <path d="M 298.501701 104.739556 
L 303.207001 104.739556 
L 303.207001 103.978508 
L 298.501701 103.978508 
z
" clip-path="url(#pd010c4d9f5)" style="fill: #b0c4de"/>
   </g>
   <g id="patch_92">
    <path d="M 300.854351 104.739556 
L 305.55965 104.739556 
L 305.55965 104.739556 
L 300.854351 104.739556 
z
" clip-path="url(#pd010c4d9f5)" style="fill: #b0c4de"/>
   </g>
   <g id="patch_93">
    <path d="M 303.207001 104.739556 
L 307.9123 104.739556 
L 307.9123 104.680071 
L 303.207001 104.680071 
z
" clip-path="url(#pd010c4d9f5)" style="fill: #b0c4de"/>
   </g>
   <g id="patch_94">
    <path d="M 305.55965 104.739556 
L 310.26495 104.739556 
L 310.26495 102.49664 
L 305.55965 102.49664 
z
" clip-path="url(#pd010c4d9f5)" style="fill: #b0c4de"/>
   </g>
   <g id="patch_95">
    <path d="M 307.9123 104.739556 
L 312.617599 104.739556 
L 312.617599 103.669623 
L 307.9123 103.669623 
z
" clip-path="url(#pd010c4d9f5)" style="fill: #b0c4de"/>
   </g>
   <g id="patch_96">
    <path d="M 310.26495 104.739556 
L 314.970249 104.739556 
L 314.970249 84.553057 
L 310.26495 84.553057 
z
" clip-path="url(#pd010c4d9f5)" style="fill: #b0c4de"/>
   </g>
   <g id="patch_97">
    <path d="M 312.617599 104.739556 
L 317.322899 104.739556 
L 317.322899 86.141521 
L 312.617599 86.141521 
z
" clip-path="url(#pd010c4d9f5)" style="fill: #b0c4de"/>
   </g>
   <g id="patch_98">
    <path d="M 314.970249 104.739556 
L 319.675548 104.739556 
L 319.675548 99.247396 
L 314.970249 99.247396 
z
" clip-path="url(#pd010c4d9f5)" style="fill: #b0c4de"/>
   </g>
   <g id="patch_99">
    <path d="M 317.322899 104.739556 
L 322.028198 104.739556 
L 322.028198 104.499247 
L 317.322899 104.499247 
z
" clip-path="url(#pd010c4d9f5)" style="fill: #b0c4de"/>
   </g>
   <g id="patch_100">
    <path d="M 319.675548 104.739556 
L 324.380848 104.739556 
L 324.380848 103.145266 
L 319.675548 103.145266 
z
" clip-path="url(#pd010c4d9f5)" style="fill: #b0c4de"/>
   </g>
   <g id="patch_101">
    <path d="M 322.028198 104.739556 
L 326.733498 104.739556 
L 326.733498 87.23345 
L 322.028198 87.23345 
z
" clip-path="url(#pd010c4d9f5)" style="fill: #b0c4de"/>
   </g>
   <g id="patch_102">
    <path d="M 324.380848 104.739556 
L 329.086147 104.739556 
L 329.086147 99.326239 
L 324.380848 99.326239 
z
" clip-path="url(#pd010c4d9f5)" style="fill: #b0c4de"/>
   </g>
   <g id="patch_103">
    <path d="M 326.733498 104.739556 
L 331.438797 104.739556 
L 331.438797 96.318035 
L 326.733498 96.318035 
z
" clip-path="url(#pd010c4d9f5)" style="fill: #b0c4de"/>
   </g>
   <g id="patch_104">
    <path d="M 329.086147 104.739556 
L 333.791447 104.739556 
L 333.791447 104.71556 
L 329.086147 104.71556 
z
" clip-path="url(#pd010c4d9f5)" style="fill: #b0c4de"/>
   </g>
   <g id="patch_105">
    <path d="M 331.438797 104.739556 
L 336.144096 104.739556 
L 336.144096 104.4874 
L 331.438797 104.4874 
z
" clip-path="url(#pd010c4d9f5)" style="fill: #b0c4de"/>
   </g>
   <g id="patch_106">
    <path d="M 333.791447 104.739556 
L 338.496746 104.739556 
L 338.496746 104.721661 
L 333.791447 104.721661 
z
" clip-path="url(#pd010c4d9f5)" style="fill: #b0c4de"/>
   </g>
   <g id="patch_107">
    <path d="M 336.144096 104.739556 
L 340.849396 104.739556 
L 340.849396 104.734443 
L 336.144096 104.734443 
z
" clip-path="url(#pd010c4d9f5)" style="fill: #b0c4de"/>
   </g>
   <g id="patch_108">
    <path d="M 338.496746 104.739556 
L 343.202046 104.739556 
L 343.202046 96.505099 
L 338.496746 96.505099 
z
" clip-path="url(#pd010c4d9f5)" style="fill: #b0c4de"/>
   </g>
   <g id="patch_109">
    <path d="M 340.849396 104.739556 
L 345.554695 104.739556 
L 345.554695 101.341277 
L 340.849396 101.341277 
z
" clip-path="url(#pd010c4d9f5)" style="fill: #b0c4de"/>
   </g>
   <g id="patch_110">
    <path d="M 343.202046 104.739556 
L 347.907345 104.739556 
L 347.907345 103.411458 
L 343.202046 103.411458 
z
" clip-path="url(#pd010c4d9f5)" style="fill: #b0c4de"/>
   </g>
   <g id="patch_111">
    <path d="M 345.554695 104.739556 
L 350.259995 104.739556 
L 350.259995 104.020143 
L 345.554695 104.020143 
z
" clip-path="url(#pd010c4d9f5)" style="fill: #b0c4de"/>
   </g>
   <g id="patch_112">
    <path d="M 347.907345 104.739556 
L 352.612644 104.739556 
L 352.612644 93.569391 
L 347.907345 93.569391 
z
" clip-path="url(#pd010c4d9f5)" style="fill: #b0c4de"/>
   </g>
   <g id="patch_113">
    <path d="M 350.259995 104.739556 
L 354.965294 104.739556 
L 354.965294 95.713226 
L 350.259995 95.713226 
z
" clip-path="url(#pd010c4d9f5)" style="fill: #b0c4de"/>
   </g>
   <g id="patch_114">
    <path d="M 352.612644 104.739556 
L 357.317944 104.739556 
L 357.317944 88.402646 
L 352.612644 88.402646 
z
" clip-path="url(#pd010c4d9f5)" style="fill: #b0c4de"/>
   </g>
   <g id="patch_115">
    <path d="M 354.965294 104.739556 
L 359.670593 104.739556 
L 359.670593 99.774168 
L 354.965294 99.774168 
z
" clip-path="url(#pd010c4d9f5)" style="fill: #b0c4de"/>
   </g>
   <g id="patch_116">
    <path d="M 357.317944 104.739556 
L 362.023243 104.739556 
L 362.023243 93.63542 
L 357.317944 93.63542 
z
" clip-path="url(#pd010c4d9f5)" style="fill: #b0c4de"/>
   </g>
   <g id="patch_117">
    <path d="M 359.670593 104.739556 
L 364.375893 104.739556 
L 364.375893 103.734183 
L 359.670593 103.734183 
z
" clip-path="url(#pd010c4d9f5)" style="fill: #b0c4de"/>
   </g>
   <g id="patch_118">
    <path d="M 362.023243 104.739556 
L 366.728543 104.739556 
L 366.728543 104.739556 
L 362.023243 104.739556 
z
" clip-path="url(#pd010c4d9f5)" style="fill: #b0c4de"/>
   </g>
   <g id="patch_119">
    <path d="M 364.375893 104.739556 
L 369.081192 104.739556 
L 369.081192 104.739556 
L 364.375893 104.739556 
z
" clip-path="url(#pd010c4d9f5)" style="fill: #b0c4de"/>
   </g>
   <g id="patch_120">
    <path d="M 366.728543 104.739556 
L 371.433842 104.739556 
L 371.433842 104.739556 
L 366.728543 104.739556 
z
" clip-path="url(#pd010c4d9f5)" style="fill: #b0c4de"/>
   </g>
   <g id="patch_121">
    <path d="M 369.081192 104.739556 
L 373.786492 104.739556 
L 373.786492 104.683314 
L 369.081192 104.683314 
z
" clip-path="url(#pd010c4d9f5)" style="fill: #b0c4de"/>
   </g>
   <g id="patch_122">
    <path d="M 371.433842 104.739556 
L 376.139141 104.739556 
L 376.139141 99.089301 
L 371.433842 99.089301 
z
" clip-path="url(#pd010c4d9f5)" style="fill: #b0c4de"/>
   </g>
   <g id="patch_123">
    <path d="M 373.786492 104.739556 
L 378.491791 104.739556 
L 378.491791 72.119675 
L 373.786492 72.119675 
z
" clip-path="url(#pd010c4d9f5)" style="fill: #b0c4de"/>
   </g>
   <g id="matplotlib.axis_1">
    <g id="ytick_1">
     <g id="line2d_1">
      <defs>
       <path id="m248de2cb2f" d="M 0 0 
L 3.5 0 
" style="stroke: #4682b4; stroke-width: 0.8"/>
      </defs>
      <g>
       <use xlink:href="#m248de2cb2f" x="397.312989" y="104.739556" style="fill: #4682b4; stroke: #4682b4; stroke-width: 0.8"/>
      </g>
     </g>
     <g id="text_1">
      <!-- $\mathdefault{0.00}$ -->
      <g style="fill: #4682b4" transform="translate(404.312989 108.198805) scale(0.1 -0.1)">
       <defs>
        <path id="CMSS17-30" d="M 2758 2073 
C 2758 2439 2752 3120 2490 3647 
C 2227 4153 1805 4288 1504 4288 
C 1069 4288 698 4031 506 3621 
C 301 3191 243 2748 243 2073 
C 243 1611 262 1046 493 551 
C 755 6 1197 -128 1498 -128 
C 1894 -128 2278 83 2496 525 
C 2720 988 2758 1495 2758 2073 
z
M 1498 262 
C 1011 262 864 821 819 1007 
C 742 1328 730 1636 730 2144 
C 730 2542 730 2992 851 3345 
C 998 3756 1254 3897 1498 3897 
C 1971 3897 2125 3422 2176 3255 
C 2272 2915 2272 2516 2272 2144 
C 2272 1546 2272 262 1498 262 
z
" transform="scale(0.015625)"/>
        <path id="ComputerModernSans-MathitalicRegular10pt-3a" d="M 621 268 
L 621 0 
L 890 0 
L 1158 0 
L 1158 268 
L 1158 537 
L 890 537 
L 621 537 
L 621 268 
z
" transform="scale(0.015625)"/>
       </defs>
       <use xlink:href="#CMSS17-30" transform="scale(0.996264)"/>
       <use xlink:href="#ComputerModernSans-MathitalicRegular10pt-3a" transform="translate(46.843624 0) scale(0.996264)"/>
       <use xlink:href="#CMSS17-30" transform="translate(74.517708 0) scale(0.996264)"/>
       <use xlink:href="#CMSS17-30" transform="translate(121.361332 0) scale(0.996264)"/>
      </g>
     </g>
    </g>
    <g id="ytick_2">
     <g id="line2d_2">
      <g>
       <use xlink:href="#m248de2cb2f" x="397.312989" y="76.871111" style="fill: #4682b4; stroke: #4682b4; stroke-width: 0.8"/>
      </g>
     </g>
     <g id="text_2">
      <!-- $\mathdefault{0.01}$ -->
      <g style="fill: #4682b4" transform="translate(404.312989 80.330361) scale(0.1 -0.1)">
       <defs>
        <path id="CMSS17-31" d="M 1818 4288 
L 1696 4288 
C 1350 3949 947 3902 538 3891 
L 538 3520 
C 723 3526 1024 3539 1325 3673 
L 1325 371 
L 570 371 
L 570 0 
L 2573 0 
L 2573 371 
L 1818 371 
L 1818 4288 
z
" transform="scale(0.015625)"/>
       </defs>
       <use xlink:href="#CMSS17-30" transform="scale(0.996264)"/>
       <use xlink:href="#ComputerModernSans-MathitalicRegular10pt-3a" transform="translate(46.843624 0) scale(0.996264)"/>
       <use xlink:href="#CMSS17-30" transform="translate(74.517708 0) scale(0.996264)"/>
       <use xlink:href="#CMSS17-31" transform="translate(121.361332 0) scale(0.996264)"/>
      </g>
     </g>
    </g>
    <g id="ytick_3">
     <g id="line2d_3">
      <g>
       <use xlink:href="#m248de2cb2f" x="397.312989" y="49.002667" style="fill: #4682b4; stroke: #4682b4; stroke-width: 0.8"/>
      </g>
     </g>
     <g id="text_3">
      <!-- $\mathdefault{0.02}$ -->
      <g style="fill: #4682b4" transform="translate(404.312989 52.461916) scale(0.1 -0.1)">
       <defs>
        <path id="CMSS17-32" d="M 1651 1353 
C 1830 1538 2099 1761 2285 1984 
C 2464 2201 2701 2507 2701 2953 
C 2701 3655 2227 4288 1421 4288 
C 787 4288 422 3891 250 3272 
L 499 2928 
C 640 3508 838 3878 1338 3878 
C 1888 3878 2195 3431 2195 2940 
C 2195 2354 1747 1901 1408 1563 
C 1030 1187 659 805 301 409 
L 301 0 
L 2701 0 
L 2701 435 
L 1613 435 
C 1536 435 1459 428 1382 428 
L 742 428 
L 742 435 
L 1651 1353 
z
" transform="scale(0.015625)"/>
       </defs>
       <use xlink:href="#CMSS17-30" transform="scale(0.996264)"/>
       <use xlink:href="#ComputerModernSans-MathitalicRegular10pt-3a" transform="translate(46.843624 0) scale(0.996264)"/>
       <use xlink:href="#CMSS17-30" transform="translate(74.517708 0) scale(0.996264)"/>
       <use xlink:href="#CMSS17-32" transform="translate(121.361332 0) scale(0.996264)"/>
      </g>
     </g>
    </g>
    <g id="ytick_4">
     <g id="line2d_4">
      <g>
       <use xlink:href="#m248de2cb2f" x="397.312989" y="21.134222" style="fill: #4682b4; stroke: #4682b4; stroke-width: 0.8"/>
      </g>
     </g>
     <g id="text_4">
      <!-- $\mathdefault{0.03}$ -->
      <g style="fill: #4682b4" transform="translate(404.312989 24.593471) scale(0.1 -0.1)">
       <defs>
        <path id="CMSS17-33" d="M 1005 2060 
L 1440 2060 
C 2042 2060 2214 1532 2214 1164 
C 2214 662 1933 268 1472 268 
C 1114 268 608 449 320 926 
C 275 700 275 687 250 533 
C 550 89 1037 -128 1485 -128 
C 2214 -128 2752 481 2752 1158 
C 2752 1667 2400 2092 1920 2252 
C 2304 2463 2586 2860 2586 3321 
C 2586 3859 2093 4288 1491 4288 
C 941 4288 512 3948 333 3583 
C 378 3519 493 3334 550 3238 
C 691 3615 1056 3897 1485 3897 
C 1843 3897 2080 3660 2080 3321 
C 2080 2969 1856 2585 1478 2496 
C 1453 2496 1056 2457 1005 2451 
L 1005 2060 
z
" transform="scale(0.015625)"/>
       </defs>
       <use xlink:href="#CMSS17-30" transform="scale(0.996264)"/>
       <use xlink:href="#ComputerModernSans-MathitalicRegular10pt-3a" transform="translate(46.843624 0) scale(0.996264)"/>
       <use xlink:href="#CMSS17-30" transform="translate(74.517708 0) scale(0.996264)"/>
       <use xlink:href="#CMSS17-33" transform="translate(121.361332 0) scale(0.996264)"/>
      </g>
     </g>
    </g>
    <g id="text_5">
     <!-- ERA5 Snow Fall (mm) -->
     <g style="fill: #4682b4" transform="translate(434.243581 108.047512) rotate(-90) scale(0.11 -0.11)">
      <defs>
       <path id="CMSS17-45" d="M 1958 435 
C 1446 435 1216 435 1101 428 
L 1101 2105 
L 3085 2105 
L 3085 2496 
L 1101 2496 
L 1101 3993 
L 1926 3993 
C 2003 3993 2080 3987 2157 3987 
L 3251 3987 
L 3251 4403 
L 563 4403 
L 563 0 
L 3334 0 
L 3334 441 
L 1958 435 
z
" transform="scale(0.015625)"/>
       <path id="CMSS17-52" d="M 2522 2099 
L 2534 2105 
C 3533 2450 3539 3125 3539 3244 
C 3539 3838 2925 4416 2003 4416 
L 570 4416 
L 570 0 
L 1094 0 
L 1094 2041 
L 2035 2041 
L 3168 0 
L 3706 0 
L 2522 2099 
z
M 1094 2432 
L 1094 4057 
L 1933 4057 
C 2746 4057 3034 3607 3034 3244 
C 3034 2907 2778 2432 1933 2432 
L 1094 2432 
z
" transform="scale(0.015625)"/>
       <path id="CMSS17-41" d="M 2272 4416 
L 1722 4416 
L 166 0 
L 653 0 
L 1101 1280 
L 2816 1280 
L 3270 0 
L 3827 0 
L 2272 4416 
z
M 2694 1638 
L 1222 1638 
C 1530 2530 1914 3638 1958 3924 
L 1965 3924 
C 2010 3663 2138 3281 2246 2956 
L 2694 1638 
z
" transform="scale(0.015625)"/>
       <path id="CMSS17-35" d="M 934 3814 
L 2502 3814 
L 2502 4224 
L 467 4224 
L 467 1830 
L 896 1830 
C 1011 2103 1248 2304 1555 2304 
C 1843 2304 2163 2044 2163 1299 
C 2163 502 1709 268 1376 268 
C 966 268 589 521 422 871 
L 218 508 
C 512 51 992 -128 1376 -128 
C 2118 -128 2701 508 2701 1286 
C 2701 2083 2182 2694 1562 2694 
C 1338 2694 1120 2617 934 2464 
L 934 3814 
z
" transform="scale(0.015625)"/>
       <path id="CMSS17-53" d="M 2797 4230 
C 2515 4396 2208 4544 1690 4544 
C 864 4544 333 3934 333 3309 
C 333 3064 403 2787 653 2504 
C 902 2220 1184 2143 1542 2053 
C 1690 2014 1939 1943 1984 1924 
C 2342 1782 2515 1454 2515 1144 
C 2515 738 2202 307 1645 307 
C 1453 307 890 339 358 829 
L 269 320 
C 794 -64 1363 -128 1651 -128 
C 2438 -128 3002 494 3002 1202 
C 3002 1460 2925 1789 2656 2092 
C 2394 2381 2163 2446 1638 2588 
C 1338 2665 1146 2717 986 2916 
C 877 3058 819 3193 819 3367 
C 819 3728 1126 4121 1690 4121 
C 1971 4121 2336 4063 2707 3715 
L 2797 4230 
z
" transform="scale(0.015625)"/>
       <path id="CMSS17-6e" d="M 2618 1878 
C 2618 2283 2522 2816 1798 2816 
C 1389 2816 1120 2604 941 2386 
L 941 2783 
L 474 2783 
L 474 0 
L 960 0 
L 960 1556 
C 960 1962 1114 2425 1549 2425 
C 2112 2425 2131 2045 2131 1826 
L 2131 0 
L 2618 0 
L 2618 1878 
z
" transform="scale(0.015625)"/>
       <path id="CMSS17-6f" d="M 2829 1356 
C 2829 2175 2221 2816 1504 2816 
C 768 2816 173 2156 173 1356 
C 173 544 787 -64 1498 -64 
C 2227 -64 2829 563 2829 1356 
z
M 1504 339 
C 1050 339 659 710 659 1407 
C 659 2150 1114 2425 1498 2425 
C 1914 2425 2342 2124 2342 1407 
C 2342 684 1926 339 1504 339 
z
" transform="scale(0.015625)"/>
       <path id="CMSS17-77" d="M 4013 2752 
L 3526 2752 
L 3187 1600 
C 3117 1356 2918 684 2893 371 
L 2886 371 
C 2874 563 2765 1024 2586 1632 
L 2259 2752 
L 1818 2752 
L 1498 1657 
C 1338 1100 1216 627 1203 371 
L 1197 371 
C 1171 748 909 1632 870 1772 
L 582 2752 
L 83 2752 
L 915 0 
L 1402 0 
C 1734 1100 1990 1952 2010 2380 
C 2022 2169 2131 1715 2195 1491 
L 2618 0 
L 3181 0 
L 4013 2752 
z
" transform="scale(0.015625)"/>
       <path id="CMSS17-46" d="M 2918 1984 
L 2918 2374 
L 1101 2374 
L 1101 3993 
L 1882 3993 
C 1958 3993 2035 3987 2112 3987 
L 3168 3987 
L 3168 4403 
L 563 4403 
L 563 0 
L 1101 0 
L 1101 1984 
L 2918 1984 
z
" transform="scale(0.015625)"/>
       <path id="CMSS17-61" d="M 2406 1789 
C 2406 2399 1978 2816 1402 2816 
C 1120 2816 813 2764 461 2559 
L 499 2133 
C 659 2250 934 2438 1395 2438 
C 1722 2438 1920 2185 1920 1782 
L 1920 1536 
C 896 1504 256 1209 256 711 
C 256 452 416 -64 947 -64 
C 1043 -64 1562 -52 1933 224 
L 1933 -13 
L 2406 -13 
L 2406 1789 
z
M 1920 824 
C 1920 711 1920 559 1728 446 
C 1562 339 1350 326 1261 326 
C 941 326 723 503 723 723 
C 723 1165 1722 1209 1920 1216 
L 1920 824 
z
" transform="scale(0.015625)"/>
       <path id="CMSS17-6c" d="M 947 4416 
L 474 4416 
L 474 0 
L 947 0 
L 947 4416 
z
" transform="scale(0.015625)"/>
       <path id="CMSS17-28" d="M 1613 4800 
C 1267 4447 474 3627 474 1603 
C 474 -428 1267 -1242 1613 -1600 
L 2003 -1600 
C 1216 -781 960 366 960 1596 
C 960 2820 1203 3973 2003 4800 
L 1613 4800 
z
" transform="scale(0.015625)"/>
       <path id="CMSS17-6d" d="M 4288 1878 
C 4288 2309 4179 2816 3462 2816 
C 2982 2816 2694 2515 2566 2328 
C 2451 2668 2182 2816 1798 2816 
C 1363 2816 1088 2566 941 2386 
L 941 2783 
L 474 2783 
L 474 0 
L 960 0 
L 960 1556 
C 960 1936 1101 2425 1555 2425 
C 2138 2425 2138 2013 2138 1826 
L 2138 0 
L 2624 0 
L 2624 1556 
C 2624 1936 2765 2425 3219 2425 
C 3802 2425 3802 2013 3802 1826 
L 3802 0 
L 4288 0 
L 4288 1878 
z
" transform="scale(0.015625)"/>
       <path id="CMSS17-29" d="M 723 -1600 
C 1069 -1248 1862 -428 1862 1596 
C 1862 3627 1069 4440 723 4800 
L 333 4800 
C 1120 3979 1376 2833 1376 1603 
C 1376 379 1133 -774 333 -1600 
L 723 -1600 
z
" transform="scale(0.015625)"/>
      </defs>
      <use xlink:href="#CMSS17-45" transform="scale(0.996264)"/>
      <use xlink:href="#CMSS17-52" transform="translate(55.892013 0) scale(0.996264)"/>
      <use xlink:href="#CMSS17-41" transform="translate(116.308168 0) scale(0.996264)"/>
      <use xlink:href="#CMSS17-35" transform="translate(178.526023 0) scale(0.996264)"/>
      <use xlink:href="#CMSS17-53" transform="translate(256.598759 0) scale(0.996264)"/>
      <use xlink:href="#CMSS17-6e" transform="translate(308.647275 0) scale(0.996264)"/>
      <use xlink:href="#CMSS17-6f" transform="translate(356.852219 0) scale(0.996264)"/>
      <use xlink:href="#CMSS17-77" transform="translate(401.093388 0) scale(0.996264)"/>
      <use xlink:href="#CMSS17-46" transform="translate(496.142046 0) scale(0.996264)"/>
      <use xlink:href="#CMSS17-61" transform="translate(546.829151 0) scale(0.996264)"/>
      <use xlink:href="#CMSS17-6c" transform="translate(591.751072 0) scale(0.996264)"/>
      <use xlink:href="#CMSS17-6c" transform="translate(613.931795 0) scale(0.996264)"/>
      <use xlink:href="#CMSS17-28" transform="translate(667.341631 0) scale(0.996264)"/>
      <use xlink:href="#CMSS17-6d" transform="translate(703.775545 0) scale(0.996264)"/>
      <use xlink:href="#CMSS17-6d" transform="translate(778.0048 0) scale(0.996264)"/>
      <use xlink:href="#CMSS17-29" transform="translate(852.234054 0) scale(0.996264)"/>
     </g>
    </g>
   </g>
   <g id="patch_124">
    <path d="M 63.236731 104.739556 
L 63.236731 7.2 
" style="fill: none; stroke: #000000; stroke-width: 0.8; stroke-linejoin: miter; stroke-linecap: square"/>
   </g>
   <g id="patch_125">
    <path d="M 397.312989 104.739556 
L 397.312989 7.2 
" style="fill: none; stroke: #000000; stroke-width: 0.8; stroke-linejoin: miter; stroke-linecap: square"/>
   </g>
   <g id="patch_126">
    <path d="M 63.236731 104.739556 
L 397.312989 104.739556 
" style="fill: none; stroke: #000000; stroke-width: 0.8; stroke-linejoin: miter; stroke-linecap: square"/>
   </g>
   <g id="patch_127">
    <path d="M 63.236731 7.2 
L 397.312989 7.2 
" style="fill: none; stroke: #000000; stroke-width: 0.8; stroke-linejoin: miter; stroke-linecap: square"/>
   </g>
  </g>
  <g id="axes_2">
   <g id="matplotlib.axis_2">
    <g id="xtick_1">
     <g id="line2d_5">
      <path d="M 114.995024 104.739556 
L 114.995024 7.2 
" clip-path="url(#pd010c4d9f5)" style="fill: none; stroke: #b0b0b0; stroke-opacity: 0.3; stroke-width: 0.8; stroke-linecap: square"/>
     </g>
     <g id="line2d_6">
      <defs>
       <path id="m7a63d00848" d="M 0 0 
L 0 3.5 
" style="stroke: #000000; stroke-width: 0.8"/>
      </defs>
      <g>
       <use xlink:href="#m7a63d00848" x="114.995024" y="104.739556" style="stroke: #000000; stroke-width: 0.8"/>
      </g>
     </g>
     <g id="text_6">
      <!-- Nov -->
      <g transform="translate(106.67895 118.658054) scale(0.1 -0.1)">
       <defs>
        <path id="CMSS17-4e" d="M 1466 4179 
L 1350 4416 
L 563 4416 
L 563 0 
L 1062 0 
L 1062 3925 
L 1069 3931 
C 1114 3817 1139 3759 1402 3193 
L 2771 236 
L 2886 0 
L 3674 0 
L 3674 4416 
L 3174 4416 
L 3174 490 
L 3168 484 
C 3123 598 3098 655 2835 1222 
L 1466 4179 
z
" transform="scale(0.015625)"/>
        <path id="CMSS17-76" d="M 2675 2752 
L 2176 2752 
L 1747 1555 
C 1613 1164 1421 627 1389 352 
L 1382 352 
C 1370 467 1318 633 1286 748 
C 1248 889 1197 1056 1158 1171 
L 595 2752 
L 83 2752 
L 1094 0 
L 1664 0 
L 2675 2752 
z
" transform="scale(0.015625)"/>
       </defs>
       <use xlink:href="#CMSS17-4e" transform="scale(0.996264)"/>
       <use xlink:href="#CMSS17-6f" transform="translate(66.061519 0) scale(0.996264)"/>
       <use xlink:href="#CMSS17-76" transform="translate(112.905143 0) scale(0.996264)"/>
      </g>
     </g>
    </g>
    <g id="xtick_2">
     <g id="line2d_7">
      <path d="M 185.574515 104.739556 
L 185.574515 7.2 
" clip-path="url(#pd010c4d9f5)" style="fill: none; stroke: #b0b0b0; stroke-opacity: 0.3; stroke-width: 0.8; stroke-linecap: square"/>
     </g>
     <g id="line2d_8">
      <g>
       <use xlink:href="#m7a63d00848" x="185.574515" y="104.739556" style="stroke: #000000; stroke-width: 0.8"/>
      </g>
     </g>
     <g id="text_7">
      <!-- Dec -->
      <g transform="translate(177.549038 118.658054) scale(0.1 -0.1)">
       <defs>
        <path id="CMSS17-44" d="M 570 4416 
L 570 0 
L 2144 0 
C 3194 0 4000 981 4000 2169 
C 4000 3396 3194 4416 2144 4416 
L 570 4416 
z
M 1094 358 
L 1094 4057 
L 2003 4057 
C 2861 4057 3475 3275 3475 2169 
C 3475 1108 2867 358 2003 358 
L 1094 358 
z
" transform="scale(0.015625)"/>
        <path id="CMSS17-65" d="M 2502 1375 
C 2502 1587 2490 2001 2285 2347 
C 2061 2713 1696 2816 1421 2816 
C 755 2816 192 2184 192 1363 
C 192 579 774 -64 1510 -64 
C 1798 -64 2150 19 2470 249 
C 2470 275 2458 414 2451 421 
C 2451 433 2432 629 2432 655 
C 2125 408 1773 326 1517 326 
C 1107 326 666 667 646 1375 
L 2502 1375 
z
M 698 1728 
C 781 2086 1062 2425 1421 2425 
C 1517 2425 1965 2412 2080 1728 
L 698 1728 
z
" transform="scale(0.015625)"/>
        <path id="CMSS17-63" d="M 2464 2540 
C 2464 2585 2170 2713 2093 2739 
C 1882 2816 1613 2816 1542 2816 
C 710 2816 211 2092 211 1363 
C 211 595 768 -64 1517 -64 
C 1946 -64 2253 76 2502 243 
L 2464 665 
C 2189 454 1869 339 1523 339 
C 1024 339 698 774 698 1369 
C 698 1830 909 2412 1549 2412 
C 1901 2412 2099 2342 2394 2143 
L 2464 2540 
z
" transform="scale(0.015625)"/>
       </defs>
       <use xlink:href="#CMSS17-44" transform="scale(0.996264)"/>
       <use xlink:href="#CMSS17-65" transform="translate(67.542842 0) scale(0.996264)"/>
       <use xlink:href="#CMSS17-63" transform="translate(109.181664 0) scale(0.996264)"/>
      </g>
     </g>
    </g>
    <g id="xtick_3">
     <g id="line2d_9">
      <path d="M 258.506656 104.739556 
L 258.506656 7.2 
" clip-path="url(#pd010c4d9f5)" style="fill: none; stroke: #b0b0b0; stroke-opacity: 0.3; stroke-width: 0.8; stroke-linecap: square"/>
     </g>
     <g id="line2d_10">
      <g>
       <use xlink:href="#m7a63d00848" x="258.506656" y="104.739556" style="stroke: #000000; stroke-width: 0.8"/>
      </g>
     </g>
     <g id="text_8">
      <!-- Jan -->
      <g transform="translate(251.186869 118.658054) scale(0.1 -0.1)">
       <defs>
        <path id="CMSS17-4a" d="M 2336 4416 
L 1811 4416 
L 1811 947 
C 1811 640 1683 262 1107 262 
C 781 262 506 416 333 608 
L 250 140 
C 646 -71 1011 -128 1280 -128 
C 1901 -128 2336 230 2336 928 
L 2336 4416 
z
" transform="scale(0.015625)"/>
       </defs>
       <use xlink:href="#CMSS17-4a" transform="scale(0.996264)"/>
       <use xlink:href="#CMSS17-61" transform="translate(44.121076 0) scale(0.996264)"/>
       <use xlink:href="#CMSS17-6e" transform="translate(89.042996 0) scale(0.996264)"/>
      </g>
     </g>
    </g>
    <g id="xtick_4">
     <g id="line2d_11">
      <path d="M 331.438797 104.739556 
L 331.438797 7.2 
" clip-path="url(#pd010c4d9f5)" style="fill: none; stroke: #b0b0b0; stroke-opacity: 0.3; stroke-width: 0.8; stroke-linecap: square"/>
     </g>
     <g id="line2d_12">
      <g>
       <use xlink:href="#m7a63d00848" x="331.438797" y="104.739556" style="stroke: #000000; stroke-width: 0.8"/>
      </g>
     </g>
     <g id="text_9">
      <!-- Feb -->
      <g transform="translate(323.952968 118.658054) scale(0.1 -0.1)">
       <defs>
        <path id="CMSS17-62" d="M 954 4416 
L 480 4416 
L 480 -13 
L 966 -13 
L 966 275 
C 1210 38 1504 -64 1766 -64 
C 2381 -64 2880 559 2880 1382 
C 2880 2133 2496 2816 1926 2816 
C 1523 2816 1165 2649 954 2476 
L 954 4416 
z
M 966 2095 
C 1107 2276 1306 2425 1587 2425 
C 1965 2425 2394 2146 2394 1382 
C 2394 566 1882 326 1530 326 
C 1402 326 1267 358 1139 468 
C 966 624 966 721 966 812 
L 966 2095 
z
" transform="scale(0.015625)"/>
       </defs>
       <use xlink:href="#CMSS17-46" transform="scale(0.996264)"/>
       <use xlink:href="#CMSS17-65" transform="translate(50.687105 0) scale(0.996264)"/>
       <use xlink:href="#CMSS17-62" transform="translate(92.325927 0) scale(0.996264)"/>
      </g>
     </g>
    </g>
    <g id="xtick_5">
     <g id="line2d_13">
      <path d="M 397.312989 104.739556 
L 397.312989 7.2 
" clip-path="url(#pd010c4d9f5)" style="fill: none; stroke: #b0b0b0; stroke-opacity: 0.3; stroke-width: 0.8; stroke-linecap: square"/>
     </g>
     <g id="line2d_14">
      <g>
       <use xlink:href="#m7a63d00848" x="397.312989" y="104.739556" style="stroke: #000000; stroke-width: 0.8"/>
      </g>
     </g>
     <g id="text_10">
      <!-- Mar -->
      <g transform="translate(388.996915 118.658054) scale(0.1 -0.1)">
       <defs>
        <path id="CMSS17-4d" d="M 3194 2373 
L 2886 1476 
C 2835 1311 2662 795 2624 592 
L 2618 592 
C 2598 719 2560 853 2458 1177 
C 2400 1368 2336 1565 2272 1743 
L 1325 4416 
L 576 4416 
L 576 0 
L 1075 0 
L 1075 3899 
L 1082 3899 
C 1082 3893 1139 3613 1530 2500 
L 2374 102 
L 2848 102 
L 3610 2233 
C 3661 2379 3821 2843 3891 3066 
C 3955 3257 4115 3728 4154 3912 
L 4160 3912 
L 4160 0 
L 4666 0 
L 4666 4416 
L 3923 4416 
L 3194 2373 
z
" transform="scale(0.015625)"/>
        <path id="CMSS17-72" d="M 954 1369 
C 954 1974 1395 2379 1958 2392 
L 1958 2816 
C 1549 2809 1165 2604 934 2270 
L 934 2783 
L 480 2783 
L 480 0 
L 954 0 
L 954 1369 
z
" transform="scale(0.015625)"/>
       </defs>
       <use xlink:href="#CMSS17-4d" transform="scale(0.996264)"/>
       <use xlink:href="#CMSS17-61" transform="translate(81.67603 0) scale(0.996264)"/>
       <use xlink:href="#CMSS17-72" transform="translate(123.995497 0) scale(0.996264)"/>
      </g>
     </g>
    </g>
   </g>
   <g id="matplotlib.axis_3">
    <g id="ytick_5">
     <g id="line2d_15">
      <path d="M 63.236731 88.482963 
L 397.312989 88.482963 
" clip-path="url(#pd010c4d9f5)" style="fill: none; stroke: #b0b0b0; stroke-opacity: 0.3; stroke-width: 0.8; stroke-linecap: square"/>
     </g>
     <g id="line2d_16">
      <defs>
       <path id="maf28a8fa13" d="M 0 0 
L -3.5 0 
" style="stroke: #00008b; stroke-width: 0.8"/>
      </defs>
      <g>
       <use xlink:href="#maf28a8fa13" x="63.236731" y="88.482963" style="fill: #00008b; stroke: #00008b; stroke-width: 0.8"/>
      </g>
     </g>
     <g id="text_11">
      <!-- $\mathdefault{−200}$ -->
      <g style="fill: #00008b" transform="translate(33.543981 91.942213) scale(0.1 -0.1)">
       <defs>
        <path id="ComputerModernSans-Regular10pt-0" d="M 602 1715 
C 582 1702 563 1683 557 1670 
C 538 1644 538 1638 538 1600 
C 538 1561 538 1555 557 1529 
C 563 1516 582 1497 602 1484 
L 627 1472 
L 2483 1472 
L 4346 1472 
L 4371 1484 
C 4390 1497 4410 1516 4422 1529 
C 4435 1555 4442 1561 4442 1600 
C 4442 1638 4435 1644 4422 1670 
C 4410 1683 4390 1702 4371 1715 
L 4346 1728 
L 2483 1728 
L 627 1728 
L 602 1715 
z
" transform="scale(0.015625)"/>
       </defs>
       <use xlink:href="#ComputerModernSans-Regular10pt-0" transform="scale(0.996264)"/>
       <use xlink:href="#CMSS17-32" transform="translate(77.487468 0) scale(0.996264)"/>
       <use xlink:href="#CMSS17-30" transform="translate(124.331091 0) scale(0.996264)"/>
       <use xlink:href="#CMSS17-30" transform="translate(171.174715 0) scale(0.996264)"/>
      </g>
     </g>
    </g>
    <g id="ytick_6">
     <g id="line2d_17">
      <path d="M 63.236731 55.969778 
L 397.312989 55.969778 
" clip-path="url(#pd010c4d9f5)" style="fill: none; stroke: #b0b0b0; stroke-opacity: 0.3; stroke-width: 0.8; stroke-linecap: square"/>
     </g>
     <g id="line2d_18">
      <g>
       <use xlink:href="#maf28a8fa13" x="63.236731" y="55.969778" style="fill: #00008b; stroke: #00008b; stroke-width: 0.8"/>
      </g>
     </g>
     <g id="text_12">
      <!-- $\mathdefault{0}$ -->
      <g style="fill: #00008b" transform="translate(51.255395 59.429027) scale(0.1 -0.1)">
       <use xlink:href="#CMSS17-30" transform="scale(0.996264)"/>
      </g>
     </g>
    </g>
    <g id="ytick_7">
     <g id="line2d_19">
      <path d="M 63.236731 23.456593 
L 397.312989 23.456593 
" clip-path="url(#pd010c4d9f5)" style="fill: none; stroke: #b0b0b0; stroke-opacity: 0.3; stroke-width: 0.8; stroke-linecap: square"/>
     </g>
     <g id="line2d_20">
      <g>
       <use xlink:href="#maf28a8fa13" x="63.236731" y="23.456593" style="fill: #00008b; stroke: #00008b; stroke-width: 0.8"/>
      </g>
     </g>
     <g id="text_13">
      <!-- $\mathdefault{200}$ -->
      <g style="fill: #00008b" transform="translate(41.292725 26.915842) scale(0.1 -0.1)">
       <use xlink:href="#CMSS17-32" transform="scale(0.996264)"/>
       <use xlink:href="#CMSS17-30" transform="translate(46.843624 0) scale(0.996264)"/>
       <use xlink:href="#CMSS17-30" transform="translate(93.687247 0) scale(0.996264)"/>
      </g>
     </g>
    </g>
    <g id="text_14">
     <!-- SR50 Snow Height -->
     <g style="fill: #00008b" transform="translate(14.810347 99.067295) rotate(-90) scale(0.11 -0.11)">
      <defs>
       <path id="CMSS17-48" d="M 3674 4416 
L 3136 4416 
L 3136 2496 
L 1101 2496 
L 1101 4416 
L 563 4416 
L 563 0 
L 1101 0 
L 1101 2105 
L 3136 2105 
L 3136 0 
L 3674 0 
L 3674 4416 
z
" transform="scale(0.015625)"/>
       <path id="CMSS17-69" d="M 979 4224 
L 442 4224 
L 442 3686 
L 979 3686 
L 979 4224 
z
M 947 2752 
L 474 2752 
L 474 0 
L 947 0 
L 947 2752 
z
" transform="scale(0.015625)"/>
       <path id="CMSS17-67" d="M 2848 2816 
C 2483 2809 2170 2739 1914 2617 
C 1702 2783 1485 2816 1338 2816 
C 781 2816 358 2356 358 1824 
C 358 1481 550 1222 563 1209 
C 448 1049 384 876 384 684 
C 384 460 474 300 544 211 
C 211 6 166 -308 166 -429 
C 166 -896 749 -1280 1498 -1280 
C 2253 -1280 2835 -896 2835 -423 
C 2835 460 1856 467 1587 467 
L 1069 467 
C 973 467 717 467 717 793 
C 717 921 774 1004 781 1011 
C 877 940 1075 832 1338 832 
C 1869 832 2310 1279 2310 1824 
C 2310 2128 2170 2349 2112 2425 
L 2131 2425 
C 2150 2425 2419 2444 2515 2444 
C 2720 2444 2739 2438 2918 2419 
L 2848 2816 
z
M 1338 1184 
C 1120 1184 813 1317 813 1824 
C 813 2375 1165 2463 1331 2463 
C 1549 2463 1856 2330 1856 1824 
C 1856 1272 1504 1184 1338 1184 
z
M 1581 0 
C 1734 0 2381 0 2381 -436 
C 2381 -711 1984 -928 1504 -928 
C 1018 -928 621 -717 621 -429 
C 621 -397 621 0 1062 0 
L 1581 0 
z
" transform="scale(0.015625)"/>
       <path id="CMSS17-68" d="M 2618 1878 
C 2618 2283 2522 2816 1798 2816 
C 1395 2816 1133 2617 947 2399 
L 947 4416 
L 474 4416 
L 474 0 
L 960 0 
L 960 1556 
C 960 1962 1114 2425 1549 2425 
C 2112 2425 2131 2045 2131 1826 
L 2131 0 
L 2618 0 
L 2618 1878 
z
" transform="scale(0.015625)"/>
       <path id="CMSS17-74" d="M 1069 2380 
L 1901 2380 
L 1901 2752 
L 1069 2752 
L 1069 3520 
L 614 3520 
L 614 2752 
L 109 2752 
L 109 2380 
L 602 2380 
L 602 751 
C 602 384 685 -64 1107 -64 
C 1427 -64 1722 25 2003 172 
L 1901 551 
C 1747 416 1562 339 1363 339 
C 1082 339 1069 699 1069 860 
L 1069 2380 
z
" transform="scale(0.015625)"/>
      </defs>
      <use xlink:href="#CMSS17-53" transform="scale(0.996264)"/>
      <use xlink:href="#CMSS17-52" transform="translate(52.048516 0) scale(0.996264)"/>
      <use xlink:href="#CMSS17-35" transform="translate(112.464671 0) scale(0.996264)"/>
      <use xlink:href="#CMSS17-30" transform="translate(159.308295 0) scale(0.996264)"/>
      <use xlink:href="#CMSS17-53" transform="translate(237.381031 0) scale(0.996264)"/>
      <use xlink:href="#CMSS17-6e" transform="translate(289.429547 0) scale(0.996264)"/>
      <use xlink:href="#CMSS17-6f" transform="translate(337.63449 0) scale(0.996264)"/>
      <use xlink:href="#CMSS17-77" transform="translate(381.87566 0) scale(0.996264)"/>
      <use xlink:href="#CMSS17-48" transform="translate(476.924318 0) scale(0.996264)"/>
      <use xlink:href="#CMSS17-65" transform="translate(542.985837 0) scale(0.996264)"/>
      <use xlink:href="#CMSS17-69" transform="translate(584.624659 0) scale(0.996264)"/>
      <use xlink:href="#CMSS17-67" transform="translate(606.805382 0) scale(0.996264)"/>
      <use xlink:href="#CMSS17-68" transform="translate(653.649005 0) scale(0.996264)"/>
      <use xlink:href="#CMSS17-74" transform="translate(701.853949 0) scale(0.996264)"/>
     </g>
     <!-- (mm) -->
     <g style="fill: #00008b" transform="translate(26.804255 68.937841) rotate(-90) scale(0.11 -0.11)">
      <use xlink:href="#CMSS17-28" transform="scale(0.996264)"/>
      <use xlink:href="#CMSS17-6d" transform="translate(36.433914 0) scale(0.996264)"/>
      <use xlink:href="#CMSS17-6d" transform="translate(110.663169 0) scale(0.996264)"/>
      <use xlink:href="#CMSS17-29" transform="translate(184.892423 0) scale(0.996264)"/>
     </g>
    </g>
   </g>
   <g id="line2d_21">
    <path d="M 89.510002 -1 
L 91.468527 117.125218 
L 96.173826 27.479612 
L 98.526476 117.439357 
L 100.879126 41.467741 
L 102.436131 -1 
M 105.892661 -1 
L 107.937075 114.719953 
L 110.289725 116.83348 
L 112.642374 72.550398 
L 114.995024 81.75058 
L 117.347674 72.783344 
L 119.700323 86.59909 
L 122.052973 89.135291 
L 124.405623 34.058321 
L 126.758273 36.091217 
L 129.110922 41.152106 
L 131.463572 9.809352 
L 133.816222 49.568778 
L 136.168871 56.25452 
L 138.521521 54.441849 
L 140.874171 45.976755 
L 143.226821 42.587637 
L 145.57947 46.067844 
L 147.93212 47.327986 
L 150.28477 45.797226 
L 152.637419 48.957954 
L 154.990069 50.82772 
L 157.342719 50.803128 
L 159.695368 50.704298 
L 162.048018 49.977445 
L 164.400668 49.935836 
L 166.753318 53.340004 
L 169.105967 51.553414 
L 171.458617 51.484032 
L 173.811267 52.008931 
L 176.163916 52.485165 
L 178.516566 52.148355 
L 180.869216 52.182863 
L 183.221866 52.78711 
L 185.574515 48.287101 
L 187.927165 53.488716 
L 190.279815 55.603671 
L 192.632464 54.878226 
L 194.985114 56.167761 
L 197.337764 57.365843 
L 199.690413 58.196351 
L 202.043063 59.826214 
L 204.395713 59.099766 
L 206.748363 62.308425 
L 209.101012 58.727841 
L 211.453662 60.620701 
L 213.806312 59.762402 
L 216.158961 61.168299 
L 218.511611 76.499066 
L 220.864261 62.561996 
L 223.216911 61.52171 
L 225.56956 62.151119 
L 227.92221 64.83781 
L 230.27486 61.657747 
L 232.627509 28.428578 
L 234.980159 43.12565 
L 237.332809 59.672734 
L 239.685458 59.903904 
L 242.038108 82.009844 
L 244.390758 70.655662 
L 246.743408 66.067243 
L 249.096057 66.568689 
L 251.448707 66.274732 
L 253.801357 41.774619 
L 256.154006 42.279197 
L 258.506656 42.487399 
L 260.859306 42.192311 
L 263.211956 42.156065 
L 265.564605 42.544903 
L 267.917255 42.541541 
L 270.269905 42.913398 
L 272.622554 39.609079 
L 274.975204 42.096091 
L 277.327854 43.350571 
L 279.680503 42.832086 
L 282.033153 26.579623 
L 284.385803 45.543751 
L 286.738453 43.783054 
L 289.091102 43.581804 
L 291.443752 43.569246 
L 293.796402 43.486214 
L 296.149051 43.765922 
L 298.501701 44.153768 
L 300.854351 53.695009 
L 303.207001 54.405335 
L 305.55965 54.400187 
L 307.9123 54.016761 
L 310.26495 53.49961 
L 312.617599 52.572332 
L 314.970249 49.797516 
L 317.322899 52.014188 
L 319.675548 53.091778 
L 322.028198 52.667753 
L 324.380848 53.052105 
L 326.733498 52.073429 
L 329.086147 52.101764 
L 331.438797 52.785504 
L 333.791447 53.104433 
L 336.144096 52.221706 
L 338.496746 52.752104 
L 340.849396 52.605835 
L 343.202046 52.846345 
L 345.554695 54.572161 
L 347.907345 52.544787 
L 350.259995 53.272238 
L 352.612644 52.445568 
L 354.965294 52.322453 
L 357.317944 52.487036 
L 359.670593 51.785897 
L 362.023243 52.02097 
L 364.375893 52.290079 
L 366.728543 51.946632 
L 369.081192 52.312691 
L 371.433842 52.19601 
L 373.786492 52.406029 
L 376.139141 52.224594 
" clip-path="url(#pd010c4d9f5)" style="fill: none; stroke: #00008b; stroke-linecap: square"/>
    <defs>
     <path id="mead5b7c5c9" d="M 0 1 
C 0.265203 1 0.51958 0.894634 0.707107 0.707107 
C 0.894634 0.51958 1 0.265203 1 0 
C 1 -0.265203 0.894634 -0.51958 0.707107 -0.707107 
C 0.51958 -0.894634 0.265203 -1 0 -1 
C -0.265203 -1 -0.51958 -0.894634 -0.707107 -0.707107 
C -0.894634 -0.51958 -1 -0.265203 -1 0 
C -1 0.265203 -0.894634 0.51958 -0.707107 0.707107 
C -0.51958 0.894634 -0.265203 1 0 1 
z
" style="stroke: #00008b"/>
    </defs>
    <g clip-path="url(#pd010c4d9f5)">
     <use xlink:href="#mead5b7c5c9" x="89.510002" y="-1" style="fill: #00008b; stroke: #00008b"/>
     <use xlink:href="#mead5b7c5c9" x="91.468527" y="117.125218" style="fill: #00008b; stroke: #00008b"/>
     <use xlink:href="#mead5b7c5c9" x="96.173826" y="27.479612" style="fill: #00008b; stroke: #00008b"/>
     <use xlink:href="#mead5b7c5c9" x="98.526476" y="117.439357" style="fill: #00008b; stroke: #00008b"/>
     <use xlink:href="#mead5b7c5c9" x="100.879126" y="41.467741" style="fill: #00008b; stroke: #00008b"/>
     <use xlink:href="#mead5b7c5c9" x="102.436131" y="-1" style="fill: #00008b; stroke: #00008b"/>
     <use xlink:href="#mead5b7c5c9" x="105.892661" y="-1" style="fill: #00008b; stroke: #00008b"/>
     <use xlink:href="#mead5b7c5c9" x="107.937075" y="114.719953" style="fill: #00008b; stroke: #00008b"/>
     <use xlink:href="#mead5b7c5c9" x="110.289725" y="116.83348" style="fill: #00008b; stroke: #00008b"/>
     <use xlink:href="#mead5b7c5c9" x="112.642374" y="72.550398" style="fill: #00008b; stroke: #00008b"/>
     <use xlink:href="#mead5b7c5c9" x="114.995024" y="81.75058" style="fill: #00008b; stroke: #00008b"/>
     <use xlink:href="#mead5b7c5c9" x="117.347674" y="72.783344" style="fill: #00008b; stroke: #00008b"/>
     <use xlink:href="#mead5b7c5c9" x="119.700323" y="86.59909" style="fill: #00008b; stroke: #00008b"/>
     <use xlink:href="#mead5b7c5c9" x="122.052973" y="89.135291" style="fill: #00008b; stroke: #00008b"/>
     <use xlink:href="#mead5b7c5c9" x="124.405623" y="34.058321" style="fill: #00008b; stroke: #00008b"/>
     <use xlink:href="#mead5b7c5c9" x="126.758273" y="36.091217" style="fill: #00008b; stroke: #00008b"/>
     <use xlink:href="#mead5b7c5c9" x="129.110922" y="41.152106" style="fill: #00008b; stroke: #00008b"/>
     <use xlink:href="#mead5b7c5c9" x="131.463572" y="9.809352" style="fill: #00008b; stroke: #00008b"/>
     <use xlink:href="#mead5b7c5c9" x="133.816222" y="49.568778" style="fill: #00008b; stroke: #00008b"/>
     <use xlink:href="#mead5b7c5c9" x="136.168871" y="56.25452" style="fill: #00008b; stroke: #00008b"/>
     <use xlink:href="#mead5b7c5c9" x="138.521521" y="54.441849" style="fill: #00008b; stroke: #00008b"/>
     <use xlink:href="#mead5b7c5c9" x="140.874171" y="45.976755" style="fill: #00008b; stroke: #00008b"/>
     <use xlink:href="#mead5b7c5c9" x="143.226821" y="42.587637" style="fill: #00008b; stroke: #00008b"/>
     <use xlink:href="#mead5b7c5c9" x="145.57947" y="46.067844" style="fill: #00008b; stroke: #00008b"/>
     <use xlink:href="#mead5b7c5c9" x="147.93212" y="47.327986" style="fill: #00008b; stroke: #00008b"/>
     <use xlink:href="#mead5b7c5c9" x="150.28477" y="45.797226" style="fill: #00008b; stroke: #00008b"/>
     <use xlink:href="#mead5b7c5c9" x="152.637419" y="48.957954" style="fill: #00008b; stroke: #00008b"/>
     <use xlink:href="#mead5b7c5c9" x="154.990069" y="50.82772" style="fill: #00008b; stroke: #00008b"/>
     <use xlink:href="#mead5b7c5c9" x="157.342719" y="50.803128" style="fill: #00008b; stroke: #00008b"/>
     <use xlink:href="#mead5b7c5c9" x="159.695368" y="50.704298" style="fill: #00008b; stroke: #00008b"/>
     <use xlink:href="#mead5b7c5c9" x="162.048018" y="49.977445" style="fill: #00008b; stroke: #00008b"/>
     <use xlink:href="#mead5b7c5c9" x="164.400668" y="49.935836" style="fill: #00008b; stroke: #00008b"/>
     <use xlink:href="#mead5b7c5c9" x="166.753318" y="53.340004" style="fill: #00008b; stroke: #00008b"/>
     <use xlink:href="#mead5b7c5c9" x="169.105967" y="51.553414" style="fill: #00008b; stroke: #00008b"/>
     <use xlink:href="#mead5b7c5c9" x="171.458617" y="51.484032" style="fill: #00008b; stroke: #00008b"/>
     <use xlink:href="#mead5b7c5c9" x="173.811267" y="52.008931" style="fill: #00008b; stroke: #00008b"/>
     <use xlink:href="#mead5b7c5c9" x="176.163916" y="52.485165" style="fill: #00008b; stroke: #00008b"/>
     <use xlink:href="#mead5b7c5c9" x="178.516566" y="52.148355" style="fill: #00008b; stroke: #00008b"/>
     <use xlink:href="#mead5b7c5c9" x="180.869216" y="52.182863" style="fill: #00008b; stroke: #00008b"/>
     <use xlink:href="#mead5b7c5c9" x="183.221866" y="52.78711" style="fill: #00008b; stroke: #00008b"/>
     <use xlink:href="#mead5b7c5c9" x="185.574515" y="48.287101" style="fill: #00008b; stroke: #00008b"/>
     <use xlink:href="#mead5b7c5c9" x="187.927165" y="53.488716" style="fill: #00008b; stroke: #00008b"/>
     <use xlink:href="#mead5b7c5c9" x="190.279815" y="55.603671" style="fill: #00008b; stroke: #00008b"/>
     <use xlink:href="#mead5b7c5c9" x="192.632464" y="54.878226" style="fill: #00008b; stroke: #00008b"/>
     <use xlink:href="#mead5b7c5c9" x="194.985114" y="56.167761" style="fill: #00008b; stroke: #00008b"/>
     <use xlink:href="#mead5b7c5c9" x="197.337764" y="57.365843" style="fill: #00008b; stroke: #00008b"/>
     <use xlink:href="#mead5b7c5c9" x="199.690413" y="58.196351" style="fill: #00008b; stroke: #00008b"/>
     <use xlink:href="#mead5b7c5c9" x="202.043063" y="59.826214" style="fill: #00008b; stroke: #00008b"/>
     <use xlink:href="#mead5b7c5c9" x="204.395713" y="59.099766" style="fill: #00008b; stroke: #00008b"/>
     <use xlink:href="#mead5b7c5c9" x="206.748363" y="62.308425" style="fill: #00008b; stroke: #00008b"/>
     <use xlink:href="#mead5b7c5c9" x="209.101012" y="58.727841" style="fill: #00008b; stroke: #00008b"/>
     <use xlink:href="#mead5b7c5c9" x="211.453662" y="60.620701" style="fill: #00008b; stroke: #00008b"/>
     <use xlink:href="#mead5b7c5c9" x="213.806312" y="59.762402" style="fill: #00008b; stroke: #00008b"/>
     <use xlink:href="#mead5b7c5c9" x="216.158961" y="61.168299" style="fill: #00008b; stroke: #00008b"/>
     <use xlink:href="#mead5b7c5c9" x="218.511611" y="76.499066" style="fill: #00008b; stroke: #00008b"/>
     <use xlink:href="#mead5b7c5c9" x="220.864261" y="62.561996" style="fill: #00008b; stroke: #00008b"/>
     <use xlink:href="#mead5b7c5c9" x="223.216911" y="61.52171" style="fill: #00008b; stroke: #00008b"/>
     <use xlink:href="#mead5b7c5c9" x="225.56956" y="62.151119" style="fill: #00008b; stroke: #00008b"/>
     <use xlink:href="#mead5b7c5c9" x="227.92221" y="64.83781" style="fill: #00008b; stroke: #00008b"/>
     <use xlink:href="#mead5b7c5c9" x="230.27486" y="61.657747" style="fill: #00008b; stroke: #00008b"/>
     <use xlink:href="#mead5b7c5c9" x="232.627509" y="28.428578" style="fill: #00008b; stroke: #00008b"/>
     <use xlink:href="#mead5b7c5c9" x="234.980159" y="43.12565" style="fill: #00008b; stroke: #00008b"/>
     <use xlink:href="#mead5b7c5c9" x="237.332809" y="59.672734" style="fill: #00008b; stroke: #00008b"/>
     <use xlink:href="#mead5b7c5c9" x="239.685458" y="59.903904" style="fill: #00008b; stroke: #00008b"/>
     <use xlink:href="#mead5b7c5c9" x="242.038108" y="82.009844" style="fill: #00008b; stroke: #00008b"/>
     <use xlink:href="#mead5b7c5c9" x="244.390758" y="70.655662" style="fill: #00008b; stroke: #00008b"/>
     <use xlink:href="#mead5b7c5c9" x="246.743408" y="66.067243" style="fill: #00008b; stroke: #00008b"/>
     <use xlink:href="#mead5b7c5c9" x="249.096057" y="66.568689" style="fill: #00008b; stroke: #00008b"/>
     <use xlink:href="#mead5b7c5c9" x="251.448707" y="66.274732" style="fill: #00008b; stroke: #00008b"/>
     <use xlink:href="#mead5b7c5c9" x="253.801357" y="41.774619" style="fill: #00008b; stroke: #00008b"/>
     <use xlink:href="#mead5b7c5c9" x="256.154006" y="42.279197" style="fill: #00008b; stroke: #00008b"/>
     <use xlink:href="#mead5b7c5c9" x="258.506656" y="42.487399" style="fill: #00008b; stroke: #00008b"/>
     <use xlink:href="#mead5b7c5c9" x="260.859306" y="42.192311" style="fill: #00008b; stroke: #00008b"/>
     <use xlink:href="#mead5b7c5c9" x="263.211956" y="42.156065" style="fill: #00008b; stroke: #00008b"/>
     <use xlink:href="#mead5b7c5c9" x="265.564605" y="42.544903" style="fill: #00008b; stroke: #00008b"/>
     <use xlink:href="#mead5b7c5c9" x="267.917255" y="42.541541" style="fill: #00008b; stroke: #00008b"/>
     <use xlink:href="#mead5b7c5c9" x="270.269905" y="42.913398" style="fill: #00008b; stroke: #00008b"/>
     <use xlink:href="#mead5b7c5c9" x="272.622554" y="39.609079" style="fill: #00008b; stroke: #00008b"/>
     <use xlink:href="#mead5b7c5c9" x="274.975204" y="42.096091" style="fill: #00008b; stroke: #00008b"/>
     <use xlink:href="#mead5b7c5c9" x="277.327854" y="43.350571" style="fill: #00008b; stroke: #00008b"/>
     <use xlink:href="#mead5b7c5c9" x="279.680503" y="42.832086" style="fill: #00008b; stroke: #00008b"/>
     <use xlink:href="#mead5b7c5c9" x="282.033153" y="26.579623" style="fill: #00008b; stroke: #00008b"/>
     <use xlink:href="#mead5b7c5c9" x="284.385803" y="45.543751" style="fill: #00008b; stroke: #00008b"/>
     <use xlink:href="#mead5b7c5c9" x="286.738453" y="43.783054" style="fill: #00008b; stroke: #00008b"/>
     <use xlink:href="#mead5b7c5c9" x="289.091102" y="43.581804" style="fill: #00008b; stroke: #00008b"/>
     <use xlink:href="#mead5b7c5c9" x="291.443752" y="43.569246" style="fill: #00008b; stroke: #00008b"/>
     <use xlink:href="#mead5b7c5c9" x="293.796402" y="43.486214" style="fill: #00008b; stroke: #00008b"/>
     <use xlink:href="#mead5b7c5c9" x="296.149051" y="43.765922" style="fill: #00008b; stroke: #00008b"/>
     <use xlink:href="#mead5b7c5c9" x="298.501701" y="44.153768" style="fill: #00008b; stroke: #00008b"/>
     <use xlink:href="#mead5b7c5c9" x="300.854351" y="53.695009" style="fill: #00008b; stroke: #00008b"/>
     <use xlink:href="#mead5b7c5c9" x="303.207001" y="54.405335" style="fill: #00008b; stroke: #00008b"/>
     <use xlink:href="#mead5b7c5c9" x="305.55965" y="54.400187" style="fill: #00008b; stroke: #00008b"/>
     <use xlink:href="#mead5b7c5c9" x="307.9123" y="54.016761" style="fill: #00008b; stroke: #00008b"/>
     <use xlink:href="#mead5b7c5c9" x="310.26495" y="53.49961" style="fill: #00008b; stroke: #00008b"/>
     <use xlink:href="#mead5b7c5c9" x="312.617599" y="52.572332" style="fill: #00008b; stroke: #00008b"/>
     <use xlink:href="#mead5b7c5c9" x="314.970249" y="49.797516" style="fill: #00008b; stroke: #00008b"/>
     <use xlink:href="#mead5b7c5c9" x="317.322899" y="52.014188" style="fill: #00008b; stroke: #00008b"/>
     <use xlink:href="#mead5b7c5c9" x="319.675548" y="53.091778" style="fill: #00008b; stroke: #00008b"/>
     <use xlink:href="#mead5b7c5c9" x="322.028198" y="52.667753" style="fill: #00008b; stroke: #00008b"/>
     <use xlink:href="#mead5b7c5c9" x="324.380848" y="53.052105" style="fill: #00008b; stroke: #00008b"/>
     <use xlink:href="#mead5b7c5c9" x="326.733498" y="52.073429" style="fill: #00008b; stroke: #00008b"/>
     <use xlink:href="#mead5b7c5c9" x="329.086147" y="52.101764" style="fill: #00008b; stroke: #00008b"/>
     <use xlink:href="#mead5b7c5c9" x="331.438797" y="52.785504" style="fill: #00008b; stroke: #00008b"/>
     <use xlink:href="#mead5b7c5c9" x="333.791447" y="53.104433" style="fill: #00008b; stroke: #00008b"/>
     <use xlink:href="#mead5b7c5c9" x="336.144096" y="52.221706" style="fill: #00008b; stroke: #00008b"/>
     <use xlink:href="#mead5b7c5c9" x="338.496746" y="52.752104" style="fill: #00008b; stroke: #00008b"/>
     <use xlink:href="#mead5b7c5c9" x="340.849396" y="52.605835" style="fill: #00008b; stroke: #00008b"/>
     <use xlink:href="#mead5b7c5c9" x="343.202046" y="52.846345" style="fill: #00008b; stroke: #00008b"/>
     <use xlink:href="#mead5b7c5c9" x="345.554695" y="54.572161" style="fill: #00008b; stroke: #00008b"/>
     <use xlink:href="#mead5b7c5c9" x="347.907345" y="52.544787" style="fill: #00008b; stroke: #00008b"/>
     <use xlink:href="#mead5b7c5c9" x="350.259995" y="53.272238" style="fill: #00008b; stroke: #00008b"/>
     <use xlink:href="#mead5b7c5c9" x="352.612644" y="52.445568" style="fill: #00008b; stroke: #00008b"/>
     <use xlink:href="#mead5b7c5c9" x="354.965294" y="52.322453" style="fill: #00008b; stroke: #00008b"/>
     <use xlink:href="#mead5b7c5c9" x="357.317944" y="52.487036" style="fill: #00008b; stroke: #00008b"/>
     <use xlink:href="#mead5b7c5c9" x="359.670593" y="51.785897" style="fill: #00008b; stroke: #00008b"/>
     <use xlink:href="#mead5b7c5c9" x="362.023243" y="52.02097" style="fill: #00008b; stroke: #00008b"/>
     <use xlink:href="#mead5b7c5c9" x="364.375893" y="52.290079" style="fill: #00008b; stroke: #00008b"/>
     <use xlink:href="#mead5b7c5c9" x="366.728543" y="51.946632" style="fill: #00008b; stroke: #00008b"/>
     <use xlink:href="#mead5b7c5c9" x="369.081192" y="52.312691" style="fill: #00008b; stroke: #00008b"/>
     <use xlink:href="#mead5b7c5c9" x="371.433842" y="52.19601" style="fill: #00008b; stroke: #00008b"/>
     <use xlink:href="#mead5b7c5c9" x="373.786492" y="52.406029" style="fill: #00008b; stroke: #00008b"/>
     <use xlink:href="#mead5b7c5c9" x="376.139141" y="52.224594" style="fill: #00008b; stroke: #00008b"/>
    </g>
   </g>
  </g>
 </g>
 <defs>
  <clipPath id="pd010c4d9f5">
   <rect x="63.236731" y="7.2" width="334.076258" height="97.539556"/>
  </clipPath>
 </defs>
</svg>
